<svg width="430" height="186" viewBox="0 0 430 186" fill="none" xmlns="http://www.w3.org/2000/svg">
<path d="M77.5002 86L73.0002 90H47.0002L40.5002 93.5M46.0002 99L52.5002 94.5H75.0002L82.0002 88.5M91.0002 88.5L78.5002 101H56.0002L52.5002 104M59.5002 105.5H78.5002V109L70.0002 117.5M72.5002 120L82.0002 110.5V105.5L93.0002 94.5H99.5002L104 99H108.5L121.5 112H128L144.5 95.5V91L142 88.5M75.0002 123.5L85.0002 113.5V107L94.0002 98H98.0002L107.5 107.5H110.5L115 112M105.5 118.5L102.5 115.5H95.5002L84.5002 126.5M136.5 87V94.5L127 104H121.5L109.5 92H106.5V87M120.5 86V91L122.5 93H126V87M130.5 88V93L127 96.5H121.5L116 91V88M141 108.5L152.5 96.5H163L171.5 88M180 87L165 102H161L158.5 104.5V111L154 115.5M150.5 113.5L155.5 108.5V103L158.5 100H163L168.5 94.5M197.5 62H231L232.5 60.5H242M242 63L235.5 69.5H69.0002M60.5002 74H187L191.5 78.5M191.5 75H235.5L242.5 68H249L253.5 72.5M252.5 63L273 83.5H310.5L306 79H304L302 81H294.5L292.5 79V76L291 74.5H284.5L274.5 64.5V54.5L266 46.5M261 51.5L267 57.5V67L275 75M271.5 37L288.5 54V57.5L299 68M268.5 41.5L280 53V62L286 68H291L294.5 71.5M182.5 105.5L172 115.5L170 113.5V110L177 103H180L194.5 88.5H205.5M210 95.5H196L190.5 101V103H213.5V99H200M222.5 88.5H211.5L222.5 99.5V103L225 105.5H230.5L238.5 113.5H258.5L263.5 108.5M190.5 108.5H227.5L236.5 117.5H258.5M196 115.5H225L229.5 120M211.5 123H222.5L226.5 127V134M211.5 130H218L219.5 131.5V136M246.5 130H254.5L285 99.5H292.5L296.5 103.5V105.5H291L287 109.5M289 103L283.5 108.5H280L270.5 118V120H272.5L278.5 114H281V115.5L274 122.5H268.5L267 121L259 129M262.5 136L265.5 133H272.5L275.5 130V125.5L278.5 122.5H283.5L292.5 113.5H297.5L301.5 109.5M267 141H272.5L281 132.5M268.5 149L304 113.5M309.5 118L306.5 121V128L287 147.5H283.5L276 155M285 163L294 154H296.5V159L291 164.5M296.5 169L304 161.5V152L306.5 149.5H309.5V154H312V144.5H314.5L316 146V150.5H318V136L322 132V122.5L325 119.5V113.5L324 112.5L316 120.5M316 125.5L283 158.5M331 110.5V132L324 139V154L320.5 157.5V164.5L322 166V172.5V176L319.5 178.5M310.5 175V164.5H307.5C307.5 164.5 303.843 168.157 301.5 170.5M329.5 178.5V172.5L332.5 169.5H335.5L341.5 163.5H337.5L335 166H332.5V155H331V167H328.5V142H332.5C332.5 142 332.5 147.181 332.5 150.5M342 110V125.5L344.5 128V132.5L350 138V140L349 141L342 134V130L340 128V136L343 139V144.5L344.5 146V156H346V147.5L347.5 146C347.5 146 349.024 146 350 146V164.5L344 170.5C344 170.5 344 175.376 344 178.5M246.5 71.5L251 76H261L271.5 86.5H312L313.5 88H318M302 94.5L299 91.5H269.5C269.5 91.5 263.71 85.71 260 82M231 88H261L267 94H296.5L300.5 98H304L308 94C308 94 315.009 94 319.5 94M321 97C321 97 316.429 101.571 313.5 104.5M323 104.5C323 104.5 319.953 107.547 318 109.5M352.5 178.5V173.5L357 169H365V157.5L358.5 151V147.5H352.5V152H357L364 159V166H357C357 166 352.734 170.266 350 173M371.5 172.5V166L374 163.5V156L370 152V146H380L391.5 157.5V161.5M377.5 152L383.5 158V161.5H381V167M350.744 121L372.744 143H381L389 151H393L396 154C396 154 398.133 154 399.5 154M282.5 27L286.5 31L288.5 29V25.5V22.5H291L292.5 24V32L302 41.5H309.5L312 39H315L318.5 42.5M317 51.5L313 47.5H295C295 47.5 284.944 37.4437 278.5 31M277 35.5L293.5 52H299.5L301.5 54H309C309 54 309 56.1332 309 57.5M295 55.5H301.5L306 60M316 70L325.5 79.5M318.5 66.5L328 76M309 77L316 84M330 69V40.5L319.5 30C319.5 21.9943 319.5 17.5057 319.5 9.5M308 12V24L313 29H316V13.5C316 13.5 314.172 11.6716 313 10.5M300.5 14.5V31H304C304 25.3374 304 22.1626 304 16.5M336.5 75L334.5 73V39L331 35.5V23H327V32L324 29V16.5L327 13.5H330V19M338 75V68L339.5 66.5V14.5L341.5 12.5H343V27L344 28H346V10.5M373.5 14.5L370 18V26L368 28H362L356.5 33.5V39L344.5 51V66.5L343 68V75L342 76M384.5 21.5L370.5 35.5H365L361.5 39V44.5L350.5 55.5V61M395 29L390.5 33.5H380.5C380.5 33.5 364.959 49.0416 355 59M397.5 35L394 38.5H383.5L365 57M409 46.5H401L392 55.5H389.5L383.5 61.5C378.423 61.5 375.577 61.5 370.5 61.5M350.744 83L361.5 72.2433M352.5 86.5L355 84H365L369 80H372.5L376.5 76H389.5L398 67.5C398 67.5 410.799 67.5 419 67.5M417.5 61.5C417.5 61.5 408.358 61.5 402.5 61.5M411 50.5H402.5L386.5 66.5H375.5C375.5 66.5 373.672 68.3284 372.5 69.5M421 71.5H398L386.5 83H370.5L366.5 87C366.5 87 358.882 87 354 87M422.5 78H411L407.5 74.5H400L392 82.5V87L407.5 102.5C407.5 102.5 415.728 102.5 421 102.5M422.5 84H402.5V87L410 94.5C410 94.5 417.619 94.5 422.5 94.5M419 118L412 111V109H421M418 121.5L385 88.5H372.744L369 92.2433V97.5L377.5 106H382.5L385 108.5H392L399 115.5H404.5C404.5 115.5 411.509 122.509 416 127M414 133L402.5 121.5H390.5L381 112H375.5C375.5 112 374.281 110.781 373.5 110M368 114.5L370.5 117H379L390 128H399L409 138M376 129.5L389 142.5H398L403.5 148M406.5 144.5L395 133H389L377.5 121.5H367.5L364.5 118.5M350 105L355 110M353 99L359 105" stroke="url(#paint0_linear_129_83)"/>
<path d="M80.0002 125L89.0002 116V108.5L94.5002 103H98.0002L105.5 110.5H109L112.5 114M136.5 108L145.5 99M89.0002 128L98.0002 119H103.5M318 178V172L314 168V160L321.5 152.5V138L327.5 132V115M333.5 112.5V134L326.5 141V160V173.5L324 176M312 120L310 122V127.5L280.5 157M307 115L273 149M293.5 116.5L285.5 124.5H280.5L277.5 127.5V131L273 135.5C273 135.5 269.039 135.5 266.5 135.5M261.5 131L267.5 125H273L284 114M316 96H310L307 99M299 107L297 109H292.5L285.5 116M322.5 117.5L318.5 121.5V131L316 133.5V139L314 141H308.5V144.5H305.5L299.5 150.5V160C299.5 160 295.843 163.657 293.5 166M336.5 110.5V138L333.5 141V146.5L336 149V160H339V150.5H342V160H345V166L341 170V176C341 176 338.867 178.133 337.5 179.5M345 112.5V124.5L348 127.5V131L352.5 135.5V144.5M348 110.5V116L351 119L364 132H369.5L374.5 137H379L388.5 146.5H393C393 146.5 396.657 150.157 399 152.5M368.5 144.5L353 129H350V131L357 138V144.5M371 163.5V157L362 148V141L365.5 144.5V148M346.5 173.5L354 166L356.5 163.5V158H360.5L362.5 160V163.5H359M369.5 137L373 140.5H380L388.5 149H393L397.5 153.5M360.5 123.5L362.5 125.5H377L381 129.5V132L388.5 139.5H397.5L402.5 144.5M400.5 111.5L392 103H379L373 97V93.5L374.5 92H383.5L406.5 115M410.5 53.5H402.5L387 69H376L373 72H368.5M357 81.5L360.5 78H371L374.5 74.5H387L397.5 64C397.5 64 407.252 64 413.5 64M405 42.5H393L378 57.5H371L368.5 60M358 70.5L350.5 78M377 19V24.5L369.5 32H364L359 37V43.5L348 54.5V75.5L345.5 78M350.5 72L354.5 68L352.5 66V57.5L380 30H385.5L390 25.5M362 10V24.5H359V15.5L358 14.5H355.5V26.5L353 29V37L342.5 47.5V64V66L340.5 68V73.5M348.5 10.5V28H350.5L352.5 26V10M293.5 20L297 23.5V31C297 31 301.571 35.5711 304.5 38.5M306 26L323.5 43.5C323.5 43.5 323.5 52.0327 323.5 57.5M281.5 31L295.5 45H313.5L318.5 50V59L331.5 72M258 63L275 80H281.5V76L272 66.5V55.5L266.5 50M229.5 99H263L265 97H272L275 100V103.5C275 103.5 267.991 110.509 263.5 115M299.5 101.5L295 97H284C284 97 278.515 102.485 275 106M304.5 62L300 57.5H293.5L291.5 55.5V53C285.642 47.1421 282.358 43.8579 276.5 38" stroke="url(#paint1_linear_129_83)" stroke-opacity="0.26"/>
<path d="M2.64786 78.182V84.0002H1.94332V78.9206H1.90922L0.48877 79.8638V79.1479L1.94332 78.182H2.64786Z" fill="url(#paint2_linear_129_83)"/>
<path d="M9.33888 84.0797C8.91085 84.0797 8.54627 83.9632 8.24513 83.7303C7.944 83.4954 7.71388 83.1555 7.55479 82.7104C7.3957 82.2634 7.31616 81.7237 7.31616 81.0911C7.31616 80.4623 7.3957 79.9254 7.55479 79.4803C7.71578 79.0333 7.94684 78.6924 8.24797 78.4576C8.551 78.2208 8.91464 78.1024 9.33888 78.1024C9.76313 78.1024 10.1258 78.2208 10.427 78.4576C10.73 78.6924 10.961 79.0333 11.1201 79.4803C11.2811 79.9254 11.3616 80.4623 11.3616 81.0911C11.3616 81.7237 11.2821 82.2634 11.123 82.7104C10.9639 83.1555 10.7338 83.4954 10.4326 83.7303C10.1315 83.9632 9.76691 84.0797 9.33888 84.0797ZM9.33888 83.4547C9.76313 83.4547 10.0927 83.2502 10.3275 82.8411C10.5624 82.432 10.6798 81.8487 10.6798 81.0911C10.6798 80.5873 10.6258 80.1583 10.5179 79.8041C10.4118 79.45 10.2584 79.1801 10.0576 78.9945C9.85877 78.8089 9.61919 78.7161 9.33888 78.7161C8.91843 78.7161 8.58983 78.9235 8.35309 79.3382C8.11635 79.7511 7.99797 80.3354 7.99797 81.0911C7.99797 81.5949 8.051 82.0229 8.15706 82.3752C8.26313 82.7274 8.41559 82.9954 8.61445 83.1791C8.81521 83.3629 9.05669 83.4547 9.33888 83.4547Z" fill="url(#paint3_linear_129_83)"/>
<path d="M17.4589 84.0797C17.0309 84.0797 16.6663 83.9632 16.3651 83.7303C16.064 83.4954 15.8339 83.1555 15.6748 82.7104C15.5157 82.2634 15.4362 81.7237 15.4362 81.0911C15.4362 80.4623 15.5157 79.9254 15.6748 79.4803C15.8358 79.0333 16.0668 78.6924 16.368 78.4576C16.671 78.2208 17.0346 78.1024 17.4589 78.1024C17.8831 78.1024 18.2458 78.2208 18.547 78.4576C18.85 78.6924 19.081 79.0333 19.2401 79.4803C19.4011 79.9254 19.4816 80.4623 19.4816 81.0911C19.4816 81.7237 19.4021 82.2634 19.243 82.7104C19.0839 83.1555 18.8538 83.4954 18.5526 83.7303C18.2515 83.9632 17.8869 84.0797 17.4589 84.0797ZM17.4589 83.4547C17.8831 83.4547 18.2127 83.2502 18.4475 82.8411C18.6824 82.432 18.7998 81.8487 18.7998 81.0911C18.7998 80.5873 18.7458 80.1583 18.6379 79.8041C18.5318 79.45 18.3784 79.1801 18.1776 78.9945C17.9788 78.8089 17.7392 78.7161 17.4589 78.7161C17.0384 78.7161 16.7098 78.9235 16.4731 79.3382C16.2363 79.7511 16.118 80.3354 16.118 81.0911C16.118 81.5949 16.171 82.0229 16.2771 82.3752C16.3831 82.7274 16.5356 82.9954 16.7345 83.1791C16.9352 83.3629 17.1767 83.4547 17.4589 83.4547Z" fill="url(#paint4_linear_129_83)"/>
<path d="M25.7266 78.182V84.0002H25.0221V78.9206H24.988L23.5675 79.8638V79.1479L25.0221 78.182H25.7266Z" fill="url(#paint5_linear_129_83)"/>
<path d="M32.5654 78.182V84.0002H31.8608V78.9206H31.8267L30.4063 79.8638V79.1479L31.8608 78.182H32.5654Z" fill="url(#paint6_linear_129_83)"/>
<path d="M39.4041 78.182V84.0002H38.6996V78.9206H38.6655L37.245 79.8638V79.1479L38.6996 78.182H39.4041Z" fill="url(#paint7_linear_129_83)"/>
<path d="M46.2429 78.182V84.0002H45.5383V78.9206H45.5042L44.0838 79.8638V79.1479L45.5383 78.182H46.2429Z" fill="url(#paint8_linear_129_83)"/>
<path d="M52.9339 84.0797C52.5059 84.0797 52.1413 83.9632 51.8401 83.7303C51.539 83.4954 51.3089 83.1555 51.1498 82.7104C50.9907 82.2634 50.9112 81.7237 50.9112 81.0911C50.9112 80.4623 50.9907 79.9254 51.1498 79.4803C51.3108 79.0333 51.5418 78.6924 51.843 78.4576C52.146 78.2208 52.5096 78.1024 52.9339 78.1024C53.3581 78.1024 53.7208 78.2208 54.0219 78.4576C54.325 78.6924 54.556 79.0333 54.7151 79.4803C54.8761 79.9254 54.9566 80.4623 54.9566 81.0911C54.9566 81.7237 54.8771 82.2634 54.718 82.7104C54.5589 83.1555 54.3288 83.4954 54.0276 83.7303C53.7265 83.9632 53.3619 84.0797 52.9339 84.0797ZM52.9339 83.4547C53.3581 83.4547 53.6877 83.2502 53.9225 82.8411C54.1574 82.432 54.2748 81.8487 54.2748 81.0911C54.2748 80.5873 54.2208 80.1583 54.1129 79.8041C54.0068 79.45 53.8534 79.1801 53.6526 78.9945C53.4538 78.8089 53.2142 78.7161 52.9339 78.7161C52.5134 78.7161 52.1848 78.9235 51.9481 79.3382C51.7113 79.7511 51.593 80.3354 51.593 81.0911C51.593 81.5949 51.646 82.0229 51.7521 82.3752C51.8581 82.7274 52.0106 82.9954 52.2094 83.1791C52.4102 83.3629 52.6517 83.4547 52.9339 83.4547Z" fill="url(#paint9_linear_129_83)"/>
<path d="M61.2016 78.182V84.0002H60.4971V78.9206H60.463L59.0425 79.8638V79.1479L60.4971 78.182H61.2016Z" fill="url(#paint10_linear_129_83)"/>
<path d="M67.8926 84.0797C67.4646 84.0797 67.1 83.9632 66.7989 83.7303C66.4977 83.4954 66.2676 83.1555 66.1085 82.7104C65.9495 82.2634 65.8699 81.7237 65.8699 81.0911C65.8699 80.4623 65.9495 79.9254 66.1085 79.4803C66.2695 79.0333 66.5006 78.6924 66.8017 78.4576C67.1048 78.2208 67.4684 78.1024 67.8926 78.1024C68.3169 78.1024 68.6796 78.2208 68.9807 78.4576C69.2837 78.6924 69.5148 79.0333 69.6739 79.4803C69.8349 79.9254 69.9154 80.4623 69.9154 81.0911C69.9154 81.7237 69.8358 82.2634 69.6767 82.7104C69.5176 83.1555 69.2875 83.4954 68.9864 83.7303C68.6852 83.9632 68.3207 84.0797 67.8926 84.0797ZM67.8926 83.4547C68.3169 83.4547 68.6464 83.2502 68.8813 82.8411C69.1161 82.432 69.2335 81.8487 69.2335 81.0911C69.2335 80.5873 69.1796 80.1583 69.0716 79.8041C68.9655 79.45 68.8121 79.1801 68.6114 78.9945C68.4125 78.8089 68.1729 78.7161 67.8926 78.7161C67.4722 78.7161 67.1436 78.9235 66.9068 79.3382C66.6701 79.7511 66.5517 80.3354 66.5517 81.0911C66.5517 81.5949 66.6048 82.0229 66.7108 82.3752C66.8169 82.7274 66.9693 82.9954 67.1682 83.1791C67.369 83.3629 67.6104 83.4547 67.8926 83.4547Z" fill="url(#paint11_linear_129_83)"/>
<path d="M76.1604 78.182V84.0002H75.4558V78.9206H75.4217L74.0013 79.8638V79.1479L75.4558 78.182H76.1604Z" fill="url(#paint12_linear_129_83)"/>
<path d="M82.9991 78.182V84.0002H82.2946V78.9206H82.2605L80.84 79.8638V79.1479L82.2946 78.182H82.9991Z" fill="url(#paint13_linear_129_83)"/>
<path d="M89.6901 84.0797C89.2621 84.0797 88.8975 83.9632 88.5964 83.7303C88.2952 83.4954 88.0651 83.1555 87.906 82.7104C87.747 82.2634 87.6674 81.7237 87.6674 81.0911C87.6674 80.4623 87.747 79.9254 87.906 79.4803C88.067 79.0333 88.2981 78.6924 88.5992 78.4576C88.9023 78.2208 89.2659 78.1024 89.6901 78.1024C90.1144 78.1024 90.4771 78.2208 90.7782 78.4576C91.0812 78.6924 91.3123 79.0333 91.4714 79.4803C91.6324 79.9254 91.7129 80.4623 91.7129 81.0911C91.7129 81.7237 91.6333 82.2634 91.4742 82.7104C91.3151 83.1555 91.085 83.4954 90.7839 83.7303C90.4827 83.9632 90.1182 84.0797 89.6901 84.0797ZM89.6901 83.4547C90.1144 83.4547 90.4439 83.2502 90.6788 82.8411C90.9136 82.432 91.031 81.8487 91.031 81.0911C91.031 80.5873 90.9771 80.1583 90.8691 79.8041C90.763 79.45 90.6096 79.1801 90.4089 78.9945C90.21 78.8089 89.9704 78.7161 89.6901 78.7161C89.2697 78.7161 88.9411 78.9235 88.7043 79.3382C88.4676 79.7511 88.3492 80.3354 88.3492 81.0911C88.3492 81.5949 88.4023 82.0229 88.5083 82.3752C88.6144 82.7274 88.7668 82.9954 88.9657 83.1791C89.1665 83.3629 89.4079 83.4547 89.6901 83.4547Z" fill="url(#paint14_linear_129_83)"/>
<path d="M97.9579 78.182V84.0002H97.2533V78.9206H97.2192L95.7988 79.8638V79.1479L97.2533 78.182H97.9579Z" fill="url(#paint15_linear_129_83)"/>
<path d="M104.649 84.0797C104.221 84.0797 103.856 83.9632 103.555 83.7303C103.254 83.4954 103.024 83.1555 102.865 82.7104C102.706 82.2634 102.626 81.7237 102.626 81.0911C102.626 80.4623 102.706 79.9254 102.865 79.4803C103.026 79.0333 103.257 78.6924 103.558 78.4576C103.861 78.2208 104.225 78.1024 104.649 78.1024C105.073 78.1024 105.436 78.2208 105.737 78.4576C106.04 78.6924 106.271 79.0333 106.43 79.4803C106.591 79.9254 106.672 80.4623 106.672 81.0911C106.672 81.7237 106.592 82.2634 106.433 82.7104C106.274 83.1555 106.044 83.4954 105.743 83.7303C105.441 83.9632 105.077 84.0797 104.649 84.0797ZM104.649 83.4547C105.073 83.4547 105.403 83.2502 105.638 82.8411C105.872 82.432 105.99 81.8487 105.99 81.0911C105.99 80.5873 105.936 80.1583 105.828 79.8041C105.722 79.45 105.568 79.1801 105.368 78.9945C105.169 78.8089 104.929 78.7161 104.649 78.7161C104.228 78.7161 103.9 78.9235 103.663 79.3382C103.426 79.7511 103.308 80.3354 103.308 81.0911C103.308 81.5949 103.361 82.0229 103.467 82.3752C103.573 82.7274 103.726 82.9954 103.924 83.1791C104.125 83.3629 104.367 83.4547 104.649 83.4547Z" fill="url(#paint16_linear_129_83)"/>
<path d="M112.917 78.182V84.0002H112.212V78.9206H112.178L110.758 79.8638V79.1479L112.212 78.182H112.917Z" fill="url(#paint17_linear_129_83)"/>
<path d="M119.608 84.0797C119.18 84.0797 118.815 83.9632 118.514 83.7303C118.213 83.4954 117.983 83.1555 117.824 82.7104C117.664 82.2634 117.585 81.7237 117.585 81.0911C117.585 80.4623 117.664 79.9254 117.824 79.4803C117.985 79.0333 118.216 78.6924 118.517 78.4576C118.82 78.2208 119.183 78.1024 119.608 78.1024C120.032 78.1024 120.395 78.2208 120.696 78.4576C120.999 78.6924 121.23 79.0333 121.389 79.4803C121.55 79.9254 121.63 80.4623 121.63 81.0911C121.63 81.7237 121.551 82.2634 121.392 82.7104C121.233 83.1555 121.003 83.4954 120.701 83.7303C120.4 83.9632 120.036 84.0797 119.608 84.0797ZM119.608 83.4547C120.032 83.4547 120.361 83.2502 120.596 82.8411C120.831 82.432 120.949 81.8487 120.949 81.0911C120.949 80.5873 120.895 80.1583 120.787 79.8041C120.681 79.45 120.527 79.1801 120.326 78.9945C120.128 78.8089 119.888 78.7161 119.608 78.7161C119.187 78.7161 118.859 78.9235 118.622 79.3382C118.385 79.7511 118.267 80.3354 118.267 81.0911C118.267 81.5949 118.32 82.0229 118.426 82.3752C118.532 82.7274 118.684 82.9954 118.883 83.1791C119.084 83.3629 119.325 83.4547 119.608 83.4547Z" fill="url(#paint18_linear_129_83)"/>
<path d="M127.875 78.182V84.0002H127.171V78.9206H127.137L125.716 79.8638V79.1479L127.171 78.182H127.875Z" fill="url(#paint19_linear_129_83)"/>
<path d="M134.566 84.0797C134.138 84.0797 133.774 83.9632 133.473 83.7303C133.172 83.4954 132.941 83.1555 132.782 82.7104C132.623 82.2634 132.544 81.7237 132.544 81.0911C132.544 80.4623 132.623 79.9254 132.782 79.4803C132.943 79.0333 133.174 78.6924 133.475 78.4576C133.779 78.2208 134.142 78.1024 134.566 78.1024C134.991 78.1024 135.353 78.2208 135.654 78.4576C135.957 78.6924 136.189 79.0333 136.348 79.4803C136.509 79.9254 136.589 80.4623 136.589 81.0911C136.589 81.7237 136.51 82.2634 136.35 82.7104C136.191 83.1555 135.961 83.4954 135.66 83.7303C135.359 83.9632 134.994 84.0797 134.566 84.0797ZM134.566 83.4547C134.991 83.4547 135.32 83.2502 135.555 82.8411C135.79 82.432 135.907 81.8487 135.907 81.0911C135.907 80.5873 135.853 80.1583 135.745 79.8041C135.639 79.45 135.486 79.1801 135.285 78.9945C135.086 78.8089 134.847 78.7161 134.566 78.7161C134.146 78.7161 133.817 78.9235 133.581 79.3382C133.344 79.7511 133.225 80.3354 133.225 81.0911C133.225 81.5949 133.279 82.0229 133.385 82.3752C133.491 82.7274 133.643 82.9954 133.842 83.1791C134.043 83.3629 134.284 83.4547 134.566 83.4547Z" fill="url(#paint20_linear_129_83)"/>
<path d="M142.686 84.0797C142.258 84.0797 141.894 83.9632 141.593 83.7303C141.291 83.4954 141.061 83.1555 140.902 82.7104C140.743 82.2634 140.664 81.7237 140.664 81.0911C140.664 80.4623 140.743 79.9254 140.902 79.4803C141.063 79.0333 141.294 78.6924 141.595 78.4576C141.899 78.2208 142.262 78.1024 142.686 78.1024C143.111 78.1024 143.473 78.2208 143.774 78.4576C144.077 78.6924 144.309 79.0333 144.468 79.4803C144.629 79.9254 144.709 80.4623 144.709 81.0911C144.709 81.7237 144.63 82.2634 144.47 82.7104C144.311 83.1555 144.081 83.4954 143.78 83.7303C143.479 83.9632 143.114 84.0797 142.686 84.0797ZM142.686 83.4547C143.111 83.4547 143.44 83.2502 143.675 82.8411C143.91 82.432 144.027 81.8487 144.027 81.0911C144.027 80.5873 143.973 80.1583 143.865 79.8041C143.759 79.45 143.606 79.1801 143.405 78.9945C143.206 78.8089 142.967 78.7161 142.686 78.7161C142.266 78.7161 141.937 78.9235 141.701 79.3382C141.464 79.7511 141.345 80.3354 141.345 81.0911C141.345 81.5949 141.399 82.0229 141.505 82.3752C141.611 82.7274 141.763 82.9954 141.962 83.1791C142.163 83.3629 142.404 83.4547 142.686 83.4547Z" fill="url(#paint21_linear_129_83)"/>
<path d="M150.954 78.182V84.0002H150.25V78.9206H150.215L148.795 79.8638V79.1479L150.25 78.182H150.954Z" fill="url(#paint22_linear_129_83)"/>
<path d="M157.645 84.0797C157.217 84.0797 156.853 83.9632 156.551 83.7303C156.25 83.4954 156.02 83.1555 155.861 82.7104C155.702 82.2634 155.622 81.7237 155.622 81.0911C155.622 80.4623 155.702 79.9254 155.861 79.4803C156.022 79.0333 156.253 78.6924 156.554 78.4576C156.857 78.2208 157.221 78.1024 157.645 78.1024C158.069 78.1024 158.432 78.2208 158.733 78.4576C159.036 78.6924 159.267 79.0333 159.426 79.4803C159.587 79.9254 159.668 80.4623 159.668 81.0911C159.668 81.7237 159.588 82.2634 159.429 82.7104C159.27 83.1555 159.04 83.4954 158.739 83.7303C158.438 83.9632 158.073 84.0797 157.645 84.0797ZM157.645 83.4547C158.069 83.4547 158.399 83.2502 158.634 82.8411C158.869 82.432 158.986 81.8487 158.986 81.0911C158.986 80.5873 158.932 80.1583 158.824 79.8041C158.718 79.45 158.565 79.1801 158.364 78.9945C158.165 78.8089 157.925 78.7161 157.645 78.7161C157.225 78.7161 156.896 78.9235 156.659 79.3382C156.423 79.7511 156.304 80.3354 156.304 81.0911C156.304 81.5949 156.357 82.0229 156.463 82.3752C156.569 82.7274 156.722 82.9954 156.921 83.1791C157.121 83.3629 157.363 83.4547 157.645 83.4547Z" fill="url(#paint23_linear_129_83)"/>
<path d="M165.765 84.0797C165.337 84.0797 164.973 83.9632 164.671 83.7303C164.37 83.4954 164.14 83.1555 163.981 82.7104C163.822 82.2634 163.742 81.7237 163.742 81.0911C163.742 80.4623 163.822 79.9254 163.981 79.4803C164.142 79.0333 164.373 78.6924 164.674 78.4576C164.977 78.2208 165.341 78.1024 165.765 78.1024C166.189 78.1024 166.552 78.2208 166.853 78.4576C167.156 78.6924 167.387 79.0333 167.546 79.4803C167.707 79.9254 167.788 80.4623 167.788 81.0911C167.788 81.7237 167.708 82.2634 167.549 82.7104C167.39 83.1555 167.16 83.4954 166.859 83.7303C166.558 83.9632 166.193 84.0797 165.765 84.0797ZM165.765 83.4547C166.189 83.4547 166.519 83.2502 166.754 82.8411C166.989 82.432 167.106 81.8487 167.106 81.0911C167.106 80.5873 167.052 80.1583 166.944 79.8041C166.838 79.45 166.685 79.1801 166.484 78.9945C166.285 78.8089 166.045 78.7161 165.765 78.7161C165.345 78.7161 165.016 78.9235 164.779 79.3382C164.543 79.7511 164.424 80.3354 164.424 81.0911C164.424 81.5949 164.477 82.0229 164.583 82.3752C164.689 82.7274 164.842 82.9954 165.041 83.1791C165.241 83.3629 165.483 83.4547 165.765 83.4547Z" fill="url(#paint24_linear_129_83)"/>
<path d="M174.033 78.182V84.0002H173.328V78.9206H173.294L171.874 79.8638V79.1479L173.328 78.182H174.033Z" fill="url(#paint25_linear_129_83)"/>
<path d="M180.724 84.0797C180.296 84.0797 179.931 83.9632 179.63 83.7303C179.329 83.4954 179.099 83.1555 178.94 82.7104C178.781 82.2634 178.701 81.7237 178.701 81.0911C178.701 80.4623 178.781 79.9254 178.94 79.4803C179.101 79.0333 179.332 78.6924 179.633 78.4576C179.936 78.2208 180.3 78.1024 180.724 78.1024C181.148 78.1024 181.511 78.2208 181.812 78.4576C182.115 78.6924 182.346 79.0333 182.505 79.4803C182.666 79.9254 182.747 80.4623 182.747 81.0911C182.747 81.7237 182.667 82.2634 182.508 82.7104C182.349 83.1555 182.119 83.4954 181.818 83.7303C181.517 83.9632 181.152 84.0797 180.724 84.0797ZM180.724 83.4547C181.148 83.4547 181.478 83.2502 181.713 82.8411C181.947 82.432 182.065 81.8487 182.065 81.0911C182.065 80.5873 182.011 80.1583 181.903 79.8041C181.797 79.45 181.643 79.1801 181.443 78.9945C181.244 78.8089 181.004 78.7161 180.724 78.7161C180.303 78.7161 179.975 78.9235 179.738 79.3382C179.501 79.7511 179.383 80.3354 179.383 81.0911C179.383 81.5949 179.436 82.0229 179.542 82.3752C179.648 82.7274 179.801 82.9954 179.999 83.1791C180.2 83.3629 180.442 83.4547 180.724 83.4547Z" fill="url(#paint26_linear_129_83)"/>
<path d="M188.992 78.182V84.0002H188.287V78.9206H188.253L186.833 79.8638V79.1479L188.287 78.182H188.992Z" fill="url(#paint27_linear_129_83)"/>
<path d="M195.683 84.0797C195.255 84.0797 194.89 83.9632 194.589 83.7303C194.288 83.4954 194.058 83.1555 193.899 82.7104C193.739 82.2634 193.66 81.7237 193.66 81.0911C193.66 80.4623 193.739 79.9254 193.899 79.4803C194.06 79.0333 194.291 78.6924 194.592 78.4576C194.895 78.2208 195.258 78.1024 195.683 78.1024C196.107 78.1024 196.47 78.2208 196.771 78.4576C197.074 78.6924 197.305 79.0333 197.464 79.4803C197.625 79.9254 197.705 80.4623 197.705 81.0911C197.705 81.7237 197.626 82.2634 197.467 82.7104C197.308 83.1555 197.078 83.4954 196.776 83.7303C196.475 83.9632 196.111 84.0797 195.683 84.0797ZM195.683 83.4547C196.107 83.4547 196.436 83.2502 196.671 82.8411C196.906 82.432 197.024 81.8487 197.024 81.0911C197.024 80.5873 196.97 80.1583 196.862 79.8041C196.756 79.45 196.602 79.1801 196.401 78.9945C196.203 78.8089 195.963 78.7161 195.683 78.7161C195.262 78.7161 194.934 78.9235 194.697 79.3382C194.46 79.7511 194.342 80.3354 194.342 81.0911C194.342 81.5949 194.395 82.0229 194.501 82.3752C194.607 82.7274 194.759 82.9954 194.958 83.1791C195.159 83.3629 195.4 83.4547 195.683 83.4547Z" fill="url(#paint28_linear_129_83)"/>
<path d="M203.803 84.0797C203.375 84.0797 203.01 83.9632 202.709 83.7303C202.408 83.4954 202.178 83.1555 202.019 82.7104C201.859 82.2634 201.78 81.7237 201.78 81.0911C201.78 80.4623 201.859 79.9254 202.019 79.4803C202.18 79.0333 202.411 78.6924 202.712 78.4576C203.015 78.2208 203.378 78.1024 203.803 78.1024C204.227 78.1024 204.59 78.2208 204.891 78.4576C205.194 78.6924 205.425 79.0333 205.584 79.4803C205.745 79.9254 205.825 80.4623 205.825 81.0911C205.825 81.7237 205.746 82.2634 205.587 82.7104C205.428 83.1555 205.198 83.4954 204.896 83.7303C204.595 83.9632 204.231 84.0797 203.803 84.0797ZM203.803 83.4547C204.227 83.4547 204.556 83.2502 204.791 82.8411C205.026 82.432 205.144 81.8487 205.144 81.0911C205.144 80.5873 205.09 80.1583 204.982 79.8041C204.876 79.45 204.722 79.1801 204.521 78.9945C204.323 78.8089 204.083 78.7161 203.803 78.7161C203.382 78.7161 203.054 78.9235 202.817 79.3382C202.58 79.7511 202.462 80.3354 202.462 81.0911C202.462 81.5949 202.515 82.0229 202.621 82.3752C202.727 82.7274 202.879 82.9954 203.078 83.1791C203.279 83.3629 203.52 83.4547 203.803 83.4547Z" fill="url(#paint29_linear_129_83)"/>
<path d="M212.07 78.182V84.0002H211.366V78.9206H211.332L209.911 79.8638V79.1479L211.366 78.182H212.07Z" fill="url(#paint30_linear_129_83)"/>
<path d="M218.761 84.0797C218.333 84.0797 217.969 83.9632 217.668 83.7303C217.366 83.4954 217.136 83.1555 216.977 82.7104C216.818 82.2634 216.739 81.7237 216.739 81.0911C216.739 80.4623 216.818 79.9254 216.977 79.4803C217.138 79.0333 217.369 78.6924 217.67 78.4576C217.974 78.2208 218.337 78.1024 218.761 78.1024C219.186 78.1024 219.548 78.2208 219.849 78.4576C220.152 78.6924 220.384 79.0333 220.543 79.4803C220.704 79.9254 220.784 80.4623 220.784 81.0911C220.784 81.7237 220.705 82.2634 220.545 82.7104C220.386 83.1555 220.156 83.4954 219.855 83.7303C219.554 83.9632 219.189 84.0797 218.761 84.0797ZM218.761 83.4547C219.186 83.4547 219.515 83.2502 219.75 82.8411C219.985 82.432 220.102 81.8487 220.102 81.0911C220.102 80.5873 220.048 80.1583 219.94 79.8041C219.834 79.45 219.681 79.1801 219.48 78.9945C219.281 78.8089 219.042 78.7161 218.761 78.7161C218.341 78.7161 218.012 78.9235 217.776 79.3382C217.539 79.7511 217.42 80.3354 217.42 81.0911C217.42 81.5949 217.473 82.0229 217.58 82.3752C217.686 82.7274 217.838 82.9954 218.037 83.1791C218.238 83.3629 218.479 83.4547 218.761 83.4547Z" fill="url(#paint31_linear_129_83)"/>
<path d="M227.029 78.182V84.0002H226.325V78.9206H226.29L224.87 79.8638V79.1479L226.325 78.182H227.029Z" fill="url(#paint32_linear_129_83)"/>
<path d="M233.72 84.0797C233.292 84.0797 232.928 83.9632 232.626 83.7303C232.325 83.4954 232.095 83.1555 231.936 82.7104C231.777 82.2634 231.697 81.7237 231.697 81.0911C231.697 80.4623 231.777 79.9254 231.936 79.4803C232.097 79.0333 232.328 78.6924 232.629 78.4576C232.932 78.2208 233.296 78.1024 233.72 78.1024C234.144 78.1024 234.507 78.2208 234.808 78.4576C235.111 78.6924 235.342 79.0333 235.501 79.4803C235.662 79.9254 235.743 80.4623 235.743 81.0911C235.743 81.7237 235.663 82.2634 235.504 82.7104C235.345 83.1555 235.115 83.4954 234.814 83.7303C234.513 83.9632 234.148 84.0797 233.72 84.0797ZM233.72 83.4547C234.144 83.4547 234.474 83.2502 234.709 82.8411C234.944 82.432 235.061 81.8487 235.061 81.0911C235.061 80.5873 235.007 80.1583 234.899 79.8041C234.793 79.45 234.64 79.1801 234.439 78.9945C234.24 78.8089 234 78.7161 233.72 78.7161C233.3 78.7161 232.971 78.9235 232.734 79.3382C232.498 79.7511 232.379 80.3354 232.379 81.0911C232.379 81.5949 232.432 82.0229 232.538 82.3752C232.644 82.7274 232.797 82.9954 232.996 83.1791C233.196 83.3629 233.438 83.4547 233.72 83.4547Z" fill="url(#paint33_linear_129_83)"/>
<path d="M241.84 84.0797C241.412 84.0797 241.048 83.9632 240.746 83.7303C240.445 83.4954 240.215 83.1555 240.056 82.7104C239.897 82.2634 239.817 81.7237 239.817 81.0911C239.817 80.4623 239.897 79.9254 240.056 79.4803C240.217 79.0333 240.448 78.6924 240.749 78.4576C241.052 78.2208 241.416 78.1024 241.84 78.1024C242.264 78.1024 242.627 78.2208 242.928 78.4576C243.231 78.6924 243.462 79.0333 243.621 79.4803C243.782 79.9254 243.863 80.4623 243.863 81.0911C243.863 81.7237 243.783 82.2634 243.624 82.7104C243.465 83.1555 243.235 83.4954 242.934 83.7303C242.633 83.9632 242.268 84.0797 241.84 84.0797ZM241.84 83.4547C242.264 83.4547 242.594 83.2502 242.829 82.8411C243.064 82.432 243.181 81.8487 243.181 81.0911C243.181 80.5873 243.127 80.1583 243.019 79.8041C242.913 79.45 242.76 79.1801 242.559 78.9945C242.36 78.8089 242.12 78.7161 241.84 78.7161C241.42 78.7161 241.091 78.9235 240.854 79.3382C240.618 79.7511 240.499 80.3354 240.499 81.0911C240.499 81.5949 240.552 82.0229 240.658 82.3752C240.764 82.7274 240.917 82.9954 241.116 83.1791C241.316 83.3629 241.558 83.4547 241.84 83.4547Z" fill="url(#paint34_linear_129_83)"/>
<path d="M250.108 78.182V84.0002H249.403V78.9206H249.369L247.949 79.8638V79.1479L249.403 78.182H250.108Z" fill="url(#paint35_linear_129_83)"/>
<path d="M306.481 73.0876C306.178 73.3903 305.838 73.5657 305.461 73.6139C305.082 73.6608 304.678 73.5831 304.251 73.3809C303.823 73.1773 303.385 72.8519 302.937 72.4046C302.493 71.96 302.169 71.5241 301.967 71.0968C301.765 70.667 301.687 70.2625 301.734 69.8835C301.781 69.5018 301.954 69.161 302.254 68.861C302.554 68.561 302.895 68.3883 303.275 68.3427C303.655 68.2945 304.06 68.3722 304.488 68.5758C304.917 68.7767 305.353 69.0994 305.798 69.544C306.245 69.9913 306.571 70.4292 306.774 70.8578C306.977 71.285 307.054 71.6881 307.007 72.0671C306.959 72.4448 306.784 72.7849 306.481 73.0876ZM306.039 72.6457C306.339 72.3457 306.427 71.968 306.304 71.5127C306.181 71.0573 305.852 70.5618 305.316 70.0261C304.96 69.6699 304.618 69.4047 304.291 69.2306C303.966 69.0552 303.667 68.9728 303.393 68.9836C303.122 68.9929 302.887 69.0967 302.688 69.2949C302.391 69.5922 302.305 69.9712 302.431 70.4319C302.556 70.8913 302.885 71.3881 303.42 71.9225C303.776 72.2787 304.116 72.5439 304.44 72.718C304.764 72.8921 305.061 72.9738 305.332 72.963C305.604 72.951 305.84 72.8452 306.039 72.6457Z" fill="url(#paint36_linear_129_83)"/>
<path d="M308.157 63.0711L312.271 67.1852L311.773 67.6834L308.181 64.0916L308.157 64.1157L307.819 65.787L307.313 65.2808L307.659 63.5693L308.157 63.0711Z" fill="url(#paint37_linear_129_83)"/>
<path d="M317.058 62.5102C316.756 62.8128 316.416 62.9883 316.038 63.0365C315.659 63.0833 315.256 63.0057 314.829 62.8034C314.4 62.5999 313.962 62.2745 313.515 61.8272C313.07 61.3825 312.747 60.9466 312.545 60.5194C312.342 60.0895 312.265 59.6851 312.312 59.3061C312.358 58.9244 312.532 58.5836 312.832 58.2836C313.132 57.9836 313.472 57.8108 313.852 57.7653C314.233 57.7171 314.637 57.7948 315.066 57.9983C315.494 58.1992 315.931 58.522 316.375 58.9666C316.823 59.4139 317.148 59.8518 317.352 60.2804C317.554 60.7076 317.632 61.1107 317.585 61.4897C317.537 61.8673 317.361 62.2075 317.058 62.5102ZM316.616 62.0682C316.916 61.7682 317.005 61.3906 316.882 60.9352C316.758 60.4799 316.429 59.9844 315.893 59.4487C315.537 59.0925 315.196 58.8273 314.869 58.6532C314.543 58.4778 314.244 58.3954 313.971 58.4061C313.699 58.4155 313.464 58.5193 313.266 58.7175C312.968 59.0148 312.883 59.3938 313.009 59.8545C313.133 60.3138 313.463 60.8107 313.997 61.345C314.353 61.7013 314.693 61.9664 315.017 62.1405C315.342 62.3146 315.639 62.3963 315.909 62.3856C316.181 62.3736 316.417 62.2678 316.616 62.0682Z" fill="url(#paint38_linear_129_83)"/>
<path d="M366.732 102.126C367.035 101.823 367.375 101.648 367.753 101.599C368.132 101.552 368.535 101.63 368.962 101.832C369.391 102.036 369.829 102.361 370.276 102.809C370.721 103.253 371.044 103.689 371.246 104.116C371.448 104.546 371.526 104.951 371.479 105.33C371.432 105.711 371.259 106.052 370.959 106.352C370.659 106.652 370.319 106.825 369.938 106.87C369.558 106.919 369.154 106.841 368.725 106.637C368.297 106.437 367.86 106.114 367.415 105.669C366.968 105.222 366.643 104.784 366.439 104.355C366.237 103.928 366.159 103.525 366.206 103.146C366.254 102.768 366.43 102.428 366.732 102.126ZM367.174 102.568C366.874 102.868 366.786 103.245 366.909 103.701C367.032 104.156 367.362 104.651 367.898 105.187C368.254 105.543 368.595 105.808 368.922 105.983C369.247 106.158 369.547 106.24 369.82 106.23C370.092 106.22 370.327 106.117 370.525 105.918C370.822 105.621 370.908 105.242 370.782 104.781C370.658 104.322 370.328 103.825 369.794 103.291C369.438 102.935 369.097 102.669 368.773 102.495C368.449 102.321 368.152 102.239 367.881 102.25C367.61 102.262 367.374 102.368 367.174 102.568Z" fill="url(#paint39_linear_129_83)"/>
<path d="M360.991 107.867C361.293 107.565 361.634 107.389 362.011 107.341C362.39 107.294 362.793 107.372 363.22 107.574C363.649 107.778 364.087 108.103 364.534 108.55C364.979 108.995 365.302 109.431 365.505 109.858C365.707 110.288 365.784 110.692 365.738 111.071C365.691 111.453 365.517 111.794 365.217 112.094C364.917 112.394 364.577 112.567 364.197 112.612C363.816 112.66 363.412 112.583 362.983 112.379C362.555 112.178 362.118 111.856 361.674 111.411C361.226 110.964 360.901 110.526 360.697 110.097C360.495 109.67 360.418 109.267 360.464 108.888C360.513 108.51 360.688 108.17 360.991 107.867ZM361.433 108.309C361.133 108.609 361.044 108.987 361.167 109.442C361.291 109.898 361.62 110.393 362.156 110.929C362.512 111.285 362.854 111.55 363.18 111.724C363.506 111.9 363.805 111.982 364.078 111.971C364.35 111.962 364.585 111.858 364.783 111.66C365.081 111.363 365.166 110.984 365.04 110.523C364.916 110.064 364.587 109.567 364.052 109.032C363.696 108.676 363.356 108.411 363.032 108.237C362.708 108.063 362.41 107.981 362.14 107.992C361.868 108.004 361.632 108.11 361.433 108.309Z" fill="url(#paint40_linear_129_83)"/>
<path d="M355.249 113.609C355.552 113.306 355.892 113.131 356.269 113.083C356.648 113.036 357.052 113.114 357.479 113.316C357.907 113.519 358.345 113.845 358.793 114.292C359.237 114.737 359.561 115.173 359.763 115.6C359.965 116.03 360.043 116.434 359.996 116.813C359.949 117.195 359.776 117.536 359.476 117.836C359.176 118.136 358.835 118.308 358.455 118.354C358.075 118.402 357.67 118.324 357.242 118.121C356.813 117.92 356.377 117.597 355.932 117.153C355.485 116.705 355.159 116.267 354.956 115.839C354.753 115.412 354.676 115.009 354.723 114.63C354.771 114.252 354.946 113.912 355.249 113.609ZM355.691 114.051C355.391 114.351 355.303 114.729 355.426 115.184C355.549 115.639 355.878 116.135 356.414 116.671C356.77 117.027 357.112 117.292 357.439 117.466C357.764 117.641 358.063 117.724 358.337 117.713C358.608 117.704 358.843 117.6 359.042 117.402C359.339 117.104 359.425 116.725 359.299 116.265C359.174 115.805 358.845 115.309 358.31 114.774C357.954 114.418 357.614 114.153 357.29 113.979C356.966 113.805 356.669 113.723 356.398 113.734C356.126 113.746 355.89 113.851 355.691 114.051Z" fill="url(#paint41_linear_129_83)"/>
<path d="M362.401 59.4152L358.287 63.5293L357.788 63.0311L361.38 59.4393L361.356 59.4152L359.685 59.0777L360.191 58.5715L361.902 58.917L362.401 59.4152Z" fill="url(#paint42_linear_129_83)"/>
<path d="M367.236 64.2509L363.122 68.365L362.624 67.8668L366.216 64.275L366.192 64.2509L364.52 63.9134L365.027 63.4072L366.738 63.7527L367.236 64.2509Z" fill="url(#paint43_linear_129_83)"/>
<path d="M311.399 116.384L315.513 112.27L316.011 112.768L312.419 116.36L312.443 116.384L314.115 116.721L313.608 117.228L311.897 116.882L311.399 116.384Z" fill="url(#paint44_linear_129_83)"/>
<path d="M306.563 111.548L310.677 107.434L311.175 107.932L307.583 111.524L307.608 111.548L309.279 111.886L308.773 112.392L307.061 112.046L306.563 111.548Z" fill="url(#paint45_linear_129_83)"/>
<path d="M301.727 106.713L305.841 102.598L306.34 103.097L302.748 106.688L302.772 106.713L304.443 107.05L303.937 107.556L302.225 107.211L301.727 106.713Z" fill="url(#paint46_linear_129_83)"/>
<g filter="url(#filter0_d_129_83)">
<path d="M45.0002 92.5C45.0002 94.9853 42.9855 97 40.5002 97C38.015 97 36.0002 94.9853 36.0002 92.5C36.0002 90.0147 38.015 88 40.5002 88C42.9855 88 45.0002 90.0147 45.0002 92.5Z" fill="url(#paint47_radial_129_83)"/>
<path d="M49.0002 98C49.0002 99.6569 47.6571 101 46.0002 101C44.3434 101 43.0002 99.6569 43.0002 98C43.0002 96.3431 44.3434 95 46.0002 95C47.6571 95 49.0002 96.3431 49.0002 98Z" fill="url(#paint48_radial_129_83)"/>
<path d="M55.0002 104C55.0002 105.657 53.6571 107 52.0002 107C50.3434 107 49.0002 105.657 49.0002 104C49.0002 102.343 50.3434 101 52.0002 101C53.6571 101 55.0002 102.343 55.0002 104Z" fill="url(#paint49_radial_129_83)"/>
<path d="M65.0002 113C65.0002 114.657 63.6571 116 62.0002 116C60.3434 116 59.0002 114.657 59.0002 113C59.0002 111.343 60.3434 110 62.0002 110C63.6571 110 65.0002 111.343 65.0002 113Z" fill="url(#paint50_radial_129_83)"/>
<path d="M77.0002 124C77.0002 125.657 75.6571 127 74.0002 127C72.3434 127 71.0002 125.657 71.0002 124C71.0002 122.343 72.3434 121 74.0002 121C75.6571 121 77.0002 122.343 77.0002 124Z" fill="url(#paint51_radial_129_83)"/>
<path d="M87.0002 128C87.0002 129.657 85.6571 131 84.0002 131C82.3434 131 81.0002 129.657 81.0002 128C81.0002 126.343 82.3434 125 84.0002 125C85.6571 125 87.0002 126.343 87.0002 128Z" fill="url(#paint52_radial_129_83)"/>
<path d="M63.0002 73C63.0002 74.6569 61.6571 76 60.0002 76C58.3434 76 57.0002 74.6569 57.0002 73C57.0002 71.3431 58.3434 70 60.0002 70C61.6571 70 63.0002 71.3431 63.0002 73Z" fill="url(#paint53_radial_129_83)"/>
<path d="M72.0002 69C72.0002 70.6569 70.6571 72 69.0002 72C67.3434 72 66.0002 70.6569 66.0002 69C66.0002 67.3431 67.3434 66 69.0002 66C70.6571 66 72.0002 67.3431 72.0002 69Z" fill="url(#paint54_radial_129_83)"/>
<path d="M88.0002 62C88.0002 63.6569 86.6571 65 85.0002 65C83.3434 65 82.0002 63.6569 82.0002 62C82.0002 60.3431 83.3434 59 85.0002 59C86.6571 59 88.0002 60.3431 88.0002 62Z" fill="url(#paint55_radial_129_83)"/>
<path d="M102 62C102 63.6569 100.657 65 99.0002 65C97.3434 65 96.0002 63.6569 96.0002 62C96.0002 60.3431 97.3434 59 99.0002 59C100.657 59 102 60.3431 102 62Z" fill="url(#paint56_radial_129_83)"/>
<path d="M123 62C123 63.6569 121.657 65 120 65C118.343 65 117 63.6569 117 62C117 60.3431 118.343 59 120 59C121.657 59 123 60.3431 123 62Z" fill="url(#paint57_radial_129_83)"/>
<path d="M130 62C130 63.6569 128.657 65 127 65C125.343 65 124 63.6569 124 62C124 60.3431 125.343 59 127 59C128.657 59 130 60.3431 130 62Z" fill="url(#paint58_radial_129_83)"/>
<path d="M144 62C144 63.6569 142.657 65 141 65C139.343 65 138 63.6569 138 62C138 60.3431 139.343 59 141 59C142.657 59 144 60.3431 144 62Z" fill="url(#paint59_radial_129_83)"/>
<path d="M178 62C178 63.6569 176.657 65 175 65C173.343 65 172 63.6569 172 62C172 60.3431 173.343 59 175 59C176.657 59 178 60.3431 178 62Z" fill="url(#paint60_radial_129_83)"/>
<path d="M200 62C200 63.6569 198.657 65 197 65C195.343 65 194 63.6569 194 62C194 60.3431 195.343 59 197 59C198.657 59 200 60.3431 200 62Z" fill="url(#paint61_radial_129_83)"/>
<path d="M156 62C156 63.6569 154.657 65 153 65C151.343 65 150 63.6569 150 62C150 60.3431 151.343 59 153 59C154.657 59 156 60.3431 156 62Z" fill="url(#paint62_radial_129_83)"/>
<path d="M245 62C245 63.6569 243.657 65 242 65C240.343 65 239 63.6569 239 62C239 60.3431 240.343 59 242 59C243.657 59 245 60.3431 245 62Z" fill="url(#paint63_radial_129_83)"/>
<path d="M256 62C256 63.6569 254.657 65 253 65C251.343 65 250 63.6569 250 62C250 60.3431 251.343 59 253 59C254.657 59 256 60.3431 256 62Z" fill="url(#paint64_radial_129_83)"/>
<path d="M110 120C110 122.209 108.209 124 106 124C103.791 124 102 122.209 102 120C102 117.791 103.791 116 106 116C108.209 116 110 117.791 110 120Z" fill="url(#paint65_radial_129_83)"/>
<path d="M119 114.5C119 116.985 116.986 119 114.5 119C112.015 119 110 116.985 110 114.5C110 112.015 112.015 110 114.5 110C116.986 110 119 112.015 119 114.5Z" fill="url(#paint66_radial_129_83)"/>
<path d="M144 110C144 111.657 142.657 113 141 113C139.343 113 138 111.657 138 110C138 108.343 139.343 107 141 107C142.657 107 144 108.343 144 110Z" fill="url(#paint67_radial_129_83)"/>
<path d="M160 119.5C160 121.433 158.433 123 156.5 123C154.567 123 153 121.433 153 119.5C153 117.567 154.567 116 156.5 116C158.433 116 160 117.567 160 119.5Z" fill="url(#paint68_radial_129_83)"/>
<path d="M152 113.5C152 114.328 151.329 115 150.5 115C149.672 115 149 114.328 149 113.5C149 112.672 149.672 112 150.5 112C151.329 112 152 112.672 152 113.5Z" fill="url(#paint69_radial_129_83)"/>
<path d="M155 115.5C155 116.328 154.329 117 153.5 117C152.672 117 152 116.328 152 115.5C152 114.672 152.672 114 153.5 114C154.329 114 155 114.672 155 115.5Z" fill="url(#paint70_radial_129_83)"/>
<path d="M185 106C185 107.105 184.105 108 183 108C181.896 108 181 107.105 181 106C181 104.895 181.896 104 183 104C184.105 104 185 104.895 185 106Z" fill="url(#paint71_radial_129_83)"/>
<path d="M193 109C193 110.657 191.657 112 190 112C188.343 112 187 110.657 187 109C187 107.343 188.343 106 190 106C191.657 106 193 107.343 193 109Z" fill="url(#paint72_radial_129_83)"/>
<path d="M198 116C198 117.105 197.105 118 196 118C194.896 118 194 117.105 194 116C194 114.895 194.896 114 196 114C197.105 114 198 114.895 198 116Z" fill="url(#paint73_radial_129_83)"/>
<path d="M214 123C214 124.657 212.657 126 211 126C209.343 126 208 124.657 208 123C208 121.343 209.343 120 211 120C212.657 120 214 121.343 214 123Z" fill="url(#paint74_radial_129_83)"/>
<path d="M215 131.5C215 133.433 213.433 135 211.5 135C209.567 135 208 133.433 208 131.5C208 129.567 209.567 128 211.5 128C213.433 128 215 129.567 215 131.5Z" fill="url(#paint75_radial_129_83)"/>
<path d="M329 81C329 82.6569 327.657 84 326 84C324.343 84 323 82.6569 323 81C323 79.3431 324.343 78 326 78C327.657 78 329 79.3431 329 81Z" fill="url(#paint76_radial_129_83)"/>
<path d="M323 95C323 96.6569 321.657 98 320 98C318.343 98 317 96.6569 317 95C317 93.3431 318.343 92 320 92C321.657 92 323 93.3431 323 95Z" fill="url(#paint77_radial_129_83)"/>
<path d="M327 104C327 105.657 325.657 107 324 107C322.343 107 321 105.657 321 104C321 102.343 322.343 101 324 101C325.657 101 327 102.343 327 104Z" fill="url(#paint78_radial_129_83)"/>
<path d="M335 109C335 110.657 333.657 112 332 112C330.343 112 329 110.657 329 109C329 107.343 330.343 106 332 106C333.657 106 335 107.343 335 109Z" fill="url(#paint79_radial_129_83)"/>
<path d="M345 109C345 110.657 343.657 112 342 112C340.343 112 339 110.657 339 109C339 107.343 340.343 106 342 106C343.657 106 345 107.343 345 109Z" fill="url(#paint80_radial_129_83)"/>
<path d="M352 105C352 106.657 350.657 108 349 108C347.343 108 346 106.657 346 105C346 103.343 347.343 102 349 102C350.657 102 352 103.343 352 105Z" fill="url(#paint81_radial_129_83)"/>
<path d="M356 99C356 100.657 354.657 102 353 102C351.343 102 350 100.657 350 99C350 97.3431 351.343 96 353 96C354.657 96 356 97.3431 356 99Z" fill="url(#paint82_radial_129_83)"/>
<path d="M356 88C356 89.6569 354.657 91 353 91C351.343 91 350 89.6569 350 88C350 86.3431 351.343 85 353 85C354.657 85 356 86.3431 356 88Z" fill="url(#paint83_radial_129_83)"/>
<path d="M353 83C353 84.6569 351.657 86 350 86C348.343 86 347 84.6569 347 83C347 81.3431 348.343 80 350 80C351.657 80 353 81.3431 353 83Z" fill="url(#paint84_radial_129_83)"/>
<path d="M340 76C340 77.6569 338.657 79 337 79C335.343 79 334 77.6569 334 76C334 74.3431 335.343 73 337 73C338.657 73 340 74.3431 340 76Z" fill="url(#paint85_radial_129_83)"/>
<path d="M267 46.5C267 47.8807 265.881 49 264.5 49C263.12 49 262 47.8807 262 46.5C262 45.1193 263.12 44 264.5 44C265.881 44 267 45.1193 267 46.5Z" fill="url(#paint86_radial_129_83)"/>
<path d="M263 51.5C263 52.8807 261.881 54 260.5 54C259.12 54 258 52.8807 258 51.5C258 50.1193 259.12 49 260.5 49C261.881 49 263 50.1193 263 51.5Z" fill="url(#paint87_radial_129_83)"/>
<path d="M274 36.5C274 37.8807 272.881 39 271.5 39C270.12 39 269 37.8807 269 36.5C269 35.1193 270.12 34 271.5 34C272.881 34 274 35.1193 274 36.5Z" fill="url(#paint88_radial_129_83)"/>
<path d="M280 29.5C280 30.8807 278.881 32 277.5 32C276.12 32 275 30.8807 275 29.5C275 28.1193 276.12 27 277.5 27C278.881 27 280 28.1193 280 29.5Z" fill="url(#paint89_radial_129_83)"/>
<path d="M285 25.5C285 26.8807 283.881 28 282.5 28C281.12 28 280 26.8807 280 25.5C280 24.1193 281.12 23 282.5 23C283.881 23 285 24.1193 285 25.5Z" fill="url(#paint90_radial_129_83)"/>
<path d="M303 13.5C303 14.8807 301.881 16 300.5 16C299.12 16 298 14.8807 298 13.5C298 12.1193 299.12 11 300.5 11C301.881 11 303 12.1193 303 13.5Z" fill="url(#paint91_radial_129_83)"/>
<path d="M376 15.5C376 16.8807 374.881 18 373.5 18C372.12 18 371 16.8807 371 15.5C371 14.1193 372.12 13 373.5 13C374.881 13 376 14.1193 376 15.5Z" fill="url(#paint92_radial_129_83)"/>
<path d="M388 21.5C388 22.8807 386.881 24 385.5 24C384.12 24 383 22.8807 383 21.5C383 20.1193 384.12 19 385.5 19C386.881 19 388 20.1193 388 21.5Z" fill="url(#paint93_radial_129_83)"/>
<path d="M398 29.5C398 30.8807 396.881 32 395.5 32C394.12 32 393 30.8807 393 29.5C393 28.1193 394.12 27 395.5 27C396.881 27 398 28.1193 398 29.5Z" fill="url(#paint94_radial_129_83)"/>
<path d="M412 46.5C412 47.8807 410.881 49 409.5 49C408.12 49 407 47.8807 407 46.5C407 45.1193 408.12 44 409.5 44C410.881 44 412 45.1193 412 46.5Z" fill="url(#paint95_radial_129_83)"/>
<path d="M420 62.5C420 63.8807 418.881 65 417.5 65C416.12 65 415 63.8807 415 62.5C415 61.1193 416.12 60 417.5 60C418.881 60 420 61.1193 420 62.5Z" fill="url(#paint96_radial_129_83)"/>
<path d="M424 71.5C424 72.8807 422.881 74 421.5 74C420.12 74 419 72.8807 419 71.5C419 70.1193 420.12 69 421.5 69C422.881 69 424 70.1193 424 71.5Z" fill="url(#paint97_radial_129_83)"/>
<path d="M425 78.5C425 79.8807 423.881 81 422.5 81C421.12 81 420 79.8807 420 78.5C420 77.1193 421.12 76 422.5 76C423.881 76 425 77.1193 425 78.5Z" fill="url(#paint98_radial_129_83)"/>
<path d="M422 118.5C422 119.881 420.881 121 419.5 121C418.12 121 417 119.881 417 118.5C417 117.119 418.12 116 419.5 116C420.881 116 422 117.119 422 118.5Z" fill="url(#paint99_radial_129_83)"/>
<path d="M419 127.5C419 128.881 417.881 130 416.5 130C415.12 130 414 128.881 414 127.5C414 126.119 415.12 125 416.5 125C417.881 125 419 126.119 419 127.5Z" fill="url(#paint100_radial_129_83)"/>
<path d="M417 133.5C417 134.881 415.881 136 414.5 136C413.12 136 412 134.881 412 133.5C412 132.119 413.12 131 414.5 131C415.881 131 417 132.119 417 133.5Z" fill="url(#paint101_radial_129_83)"/>
<path d="M412 139.5C412 140.881 410.881 142 409.5 142C408.12 142 407 140.881 407 139.5C407 138.119 408.12 137 409.5 137C410.881 137 412 138.119 412 139.5Z" fill="url(#paint102_radial_129_83)"/>
<path d="M402 153.5C402 154.881 400.881 156 399.5 156C398.12 156 397 154.881 397 153.5C397 152.119 398.12 151 399.5 151C400.881 151 402 152.119 402 153.5Z" fill="url(#paint103_radial_129_83)"/>
<path d="M394 160.5C394 161.881 392.881 163 391.5 163C390.12 163 389 161.881 389 160.5C389 159.119 390.12 158 391.5 158C392.881 158 394 159.119 394 160.5Z" fill="url(#paint104_radial_129_83)"/>
<path d="M383 167.5C383 168.881 381.881 170 380.5 170C379.12 170 378 168.881 378 167.5C378 166.119 379.12 165 380.5 165C381.881 165 383 166.119 383 167.5Z" fill="url(#paint105_radial_129_83)"/>
<path d="M374 172.5C374 173.881 372.881 175 371.5 175C370.12 175 369 173.881 369 172.5C369 171.119 370.12 170 371.5 170C372.881 170 374 171.119 374 172.5Z" fill="url(#paint106_radial_129_83)"/>
<path d="M355 179.5C355 180.881 353.881 182 352.5 182C351.12 182 350 180.881 350 179.5C350 178.119 351.12 177 352.5 177C353.881 177 355 178.119 355 179.5Z" fill="url(#paint107_radial_129_83)"/>
<path d="M346 179.5C346 180.881 344.881 182 343.5 182C342.12 182 341 180.881 341 179.5C341 178.119 342.12 177 343.5 177C344.881 177 346 178.119 346 179.5Z" fill="url(#paint108_radial_129_83)"/>
<path d="M331 179.5C331 180.881 329.881 182 328.5 182C327.12 182 326 180.881 326 179.5C326 178.119 327.12 177 328.5 177C329.881 177 331 178.119 331 179.5Z" fill="url(#paint109_radial_129_83)"/>
<path d="M322 178.5C322 179.881 320.881 181 319.5 181C318.12 181 317 179.881 317 178.5C317 177.119 318.12 176 319.5 176C320.881 176 322 177.119 322 178.5Z" fill="url(#paint110_radial_129_83)"/>
<path d="M313 175.5C313 176.881 311.881 178 310.5 178C309.12 178 308 176.881 308 175.5C308 174.119 309.12 173 310.5 173C311.881 173 313 174.119 313 175.5Z" fill="url(#paint111_radial_129_83)"/>
<path d="M298 169.5C298 170.881 296.881 172 295.5 172C294.12 172 293 170.881 293 169.5C293 168.119 294.12 167 295.5 167C296.881 167 298 168.119 298 169.5Z" fill="url(#paint112_radial_129_83)"/>
<path d="M287 163.5C287 164.881 285.881 166 284.5 166C283.12 166 282 164.881 282 163.5C282 162.119 283.12 161 284.5 161C285.881 161 287 162.119 287 163.5Z" fill="url(#paint113_radial_129_83)"/>
<path d="M278 155.5C278 156.881 276.881 158 275.5 158C274.12 158 273 156.881 273 155.5C273 154.119 274.12 153 275.5 153C276.881 153 278 154.119 278 155.5Z" fill="url(#paint114_radial_129_83)"/>
<path d="M271 148.5C271 149.881 269.881 151 268.5 151C267.12 151 266 149.881 266 148.5C266 147.119 267.12 146 268.5 146C269.881 146 271 147.119 271 148.5Z" fill="url(#paint115_radial_129_83)"/>
<path d="M264 136.5C264 137.881 262.881 139 261.5 139C260.12 139 259 137.881 259 136.5C259 135.119 260.12 134 261.5 134C262.881 134 264 135.119 264 136.5Z" fill="url(#paint116_radial_129_83)"/>
<path d="M249 131.5C249 133.433 247.433 135 245.5 135C243.567 135 242 133.433 242 131.5C242 129.567 243.567 128 245.5 128C247.433 128 249 129.567 249 131.5Z" fill="url(#paint117_radial_129_83)"/>
<path d="M269 142.5C269 144.433 267.433 146 265.5 146C263.567 146 262 144.433 262 142.5C262 140.567 263.567 139 265.5 139C267.433 139 269 140.567 269 142.5Z" fill="url(#paint118_radial_129_83)"/>
<path d="M402 33.5C402 35.433 400.433 37 398.5 37C396.567 37 395 35.433 395 33.5C395 31.567 396.567 30 398.5 30C400.433 30 402 31.567 402 33.5Z" fill="url(#paint119_radial_129_83)"/>
<path d="M416 51C416 53.2091 414.209 55 412 55C409.791 55 408 53.2091 408 51C408 48.7909 409.791 47 412 47C414.209 47 416 48.7909 416 51Z" fill="url(#paint120_radial_129_83)"/>
<path d="M426 86C426 87.6569 424.657 89 423 89C421.343 89 420 87.6569 420 86C420 84.3431 421.343 83 423 83C424.657 83 426 84.3431 426 86Z" fill="url(#paint121_radial_129_83)"/>
<path d="M351 8C351 10.2091 349.209 12 347 12C344.791 12 343 10.2091 343 8C343 5.79086 344.791 4 347 4C349.209 4 351 5.79086 351 8Z" fill="url(#paint122_radial_129_83)"/>
<path d="M323 8C323 10.2091 321.209 12 319 12C316.791 12 315 10.2091 315 8C315 5.79086 316.791 4 319 4C321.209 4 323 5.79086 323 8Z" fill="url(#paint123_radial_129_83)"/>
<path d="M315 10C315 11.1046 314.105 12 313 12C311.896 12 311 11.1046 311 10C311 8.89543 311.896 8 313 8C314.105 8 315 8.89543 315 10Z" fill="url(#paint124_radial_129_83)"/>
</g>
<defs>
<filter id="filter0_d_129_83" x="32.0002" y="0" width="398" height="186" filterUnits="userSpaceOnUse" color-interpolation-filters="sRGB">
<feFlood flood-opacity="0" result="BackgroundImageFix"/>
<feColorMatrix in="SourceAlpha" type="matrix" values="0 0 0 0 0 0 0 0 0 0 0 0 0 0 0 0 0 0 127 0" result="hardAlpha"/>
<feOffset/>
<feGaussianBlur stdDeviation="2"/>
<feComposite in2="hardAlpha" operator="out"/>
<feColorMatrix type="matrix" values="0 0 0 0 0 0 0 0 0 1 0 0 0 0 0.94 0 0 0 1 0"/>
<feBlend mode="normal" in2="BackgroundImageFix" result="effect1_dropShadow_129_83"/>
<feBlend mode="normal" in="SourceGraphic" in2="effect1_dropShadow_129_83" result="shape"/>
</filter>
<linearGradient id="paint0_linear_129_83" x1="41.0002" y1="10" x2="423" y2="179" gradientUnits="userSpaceOnUse">
<stop offset="0.411701" stop-color="#0087BB"/>
<stop offset="1" stop-color="#DC0F18"/>
</linearGradient>
<linearGradient id="paint1_linear_129_83" x1="247" y1="10" x2="414" y2="180" gradientUnits="userSpaceOnUse">
<stop stop-color="#00B8FF"/>
<stop offset="1" stop-color="#FD0101"/>
</linearGradient>
<linearGradient id="paint2_linear_129_83" x1="371" y1="88" x2="0.000243301" y2="88" gradientUnits="userSpaceOnUse">
<stop stop-color="#00B8FF"/>
<stop offset="1" stop-color="#D7111C"/>
</linearGradient>
<linearGradient id="paint3_linear_129_83" x1="371" y1="88" x2="0.000243301" y2="88" gradientUnits="userSpaceOnUse">
<stop stop-color="#00B8FF"/>
<stop offset="1" stop-color="#D7111C"/>
</linearGradient>
<linearGradient id="paint4_linear_129_83" x1="371" y1="88" x2="0.000243301" y2="88" gradientUnits="userSpaceOnUse">
<stop stop-color="#00B8FF"/>
<stop offset="1" stop-color="#D7111C"/>
</linearGradient>
<linearGradient id="paint5_linear_129_83" x1="371" y1="88" x2="0.000243301" y2="88" gradientUnits="userSpaceOnUse">
<stop stop-color="#00B8FF"/>
<stop offset="1" stop-color="#D7111C"/>
</linearGradient>
<linearGradient id="paint6_linear_129_83" x1="371" y1="88" x2="0.000243301" y2="88" gradientUnits="userSpaceOnUse">
<stop stop-color="#00B8FF"/>
<stop offset="1" stop-color="#D7111C"/>
</linearGradient>
<linearGradient id="paint7_linear_129_83" x1="371" y1="88" x2="0.000243301" y2="88" gradientUnits="userSpaceOnUse">
<stop stop-color="#00B8FF"/>
<stop offset="1" stop-color="#D7111C"/>
</linearGradient>
<linearGradient id="paint8_linear_129_83" x1="371" y1="88" x2="0.000243301" y2="88" gradientUnits="userSpaceOnUse">
<stop stop-color="#00B8FF"/>
<stop offset="1" stop-color="#D7111C"/>
</linearGradient>
<linearGradient id="paint9_linear_129_83" x1="371" y1="88" x2="0.000243301" y2="88" gradientUnits="userSpaceOnUse">
<stop stop-color="#00B8FF"/>
<stop offset="1" stop-color="#D7111C"/>
</linearGradient>
<linearGradient id="paint10_linear_129_83" x1="371" y1="88" x2="0.000243301" y2="88" gradientUnits="userSpaceOnUse">
<stop stop-color="#00B8FF"/>
<stop offset="1" stop-color="#D7111C"/>
</linearGradient>
<linearGradient id="paint11_linear_129_83" x1="371" y1="88" x2="0.000243301" y2="88" gradientUnits="userSpaceOnUse">
<stop stop-color="#00B8FF"/>
<stop offset="1" stop-color="#D7111C"/>
</linearGradient>
<linearGradient id="paint12_linear_129_83" x1="371" y1="88" x2="0.000243301" y2="88" gradientUnits="userSpaceOnUse">
<stop stop-color="#00B8FF"/>
<stop offset="1" stop-color="#D7111C"/>
</linearGradient>
<linearGradient id="paint13_linear_129_83" x1="371" y1="88" x2="0.000243301" y2="88" gradientUnits="userSpaceOnUse">
<stop stop-color="#00B8FF"/>
<stop offset="1" stop-color="#D7111C"/>
</linearGradient>
<linearGradient id="paint14_linear_129_83" x1="371" y1="88" x2="0.000243301" y2="88" gradientUnits="userSpaceOnUse">
<stop stop-color="#00B8FF"/>
<stop offset="1" stop-color="#D7111C"/>
</linearGradient>
<linearGradient id="paint15_linear_129_83" x1="371" y1="88" x2="0.000243301" y2="88" gradientUnits="userSpaceOnUse">
<stop stop-color="#00B8FF"/>
<stop offset="1" stop-color="#D7111C"/>
</linearGradient>
<linearGradient id="paint16_linear_129_83" x1="371" y1="88" x2="0.000243301" y2="88" gradientUnits="userSpaceOnUse">
<stop stop-color="#00B8FF"/>
<stop offset="1" stop-color="#D7111C"/>
</linearGradient>
<linearGradient id="paint17_linear_129_83" x1="371" y1="88" x2="0.000243301" y2="88" gradientUnits="userSpaceOnUse">
<stop stop-color="#00B8FF"/>
<stop offset="1" stop-color="#D7111C"/>
</linearGradient>
<linearGradient id="paint18_linear_129_83" x1="371" y1="88" x2="0.000243301" y2="88" gradientUnits="userSpaceOnUse">
<stop stop-color="#00B8FF"/>
<stop offset="1" stop-color="#D7111C"/>
</linearGradient>
<linearGradient id="paint19_linear_129_83" x1="371" y1="88" x2="0.000243301" y2="88" gradientUnits="userSpaceOnUse">
<stop stop-color="#00B8FF"/>
<stop offset="1" stop-color="#D7111C"/>
</linearGradient>
<linearGradient id="paint20_linear_129_83" x1="371" y1="88" x2="0.000243301" y2="88" gradientUnits="userSpaceOnUse">
<stop stop-color="#00B8FF"/>
<stop offset="1" stop-color="#D7111C"/>
</linearGradient>
<linearGradient id="paint21_linear_129_83" x1="371" y1="88" x2="0.000243301" y2="88" gradientUnits="userSpaceOnUse">
<stop stop-color="#00B8FF"/>
<stop offset="1" stop-color="#D7111C"/>
</linearGradient>
<linearGradient id="paint22_linear_129_83" x1="371" y1="88" x2="0.000243301" y2="88" gradientUnits="userSpaceOnUse">
<stop stop-color="#00B8FF"/>
<stop offset="1" stop-color="#D7111C"/>
</linearGradient>
<linearGradient id="paint23_linear_129_83" x1="371" y1="88" x2="0.000243301" y2="88" gradientUnits="userSpaceOnUse">
<stop stop-color="#00B8FF"/>
<stop offset="1" stop-color="#D7111C"/>
</linearGradient>
<linearGradient id="paint24_linear_129_83" x1="371" y1="88" x2="0.000243301" y2="88" gradientUnits="userSpaceOnUse">
<stop stop-color="#00B8FF"/>
<stop offset="1" stop-color="#D7111C"/>
</linearGradient>
<linearGradient id="paint25_linear_129_83" x1="371" y1="88" x2="0.000243301" y2="88" gradientUnits="userSpaceOnUse">
<stop stop-color="#00B8FF"/>
<stop offset="1" stop-color="#D7111C"/>
</linearGradient>
<linearGradient id="paint26_linear_129_83" x1="371" y1="88" x2="0.000243301" y2="88" gradientUnits="userSpaceOnUse">
<stop stop-color="#00B8FF"/>
<stop offset="1" stop-color="#D7111C"/>
</linearGradient>
<linearGradient id="paint27_linear_129_83" x1="371" y1="88" x2="0.000243301" y2="88" gradientUnits="userSpaceOnUse">
<stop stop-color="#00B8FF"/>
<stop offset="1" stop-color="#D7111C"/>
</linearGradient>
<linearGradient id="paint28_linear_129_83" x1="371" y1="88" x2="0.000243301" y2="88" gradientUnits="userSpaceOnUse">
<stop stop-color="#00B8FF"/>
<stop offset="1" stop-color="#D7111C"/>
</linearGradient>
<linearGradient id="paint29_linear_129_83" x1="371" y1="88" x2="0.000243301" y2="88" gradientUnits="userSpaceOnUse">
<stop stop-color="#00B8FF"/>
<stop offset="1" stop-color="#D7111C"/>
</linearGradient>
<linearGradient id="paint30_linear_129_83" x1="371" y1="88" x2="0.000243301" y2="88" gradientUnits="userSpaceOnUse">
<stop stop-color="#00B8FF"/>
<stop offset="1" stop-color="#D7111C"/>
</linearGradient>
<linearGradient id="paint31_linear_129_83" x1="371" y1="88" x2="0.000243301" y2="88" gradientUnits="userSpaceOnUse">
<stop stop-color="#00B8FF"/>
<stop offset="1" stop-color="#D7111C"/>
</linearGradient>
<linearGradient id="paint32_linear_129_83" x1="371" y1="88" x2="0.000243301" y2="88" gradientUnits="userSpaceOnUse">
<stop stop-color="#00B8FF"/>
<stop offset="1" stop-color="#D7111C"/>
</linearGradient>
<linearGradient id="paint33_linear_129_83" x1="371" y1="88" x2="0.000243301" y2="88" gradientUnits="userSpaceOnUse">
<stop stop-color="#00B8FF"/>
<stop offset="1" stop-color="#D7111C"/>
</linearGradient>
<linearGradient id="paint34_linear_129_83" x1="371" y1="88" x2="0.000243301" y2="88" gradientUnits="userSpaceOnUse">
<stop stop-color="#00B8FF"/>
<stop offset="1" stop-color="#D7111C"/>
</linearGradient>
<linearGradient id="paint35_linear_129_83" x1="371" y1="88" x2="0.000243301" y2="88" gradientUnits="userSpaceOnUse">
<stop stop-color="#00B8FF"/>
<stop offset="1" stop-color="#D7111C"/>
</linearGradient>
<linearGradient id="paint36_linear_129_83" x1="371" y1="88" x2="0.000243301" y2="88" gradientUnits="userSpaceOnUse">
<stop stop-color="#00B8FF"/>
<stop offset="1" stop-color="#D7111C"/>
</linearGradient>
<linearGradient id="paint37_linear_129_83" x1="371" y1="88" x2="0.000243301" y2="88" gradientUnits="userSpaceOnUse">
<stop stop-color="#00B8FF"/>
<stop offset="1" stop-color="#D7111C"/>
</linearGradient>
<linearGradient id="paint38_linear_129_83" x1="371" y1="88" x2="0.000243301" y2="88" gradientUnits="userSpaceOnUse">
<stop stop-color="#00B8FF"/>
<stop offset="1" stop-color="#D7111C"/>
</linearGradient>
<linearGradient id="paint39_linear_129_83" x1="371" y1="88" x2="0.000243301" y2="88" gradientUnits="userSpaceOnUse">
<stop stop-color="#00B8FF"/>
<stop offset="1" stop-color="#D7111C"/>
</linearGradient>
<linearGradient id="paint40_linear_129_83" x1="371" y1="88" x2="0.000243301" y2="88" gradientUnits="userSpaceOnUse">
<stop stop-color="#00B8FF"/>
<stop offset="1" stop-color="#D7111C"/>
</linearGradient>
<linearGradient id="paint41_linear_129_83" x1="371" y1="88" x2="0.000243301" y2="88" gradientUnits="userSpaceOnUse">
<stop stop-color="#00B8FF"/>
<stop offset="1" stop-color="#D7111C"/>
</linearGradient>
<linearGradient id="paint42_linear_129_83" x1="371" y1="88" x2="0.000243301" y2="88" gradientUnits="userSpaceOnUse">
<stop stop-color="#00B8FF"/>
<stop offset="1" stop-color="#D7111C"/>
</linearGradient>
<linearGradient id="paint43_linear_129_83" x1="371" y1="88" x2="0.000243301" y2="88" gradientUnits="userSpaceOnUse">
<stop stop-color="#00B8FF"/>
<stop offset="1" stop-color="#D7111C"/>
</linearGradient>
<linearGradient id="paint44_linear_129_83" x1="371" y1="88" x2="0.000243301" y2="88" gradientUnits="userSpaceOnUse">
<stop stop-color="#00B8FF"/>
<stop offset="1" stop-color="#D7111C"/>
</linearGradient>
<linearGradient id="paint45_linear_129_83" x1="371" y1="88" x2="0.000243301" y2="88" gradientUnits="userSpaceOnUse">
<stop stop-color="#00B8FF"/>
<stop offset="1" stop-color="#D7111C"/>
</linearGradient>
<linearGradient id="paint46_linear_129_83" x1="371" y1="88" x2="0.000243301" y2="88" gradientUnits="userSpaceOnUse">
<stop stop-color="#00B8FF"/>
<stop offset="1" stop-color="#D7111C"/>
</linearGradient>
<radialGradient id="paint47_radial_129_83" cx="0" cy="0" r="1" gradientUnits="userSpaceOnUse" gradientTransform="translate(336 93) rotate(180) scale(113.5 47.2276)">
<stop stop-color="#0094FF"/>
<stop offset="1" stop-color="#00F0FF"/>
</radialGradient>
<radialGradient id="paint48_radial_129_83" cx="0" cy="0" r="1" gradientUnits="userSpaceOnUse" gradientTransform="translate(336 93) rotate(180) scale(113.5 47.2276)">
<stop stop-color="#0094FF"/>
<stop offset="1" stop-color="#00F0FF"/>
</radialGradient>
<radialGradient id="paint49_radial_129_83" cx="0" cy="0" r="1" gradientUnits="userSpaceOnUse" gradientTransform="translate(336 93) rotate(180) scale(113.5 47.2276)">
<stop stop-color="#0094FF"/>
<stop offset="1" stop-color="#00F0FF"/>
</radialGradient>
<radialGradient id="paint50_radial_129_83" cx="0" cy="0" r="1" gradientUnits="userSpaceOnUse" gradientTransform="translate(336 93) rotate(180) scale(113.5 47.2276)">
<stop stop-color="#0094FF"/>
<stop offset="1" stop-color="#00F0FF"/>
</radialGradient>
<radialGradient id="paint51_radial_129_83" cx="0" cy="0" r="1" gradientUnits="userSpaceOnUse" gradientTransform="translate(336 93) rotate(180) scale(113.5 47.2276)">
<stop stop-color="#0094FF"/>
<stop offset="1" stop-color="#00F0FF"/>
</radialGradient>
<radialGradient id="paint52_radial_129_83" cx="0" cy="0" r="1" gradientUnits="userSpaceOnUse" gradientTransform="translate(336 93) rotate(180) scale(113.5 47.2276)">
<stop stop-color="#0094FF"/>
<stop offset="1" stop-color="#00F0FF"/>
</radialGradient>
<radialGradient id="paint53_radial_129_83" cx="0" cy="0" r="1" gradientUnits="userSpaceOnUse" gradientTransform="translate(336 93) rotate(180) scale(113.5 47.2276)">
<stop stop-color="#0094FF"/>
<stop offset="1" stop-color="#00F0FF"/>
</radialGradient>
<radialGradient id="paint54_radial_129_83" cx="0" cy="0" r="1" gradientUnits="userSpaceOnUse" gradientTransform="translate(336 93) rotate(180) scale(113.5 47.2276)">
<stop stop-color="#0094FF"/>
<stop offset="1" stop-color="#00F0FF"/>
</radialGradient>
<radialGradient id="paint55_radial_129_83" cx="0" cy="0" r="1" gradientUnits="userSpaceOnUse" gradientTransform="translate(336 93) rotate(180) scale(113.5 47.2276)">
<stop stop-color="#0094FF"/>
<stop offset="1" stop-color="#00F0FF"/>
</radialGradient>
<radialGradient id="paint56_radial_129_83" cx="0" cy="0" r="1" gradientUnits="userSpaceOnUse" gradientTransform="translate(336 93) rotate(180) scale(113.5 47.2276)">
<stop stop-color="#0094FF"/>
<stop offset="1" stop-color="#00F0FF"/>
</radialGradient>
<radialGradient id="paint57_radial_129_83" cx="0" cy="0" r="1" gradientUnits="userSpaceOnUse" gradientTransform="translate(336 93) rotate(180) scale(113.5 47.2276)">
<stop stop-color="#0094FF"/>
<stop offset="1" stop-color="#00F0FF"/>
</radialGradient>
<radialGradient id="paint58_radial_129_83" cx="0" cy="0" r="1" gradientUnits="userSpaceOnUse" gradientTransform="translate(336 93) rotate(180) scale(113.5 47.2276)">
<stop stop-color="#0094FF"/>
<stop offset="1" stop-color="#00F0FF"/>
</radialGradient>
<radialGradient id="paint59_radial_129_83" cx="0" cy="0" r="1" gradientUnits="userSpaceOnUse" gradientTransform="translate(336 93) rotate(180) scale(113.5 47.2276)">
<stop stop-color="#0094FF"/>
<stop offset="1" stop-color="#00F0FF"/>
</radialGradient>
<radialGradient id="paint60_radial_129_83" cx="0" cy="0" r="1" gradientUnits="userSpaceOnUse" gradientTransform="translate(336 93) rotate(180) scale(113.5 47.2276)">
<stop stop-color="#0094FF"/>
<stop offset="1" stop-color="#00F0FF"/>
</radialGradient>
<radialGradient id="paint61_radial_129_83" cx="0" cy="0" r="1" gradientUnits="userSpaceOnUse" gradientTransform="translate(336 93) rotate(180) scale(113.5 47.2276)">
<stop stop-color="#0094FF"/>
<stop offset="1" stop-color="#00F0FF"/>
</radialGradient>
<radialGradient id="paint62_radial_129_83" cx="0" cy="0" r="1" gradientUnits="userSpaceOnUse" gradientTransform="translate(336 93) rotate(180) scale(113.5 47.2276)">
<stop stop-color="#0094FF"/>
<stop offset="1" stop-color="#00F0FF"/>
</radialGradient>
<radialGradient id="paint63_radial_129_83" cx="0" cy="0" r="1" gradientUnits="userSpaceOnUse" gradientTransform="translate(336 93) rotate(180) scale(113.5 47.2276)">
<stop stop-color="#0094FF"/>
<stop offset="1" stop-color="#00F0FF"/>
</radialGradient>
<radialGradient id="paint64_radial_129_83" cx="0" cy="0" r="1" gradientUnits="userSpaceOnUse" gradientTransform="translate(336 93) rotate(180) scale(113.5 47.2276)">
<stop stop-color="#0094FF"/>
<stop offset="1" stop-color="#00F0FF"/>
</radialGradient>
<radialGradient id="paint65_radial_129_83" cx="0" cy="0" r="1" gradientUnits="userSpaceOnUse" gradientTransform="translate(336 93) rotate(180) scale(113.5 47.2276)">
<stop stop-color="#0094FF"/>
<stop offset="1" stop-color="#00F0FF"/>
</radialGradient>
<radialGradient id="paint66_radial_129_83" cx="0" cy="0" r="1" gradientUnits="userSpaceOnUse" gradientTransform="translate(336 93) rotate(180) scale(113.5 47.2276)">
<stop stop-color="#0094FF"/>
<stop offset="1" stop-color="#00F0FF"/>
</radialGradient>
<radialGradient id="paint67_radial_129_83" cx="0" cy="0" r="1" gradientUnits="userSpaceOnUse" gradientTransform="translate(336 93) rotate(180) scale(113.5 47.2276)">
<stop stop-color="#0094FF"/>
<stop offset="1" stop-color="#00F0FF"/>
</radialGradient>
<radialGradient id="paint68_radial_129_83" cx="0" cy="0" r="1" gradientUnits="userSpaceOnUse" gradientTransform="translate(336 93) rotate(180) scale(113.5 47.2276)">
<stop stop-color="#0094FF"/>
<stop offset="1" stop-color="#00F0FF"/>
</radialGradient>
<radialGradient id="paint69_radial_129_83" cx="0" cy="0" r="1" gradientUnits="userSpaceOnUse" gradientTransform="translate(336 93) rotate(180) scale(113.5 47.2276)">
<stop stop-color="#0094FF"/>
<stop offset="1" stop-color="#00F0FF"/>
</radialGradient>
<radialGradient id="paint70_radial_129_83" cx="0" cy="0" r="1" gradientUnits="userSpaceOnUse" gradientTransform="translate(336 93) rotate(180) scale(113.5 47.2276)">
<stop stop-color="#0094FF"/>
<stop offset="1" stop-color="#00F0FF"/>
</radialGradient>
<radialGradient id="paint71_radial_129_83" cx="0" cy="0" r="1" gradientUnits="userSpaceOnUse" gradientTransform="translate(336 93) rotate(180) scale(113.5 47.2276)">
<stop stop-color="#0094FF"/>
<stop offset="1" stop-color="#00F0FF"/>
</radialGradient>
<radialGradient id="paint72_radial_129_83" cx="0" cy="0" r="1" gradientUnits="userSpaceOnUse" gradientTransform="translate(336 93) rotate(180) scale(113.5 47.2276)">
<stop stop-color="#0094FF"/>
<stop offset="1" stop-color="#00F0FF"/>
</radialGradient>
<radialGradient id="paint73_radial_129_83" cx="0" cy="0" r="1" gradientUnits="userSpaceOnUse" gradientTransform="translate(336 93) rotate(180) scale(113.5 47.2276)">
<stop stop-color="#0094FF"/>
<stop offset="1" stop-color="#00F0FF"/>
</radialGradient>
<radialGradient id="paint74_radial_129_83" cx="0" cy="0" r="1" gradientUnits="userSpaceOnUse" gradientTransform="translate(336 93) rotate(180) scale(113.5 47.2276)">
<stop stop-color="#0094FF"/>
<stop offset="1" stop-color="#00F0FF"/>
</radialGradient>
<radialGradient id="paint75_radial_129_83" cx="0" cy="0" r="1" gradientUnits="userSpaceOnUse" gradientTransform="translate(336 93) rotate(180) scale(113.5 47.2276)">
<stop stop-color="#0094FF"/>
<stop offset="1" stop-color="#00F0FF"/>
</radialGradient>
<radialGradient id="paint76_radial_129_83" cx="0" cy="0" r="1" gradientUnits="userSpaceOnUse" gradientTransform="translate(336 93) rotate(180) scale(113.5 47.2276)">
<stop stop-color="#0094FF"/>
<stop offset="1" stop-color="#00F0FF"/>
</radialGradient>
<radialGradient id="paint77_radial_129_83" cx="0" cy="0" r="1" gradientUnits="userSpaceOnUse" gradientTransform="translate(336 93) rotate(180) scale(113.5 47.2276)">
<stop stop-color="#0094FF"/>
<stop offset="1" stop-color="#00F0FF"/>
</radialGradient>
<radialGradient id="paint78_radial_129_83" cx="0" cy="0" r="1" gradientUnits="userSpaceOnUse" gradientTransform="translate(336 93) rotate(180) scale(113.5 47.2276)">
<stop stop-color="#0094FF"/>
<stop offset="1" stop-color="#00F0FF"/>
</radialGradient>
<radialGradient id="paint79_radial_129_83" cx="0" cy="0" r="1" gradientUnits="userSpaceOnUse" gradientTransform="translate(336 93) rotate(180) scale(113.5 47.2276)">
<stop stop-color="#0094FF"/>
<stop offset="1" stop-color="#00F0FF"/>
</radialGradient>
<radialGradient id="paint80_radial_129_83" cx="0" cy="0" r="1" gradientUnits="userSpaceOnUse" gradientTransform="translate(336 93) rotate(180) scale(113.5 47.2276)">
<stop stop-color="#0094FF"/>
<stop offset="1" stop-color="#00F0FF"/>
</radialGradient>
<radialGradient id="paint81_radial_129_83" cx="0" cy="0" r="1" gradientUnits="userSpaceOnUse" gradientTransform="translate(336 93) rotate(180) scale(113.5 47.2276)">
<stop stop-color="#0094FF"/>
<stop offset="1" stop-color="#00F0FF"/>
</radialGradient>
<radialGradient id="paint82_radial_129_83" cx="0" cy="0" r="1" gradientUnits="userSpaceOnUse" gradientTransform="translate(336 93) rotate(180) scale(113.5 47.2276)">
<stop stop-color="#0094FF"/>
<stop offset="1" stop-color="#00F0FF"/>
</radialGradient>
<radialGradient id="paint83_radial_129_83" cx="0" cy="0" r="1" gradientUnits="userSpaceOnUse" gradientTransform="translate(336 93) rotate(180) scale(113.5 47.2276)">
<stop stop-color="#0094FF"/>
<stop offset="1" stop-color="#00F0FF"/>
</radialGradient>
<radialGradient id="paint84_radial_129_83" cx="0" cy="0" r="1" gradientUnits="userSpaceOnUse" gradientTransform="translate(336 93) rotate(180) scale(113.5 47.2276)">
<stop stop-color="#0094FF"/>
<stop offset="1" stop-color="#00F0FF"/>
</radialGradient>
<radialGradient id="paint85_radial_129_83" cx="0" cy="0" r="1" gradientUnits="userSpaceOnUse" gradientTransform="translate(336 93) rotate(180) scale(113.5 47.2276)">
<stop stop-color="#0094FF"/>
<stop offset="1" stop-color="#00F0FF"/>
</radialGradient>
<radialGradient id="paint86_radial_129_83" cx="0" cy="0" r="1" gradientUnits="userSpaceOnUse" gradientTransform="translate(336 93) rotate(180) scale(113.5 47.2276)">
<stop stop-color="#0094FF"/>
<stop offset="1" stop-color="#00F0FF"/>
</radialGradient>
<radialGradient id="paint87_radial_129_83" cx="0" cy="0" r="1" gradientUnits="userSpaceOnUse" gradientTransform="translate(336 93) rotate(180) scale(113.5 47.2276)">
<stop stop-color="#0094FF"/>
<stop offset="1" stop-color="#00F0FF"/>
</radialGradient>
<radialGradient id="paint88_radial_129_83" cx="0" cy="0" r="1" gradientUnits="userSpaceOnUse" gradientTransform="translate(336 93) rotate(180) scale(113.5 47.2276)">
<stop stop-color="#0094FF"/>
<stop offset="1" stop-color="#00F0FF"/>
</radialGradient>
<radialGradient id="paint89_radial_129_83" cx="0" cy="0" r="1" gradientUnits="userSpaceOnUse" gradientTransform="translate(336 93) rotate(180) scale(113.5 47.2276)">
<stop stop-color="#0094FF"/>
<stop offset="1" stop-color="#00F0FF"/>
</radialGradient>
<radialGradient id="paint90_radial_129_83" cx="0" cy="0" r="1" gradientUnits="userSpaceOnUse" gradientTransform="translate(336 93) rotate(180) scale(113.5 47.2276)">
<stop stop-color="#0094FF"/>
<stop offset="1" stop-color="#00F0FF"/>
</radialGradient>
<radialGradient id="paint91_radial_129_83" cx="0" cy="0" r="1" gradientUnits="userSpaceOnUse" gradientTransform="translate(336 93) rotate(180) scale(113.5 47.2276)">
<stop stop-color="#0094FF"/>
<stop offset="1" stop-color="#00F0FF"/>
</radialGradient>
<radialGradient id="paint92_radial_129_83" cx="0" cy="0" r="1" gradientUnits="userSpaceOnUse" gradientTransform="translate(336 93) rotate(180) scale(113.5 47.2276)">
<stop stop-color="#0094FF"/>
<stop offset="1" stop-color="#00F0FF"/>
</radialGradient>
<radialGradient id="paint93_radial_129_83" cx="0" cy="0" r="1" gradientUnits="userSpaceOnUse" gradientTransform="translate(336 93) rotate(180) scale(113.5 47.2276)">
<stop stop-color="#0094FF"/>
<stop offset="1" stop-color="#00F0FF"/>
</radialGradient>
<radialGradient id="paint94_radial_129_83" cx="0" cy="0" r="1" gradientUnits="userSpaceOnUse" gradientTransform="translate(336 93) rotate(180) scale(113.5 47.2276)">
<stop stop-color="#0094FF"/>
<stop offset="1" stop-color="#00F0FF"/>
</radialGradient>
<radialGradient id="paint95_radial_129_83" cx="0" cy="0" r="1" gradientUnits="userSpaceOnUse" gradientTransform="translate(336 93) rotate(180) scale(113.5 47.2276)">
<stop stop-color="#0094FF"/>
<stop offset="1" stop-color="#00F0FF"/>
</radialGradient>
<radialGradient id="paint96_radial_129_83" cx="0" cy="0" r="1" gradientUnits="userSpaceOnUse" gradientTransform="translate(336 93) rotate(180) scale(113.5 47.2276)">
<stop stop-color="#0094FF"/>
<stop offset="1" stop-color="#00F0FF"/>
</radialGradient>
<radialGradient id="paint97_radial_129_83" cx="0" cy="0" r="1" gradientUnits="userSpaceOnUse" gradientTransform="translate(336 93) rotate(180) scale(113.5 47.2276)">
<stop stop-color="#0094FF"/>
<stop offset="1" stop-color="#00F0FF"/>
</radialGradient>
<radialGradient id="paint98_radial_129_83" cx="0" cy="0" r="1" gradientUnits="userSpaceOnUse" gradientTransform="translate(336 93) rotate(180) scale(113.5 47.2276)">
<stop stop-color="#0094FF"/>
<stop offset="1" stop-color="#00F0FF"/>
</radialGradient>
<radialGradient id="paint99_radial_129_83" cx="0" cy="0" r="1" gradientUnits="userSpaceOnUse" gradientTransform="translate(336 93) rotate(180) scale(113.5 47.2276)">
<stop stop-color="#0094FF"/>
<stop offset="1" stop-color="#00F0FF"/>
</radialGradient>
<radialGradient id="paint100_radial_129_83" cx="0" cy="0" r="1" gradientUnits="userSpaceOnUse" gradientTransform="translate(336 93) rotate(180) scale(113.5 47.2276)">
<stop stop-color="#0094FF"/>
<stop offset="1" stop-color="#00F0FF"/>
</radialGradient>
<radialGradient id="paint101_radial_129_83" cx="0" cy="0" r="1" gradientUnits="userSpaceOnUse" gradientTransform="translate(336 93) rotate(180) scale(113.5 47.2276)">
<stop stop-color="#0094FF"/>
<stop offset="1" stop-color="#00F0FF"/>
</radialGradient>
<radialGradient id="paint102_radial_129_83" cx="0" cy="0" r="1" gradientUnits="userSpaceOnUse" gradientTransform="translate(336 93) rotate(180) scale(113.5 47.2276)">
<stop stop-color="#0094FF"/>
<stop offset="1" stop-color="#00F0FF"/>
</radialGradient>
<radialGradient id="paint103_radial_129_83" cx="0" cy="0" r="1" gradientUnits="userSpaceOnUse" gradientTransform="translate(336 93) rotate(180) scale(113.5 47.2276)">
<stop stop-color="#0094FF"/>
<stop offset="1" stop-color="#00F0FF"/>
</radialGradient>
<radialGradient id="paint104_radial_129_83" cx="0" cy="0" r="1" gradientUnits="userSpaceOnUse" gradientTransform="translate(336 93) rotate(180) scale(113.5 47.2276)">
<stop stop-color="#0094FF"/>
<stop offset="1" stop-color="#00F0FF"/>
</radialGradient>
<radialGradient id="paint105_radial_129_83" cx="0" cy="0" r="1" gradientUnits="userSpaceOnUse" gradientTransform="translate(336 93) rotate(180) scale(113.5 47.2276)">
<stop stop-color="#0094FF"/>
<stop offset="1" stop-color="#00F0FF"/>
</radialGradient>
<radialGradient id="paint106_radial_129_83" cx="0" cy="0" r="1" gradientUnits="userSpaceOnUse" gradientTransform="translate(336 93) rotate(180) scale(113.5 47.2276)">
<stop stop-color="#0094FF"/>
<stop offset="1" stop-color="#00F0FF"/>
</radialGradient>
<radialGradient id="paint107_radial_129_83" cx="0" cy="0" r="1" gradientUnits="userSpaceOnUse" gradientTransform="translate(336 93) rotate(180) scale(113.5 47.2276)">
<stop stop-color="#0094FF"/>
<stop offset="1" stop-color="#00F0FF"/>
</radialGradient>
<radialGradient id="paint108_radial_129_83" cx="0" cy="0" r="1" gradientUnits="userSpaceOnUse" gradientTransform="translate(336 93) rotate(180) scale(113.5 47.2276)">
<stop stop-color="#0094FF"/>
<stop offset="1" stop-color="#00F0FF"/>
</radialGradient>
<radialGradient id="paint109_radial_129_83" cx="0" cy="0" r="1" gradientUnits="userSpaceOnUse" gradientTransform="translate(336 93) rotate(180) scale(113.5 47.2276)">
<stop stop-color="#0094FF"/>
<stop offset="1" stop-color="#00F0FF"/>
</radialGradient>
<radialGradient id="paint110_radial_129_83" cx="0" cy="0" r="1" gradientUnits="userSpaceOnUse" gradientTransform="translate(336 93) rotate(180) scale(113.5 47.2276)">
<stop stop-color="#0094FF"/>
<stop offset="1" stop-color="#00F0FF"/>
</radialGradient>
<radialGradient id="paint111_radial_129_83" cx="0" cy="0" r="1" gradientUnits="userSpaceOnUse" gradientTransform="translate(336 93) rotate(180) scale(113.5 47.2276)">
<stop stop-color="#0094FF"/>
<stop offset="1" stop-color="#00F0FF"/>
</radialGradient>
<radialGradient id="paint112_radial_129_83" cx="0" cy="0" r="1" gradientUnits="userSpaceOnUse" gradientTransform="translate(336 93) rotate(180) scale(113.5 47.2276)">
<stop stop-color="#0094FF"/>
<stop offset="1" stop-color="#00F0FF"/>
</radialGradient>
<radialGradient id="paint113_radial_129_83" cx="0" cy="0" r="1" gradientUnits="userSpaceOnUse" gradientTransform="translate(336 93) rotate(180) scale(113.5 47.2276)">
<stop stop-color="#0094FF"/>
<stop offset="1" stop-color="#00F0FF"/>
</radialGradient>
<radialGradient id="paint114_radial_129_83" cx="0" cy="0" r="1" gradientUnits="userSpaceOnUse" gradientTransform="translate(336 93) rotate(180) scale(113.5 47.2276)">
<stop stop-color="#0094FF"/>
<stop offset="1" stop-color="#00F0FF"/>
</radialGradient>
<radialGradient id="paint115_radial_129_83" cx="0" cy="0" r="1" gradientUnits="userSpaceOnUse" gradientTransform="translate(336 93) rotate(180) scale(113.5 47.2276)">
<stop stop-color="#0094FF"/>
<stop offset="1" stop-color="#00F0FF"/>
</radialGradient>
<radialGradient id="paint116_radial_129_83" cx="0" cy="0" r="1" gradientUnits="userSpaceOnUse" gradientTransform="translate(336 93) rotate(180) scale(113.5 47.2276)">
<stop stop-color="#0094FF"/>
<stop offset="1" stop-color="#00F0FF"/>
</radialGradient>
<radialGradient id="paint117_radial_129_83" cx="0" cy="0" r="1" gradientUnits="userSpaceOnUse" gradientTransform="translate(336 93) rotate(180) scale(113.5 47.2276)">
<stop stop-color="#0094FF"/>
<stop offset="1" stop-color="#00F0FF"/>
</radialGradient>
<radialGradient id="paint118_radial_129_83" cx="0" cy="0" r="1" gradientUnits="userSpaceOnUse" gradientTransform="translate(336 93) rotate(180) scale(113.5 47.2276)">
<stop stop-color="#0094FF"/>
<stop offset="1" stop-color="#00F0FF"/>
</radialGradient>
<radialGradient id="paint119_radial_129_83" cx="0" cy="0" r="1" gradientUnits="userSpaceOnUse" gradientTransform="translate(336 93) rotate(180) scale(113.5 47.2276)">
<stop stop-color="#0094FF"/>
<stop offset="1" stop-color="#00F0FF"/>
</radialGradient>
<radialGradient id="paint120_radial_129_83" cx="0" cy="0" r="1" gradientUnits="userSpaceOnUse" gradientTransform="translate(336 93) rotate(180) scale(113.5 47.2276)">
<stop stop-color="#0094FF"/>
<stop offset="1" stop-color="#00F0FF"/>
</radialGradient>
<radialGradient id="paint121_radial_129_83" cx="0" cy="0" r="1" gradientUnits="userSpaceOnUse" gradientTransform="translate(336 93) rotate(180) scale(113.5 47.2276)">
<stop stop-color="#0094FF"/>
<stop offset="1" stop-color="#00F0FF"/>
</radialGradient>
<radialGradient id="paint122_radial_129_83" cx="0" cy="0" r="1" gradientUnits="userSpaceOnUse" gradientTransform="translate(336 93) rotate(180) scale(113.5 47.2276)">
<stop stop-color="#0094FF"/>
<stop offset="1" stop-color="#00F0FF"/>
</radialGradient>
<radialGradient id="paint123_radial_129_83" cx="0" cy="0" r="1" gradientUnits="userSpaceOnUse" gradientTransform="translate(336 93) rotate(180) scale(113.5 47.2276)">
<stop stop-color="#0094FF"/>
<stop offset="1" stop-color="#00F0FF"/>
</radialGradient>
<radialGradient id="paint124_radial_129_83" cx="0" cy="0" r="1" gradientUnits="userSpaceOnUse" gradientTransform="translate(336 93) rotate(180) scale(113.5 47.2276)">
<stop stop-color="#0094FF"/>
<stop offset="1" stop-color="#00F0FF"/>
</radialGradient>
</defs>
</svg>
