<svg width="98" height="533" viewBox="0 0 98 533" fill="none" xmlns="http://www.w3.org/2000/svg">
<path d="M0 528C0 530.761 2.2489 533.036 4.98821 532.687C30.1249 529.486 49.1055 501.868 67.4631 454.944C87.0155 404.966 98 337.18 98 266.5C98 195.82 87.0156 128.035 67.4631 78.0561C49.1056 31.1319 30.1249 3.51358 4.98824 0.313178C2.24893 -0.0355915 2.3878e-05 2.23858 2.3878e-05 5V8.39313C2.3878e-05 11.1546 2.24995 13.3552 4.98668 13.7237C28.6991 16.9158 46.3848 43.118 63.7581 87.5264C82.328 134.993 92.7604 199.372 92.7604 266.5C92.7604 333.628 82.3279 398.007 63.7581 445.474C46.3848 489.882 28.6991 516.084 4.98667 519.276C2.24993 519.645 0 521.845 0 524.607V528Z" fill="url(#paint0_linear_239_5)"/>
<defs>
<linearGradient id="paint0_linear_239_5" x1="0" y1="0" x2="-2.75927e-05" y2="533" gradientUnits="userSpaceOnUse">
<stop stop-color="#00B8FF" stop-opacity="0"/>
<stop offset="0.5625" stop-color="#FE0000"/>
<stop offset="1" stop-color="#00B8FF" stop-opacity="0"/>
</linearGradient>
</defs>
</svg>
