<svg width="935" height="900" viewBox="0 0 935 900" fill="none" xmlns="http://www.w3.org/2000/svg">
<path d="M496.134 80.7742L772.018 240.056C790.118 250.506 801.268 269.818 801.268 290.718V609.282C801.268 630.182 790.118 649.494 772.018 659.944L496.134 819.226C478.034 829.676 455.734 829.676 437.634 819.226L161.75 659.944C143.65 649.494 132.5 630.182 132.5 609.282V290.718C132.5 269.818 143.65 250.506 161.75 240.056L437.634 80.7742C455.734 70.3242 478.034 70.3242 496.134 80.7742Z" stroke="url(#paint0_linear_31_17)" stroke-width="5"/>
<path d="M285.862 317.529C285.259 317.636 284.68 317.854 284.155 318.171L269.761 326.862C268.677 327.516 268.401 328.968 269.169 329.975V329.975C269.673 330.636 270.515 330.943 271.326 330.761L274.98 329.945L279.12 328.403C279.679 328.195 280.27 328.088 280.865 328.088H282.207C283.112 328.088 284 327.843 284.776 327.378L294.858 321.341C295.199 321.137 295.563 320.974 295.943 320.856L308.016 317.103C308.346 317.001 308.685 316.933 309.029 316.9L318.632 315.992C319.711 315.89 320.727 315.441 321.528 314.712L323.551 312.87C324.092 312.377 324.734 312.01 325.433 311.792L336.722 308.283C337.246 308.121 337.739 307.873 338.182 307.55L340.275 306.026C341.131 305.403 342.161 305.067 343.219 305.067H348.252C348.94 305.067 349.62 304.925 350.251 304.65L375.271 293.738C376.607 293.155 378.138 293.223 379.417 293.922V293.922C380.709 294.628 382.256 294.689 383.601 294.088L385.478 293.249C386.12 292.962 386.815 292.814 387.518 292.814H388.937C390.248 292.814 391.507 292.299 392.442 291.379L393.087 290.745C393.195 290.64 393.315 290.549 393.446 290.474V290.474C394.989 289.599 394.368 287.245 392.594 287.245H389.166C388.869 287.245 388.574 287.295 388.294 287.393L380.006 290.304C379.474 290.491 378.913 290.586 378.349 290.586H372.135C371.712 290.586 371.291 290.64 370.882 290.746L363.505 292.655C363.096 292.761 362.675 292.814 362.252 292.814H358.839C358.221 292.814 357.609 292.929 357.033 293.152L333.546 302.249C333.171 302.395 332.78 302.494 332.381 302.546L325.048 303.495C324.599 303.553 324.161 303.671 323.744 303.847L295.888 315.617C295.544 315.762 295.186 315.868 294.819 315.933L285.862 317.529Z" fill="url(#paint1_linear_31_17)" fill-opacity="0.7"/>
<path d="M356.833 310.887C355.308 311.137 353.956 309.883 354.091 308.344V308.344C354.197 307.12 355.222 306.181 356.45 306.181H360.197C361.07 306.181 361.928 305.953 362.685 305.518L364.905 304.245C365.662 303.811 366.52 303.582 367.393 303.582H370.309C371.091 303.582 371.862 303.399 372.56 303.047L376.327 301.147C377.025 300.795 377.796 300.612 378.578 300.612H382.827L390.983 299.498L398.263 297.841C398.834 297.711 399.43 297.76 399.971 297.982V297.982C402.324 298.946 402.324 302.277 399.971 303.241L399.681 303.36C399.324 303.507 398.941 303.582 398.555 303.582H389.388C388.943 303.582 388.5 303.641 388.071 303.759L379.849 306.004C379.419 306.122 378.976 306.181 378.531 306.181H372.531C371.85 306.181 371.176 306.32 370.55 306.59L363.453 309.651C363.078 309.812 362.685 309.928 362.282 309.994L356.833 310.887Z" fill="url(#paint2_linear_31_17)" fill-opacity="0.7"/>
<path d="M415.625 296.566C415.231 296.308 414.739 296.251 414.297 296.412V296.412C413.049 296.866 412.972 298.601 414.175 299.164L416.498 300.252C416.996 300.486 417.556 300.552 418.095 300.442L422.206 299.599C422.537 299.532 422.873 299.498 423.21 299.498H426.781L435.272 300.446C436.236 300.554 437.212 300.379 438.078 299.942L441.002 298.467C442.06 297.934 443.273 297.793 444.425 298.071L448.742 299.111C449.697 299.342 450.691 298.929 451.203 298.09V298.09C452.068 296.673 451.163 294.839 449.512 294.662L443.184 293.986C442.823 293.948 442.459 293.948 442.098 293.989L423.09 296.113C422.832 296.141 422.577 296.19 422.327 296.258L418.502 297.303C417.716 297.518 416.875 297.385 416.193 296.938L415.625 296.566Z" fill="url(#paint3_linear_31_17)" fill-opacity="0.7"/>
<path d="M379.137 267.725C378.149 267.005 377.879 265.648 378.516 264.605V264.605C378.942 263.907 379.701 263.481 380.519 263.481H410.123C410.652 263.481 411.177 263.397 411.68 263.232L418.519 260.991C419.465 260.681 420.49 260.718 421.411 261.095V261.095C422.249 261.439 423.177 261.501 424.054 261.272L430.848 259.501C432.02 259.195 433.263 259.348 434.326 259.929V259.929C435.025 260.31 435.808 260.51 436.604 260.51H442.063C442.447 260.51 442.83 260.466 443.203 260.379L447.534 259.365C448.481 259.143 449.471 259.202 450.385 259.535L452.47 260.294C452.864 260.438 453.274 260.531 453.691 260.572L463.956 261.582C464.246 261.61 464.538 261.613 464.828 261.591L477.666 260.605C478.471 260.543 479.28 260.677 480.021 260.995L487.832 264.348C488.215 264.512 488.616 264.628 489.026 264.692L499.803 266.39C500.06 266.431 500.32 266.451 500.581 266.451H513.684C514.908 266.451 516.082 266.938 516.947 267.805L518.251 269.11C519.075 269.935 519.189 271.232 518.522 272.189V272.189C518.104 272.787 517.438 273.164 516.711 273.213L507.854 273.818C507.28 273.857 506.703 273.797 506.149 273.64L495.205 270.536L474.361 267.565L447.656 264.648C447.334 264.613 447.01 264.609 446.688 264.636L425.422 266.451H409.932C409.095 266.451 408.27 266.662 407.535 267.063L404.547 268.696C403.68 269.169 402.693 269.375 401.709 269.288L387.404 268.021C386.775 267.965 386.141 268.029 385.535 268.21L383.157 268.918C382.092 269.236 380.94 269.038 380.042 268.384L379.137 267.725Z" fill="url(#paint4_linear_31_17)" fill-opacity="0.7"/>
<path d="M271.337 360.399C269.224 361.265 266.793 360.561 265.469 358.701L264.77 357.72C264.632 357.526 264.558 357.293 264.558 357.055V357.055C264.558 356.6 264.826 356.189 265.241 356.005L287.215 346.282L299.946 338.632C300.515 338.29 301.148 338.064 301.805 337.969L308.044 337.067C308.355 337.022 308.662 336.948 308.959 336.845L316.693 334.177C316.978 334.079 317.254 333.955 317.517 333.807L323.229 330.588C323.978 330.166 324.824 329.945 325.683 329.945H329.657C330.059 329.945 330.46 329.896 330.851 329.8L347.926 325.603C348.233 325.527 348.547 325.481 348.864 325.465L362.434 324.77C362.736 324.754 363.037 324.711 363.332 324.641L379.438 320.821C379.882 320.716 380.34 320.672 380.796 320.69L392.619 321.175C394.393 321.247 395.041 323.545 393.566 324.534V324.534C393.357 324.674 393.121 324.77 392.873 324.815L385.092 326.232L379.803 327.565C379.404 327.666 378.993 327.717 378.581 327.717H368.033C367.33 327.717 366.635 327.865 365.993 328.152L357.787 331.82C357.265 332.053 356.706 332.195 356.136 332.24L347.862 332.886C347.609 332.905 347.358 332.944 347.111 333.002L325.706 338.013C325.421 338.08 325.131 338.122 324.839 338.137L319.561 338.426C318.849 338.465 318.154 338.655 317.522 338.985L304.614 345.716C303.9 346.088 303.107 346.282 302.302 346.282H297.988C297.163 346.282 296.35 346.487 295.623 346.877L284.823 352.675C284.023 353.105 283.385 353.784 283.007 354.61V354.61C282.513 355.69 281.581 356.507 280.445 356.856L278.605 357.421L271.337 360.399Z" fill="url(#paint5_linear_31_17)" fill-opacity="0.7"/>
<path d="M411.83 316.492C411.233 316.548 410.657 316.745 410.15 317.066L406.729 319.232C404.817 320.443 405.499 323.387 407.749 323.633V323.633L413.774 324.558C414.579 324.682 415.402 324.607 416.171 324.34L426.781 320.662L438.25 317.877C438.758 317.754 439.281 317.711 439.801 317.75L444 318.063H449.403C449.995 318.063 450.551 317.781 450.901 317.303V317.303C451.799 316.077 450.923 314.35 449.403 314.35H447.172L438.11 315.464H422.703L411.83 316.492Z" fill="url(#paint6_linear_31_17)" fill-opacity="0.7"/>
<path d="M424.611 334.336C422.473 334.709 420.681 332.715 421.28 330.629V330.629C421.595 329.532 422.517 328.716 423.644 328.537L438.11 326.232L456.688 323.633H479.436C479.976 323.633 480.513 323.72 481.025 323.892L489.617 326.772C490.018 326.906 490.434 326.989 490.856 327.019L505.374 328.039C505.843 328.072 506.304 328.17 506.745 328.332L523.299 334.4L533.741 337.138C534.327 337.292 534.881 337.551 535.374 337.903L544.65 344.512C544.916 344.702 545.2 344.865 545.497 344.999L553.451 348.583C553.89 348.781 554.298 349.041 554.662 349.355L562.388 356.019C562.611 356.211 562.816 356.422 563.001 356.65L572.978 368.913C573.387 369.416 573.89 369.834 574.459 370.145L575.759 370.855C576.129 371.057 576.472 371.306 576.78 371.594L582.66 377.101L588.398 382.683C589.365 383.624 589.911 384.917 589.911 386.267V389.13C589.911 390.006 590.141 390.867 590.579 391.627L597.411 403.483C597.546 403.717 597.662 403.962 597.757 404.215L604.484 422.048C604.999 423.413 604.739 424.949 603.804 426.069V426.069C601.834 428.429 598.055 427.815 596.932 424.953L587.577 401.103C587.323 400.456 586.937 399.869 586.443 399.379L579.308 392.301C578.829 391.826 578.451 391.26 578.197 390.635L574.845 382.395C574.62 381.84 574.296 381.331 573.891 380.891L557.738 363.362L545.919 350.911C545.349 350.31 544.638 349.86 543.85 349.602L539.239 348.091C538.589 347.877 537.989 347.533 537.477 347.079L534.236 344.201C533.321 343.389 532.14 342.94 530.916 342.94H528.405C527.727 342.94 527.056 342.803 526.433 342.535L518.223 339.011C517.983 338.908 517.751 338.786 517.529 338.646L512.975 335.776C512.315 335.36 511.566 335.104 510.789 335.029L504.79 334.451C504.443 334.417 504.1 334.348 503.767 334.243L493.036 330.861C492.671 330.745 492.293 330.673 491.911 330.644L468.448 328.864C468.161 328.842 467.873 328.845 467.586 328.873L441.281 331.43L424.611 334.336Z" fill="url(#paint7_linear_31_17)" fill-opacity="0.7"/>
<path d="M530.57 273.238C530.258 273.17 529.934 273.164 529.619 273.222V273.222C527.912 273.533 527.075 275.486 528.028 276.936L528.638 277.865C528.997 278.411 529.517 278.833 530.126 279.071L539.612 282.789L554.566 286.873L561.293 289.323C562.17 289.642 563.152 289.442 563.832 288.804V288.804C564.925 287.781 564.867 286.031 563.709 285.083L563.221 284.683C562.892 284.413 562.51 284.216 562.1 284.104L558.89 283.227C557.873 282.949 557.031 282.235 556.593 281.276V281.276C556.168 280.349 555.367 279.649 554.391 279.353L543.691 276.105L530.57 273.238Z" fill="url(#paint8_linear_31_17)" fill-opacity="0.7"/>
<path d="M568.777 291.84C568.123 291.528 567.707 290.868 567.707 290.143V290.143C567.707 289.003 568.713 288.125 569.843 288.279L579.035 289.534C580.397 289.72 581.499 290.735 581.797 292.077V292.077C582.051 293.222 582.897 294.145 584.016 294.498L588.098 295.785L597.614 299.869L611.147 306.589C612.07 307.048 612.825 307.787 613.303 308.701V308.701C613.711 309.482 614.323 310.138 615.074 310.599L622.208 314.983C622.72 315.298 623.137 315.745 623.415 316.277V316.277C623.989 317.375 625.126 318.063 626.365 318.063H627.026C628.472 318.063 629.826 318.77 630.653 319.955L630.724 320.057C631.004 320.458 631.345 320.812 631.735 321.107L636.738 324.891C636.937 325.042 637.125 325.208 637.299 325.386L641.513 329.702C642.086 330.29 642.217 331.18 641.836 331.908V331.908C641.417 332.709 640.49 333.104 639.622 332.849L636.215 331.853C635.274 331.577 634.434 331.03 633.8 330.281L627.784 323.16C627.029 322.266 625.983 321.665 624.83 321.463L621.143 320.815C620.566 320.714 620.011 320.512 619.504 320.219L612.992 316.452C612.71 316.289 612.412 316.153 612.104 316.048L608.34 314.763C607.546 314.492 606.833 314.026 606.267 313.407L602.191 308.954C601.862 308.594 601.61 308.172 601.449 307.712V307.712C601.037 306.531 600.04 305.649 598.817 305.385L593.046 304.141C592.471 304.017 591.922 303.792 591.425 303.478L583.157 298.242C582.532 297.846 581.826 297.594 581.092 297.504L574.651 296.712C573.791 296.607 573.145 295.876 573.145 295.01V295.01C573.145 294.349 572.765 293.747 572.169 293.462L568.777 291.84Z" fill="url(#paint9_linear_31_17)" fill-opacity="0.7"/>
<path d="M593.138 326.374C592.546 326.058 592.176 325.441 592.176 324.771V324.771C592.176 323.612 593.245 322.749 594.378 322.993L599.851 324.173C600.469 324.307 601.056 324.556 601.581 324.908L605.771 327.717L611.661 331.43L615.882 334.888C616.674 335.537 617.248 336.414 617.526 337.4L617.754 338.211C618.196 339.779 619.373 341.034 620.91 341.574L625.523 343.193C627.059 343.733 628.237 344.988 628.679 346.556L629.105 348.069C629.256 348.607 629.497 349.115 629.816 349.574L630.563 350.645C630.948 351.196 631.44 351.665 632.01 352.022L636.815 355.032C638.081 355.826 638.85 357.215 638.85 358.709V358.709C638.85 360.009 639.433 361.241 640.438 362.065L646.767 367.25C647.225 367.626 647.612 368.08 647.912 368.591L652.578 376.556C652.79 376.918 653.046 377.251 653.341 377.549L658.307 382.557C658.626 382.879 658.9 383.242 659.121 383.637L663.379 391.25C663.639 391.716 663.973 392.136 664.366 392.497L669.852 397.521C670.887 398.468 671.475 399.806 671.475 401.209V402.09C671.475 403.657 672.21 405.133 673.459 406.078L676.222 408.167C676.97 408.733 677.543 409.498 677.878 410.374L679.368 414.283C679.543 414.741 679.784 415.171 680.084 415.559L687.254 424.836C687.878 425.643 688.101 426.69 687.859 427.682V427.682C687.541 428.983 688.028 430.349 689.098 431.155L697.117 437.2C698.112 437.95 698.791 439.045 699.021 440.27L699.336 441.945C699.489 442.764 699.845 443.532 700.371 444.178L706.82 452.105L711.738 458.485C712.081 458.929 712.323 459.443 712.448 459.989L712.745 461.286C713.179 463.184 715.323 464.122 717.011 463.153V463.153C717.734 462.739 718.601 462.655 719.39 462.925L722.315 463.924C723.148 464.208 723.891 464.707 724.469 465.37L728.118 469.556L732.718 474.696C732.973 474.981 733.195 475.295 733.379 475.631L738.725 485.403C738.901 485.725 738.993 486.086 738.993 486.453V486.453C738.993 487.252 738.556 487.988 737.854 488.372L737.641 488.489C736.8 488.948 735.773 488.907 734.972 488.381L734.008 487.75L731.038 485.316C730.337 484.741 729.93 483.883 729.93 482.976V482.428C729.93 481.061 728.822 479.952 727.455 479.952V479.952C726.726 479.952 726.034 479.631 725.563 479.075L722.227 475.126L720.833 473.857C720.024 473.12 718.75 473.876 719.01 474.94V474.94C719.04 475.063 719.091 475.18 719.16 475.286L721.909 479.469C722.12 479.79 722.294 480.135 722.426 480.496L723.138 482.44C723.432 483.244 723.927 483.958 724.576 484.515L727.541 487.06C730.012 489.182 729.26 493.184 726.187 494.263V494.263C724.606 494.818 722.847 494.388 721.7 493.167L720.374 491.754C719.526 490.851 719.055 489.66 719.055 488.423V488.423C719.055 486.837 718.283 485.351 716.985 484.44L716.547 484.132C716.107 483.823 715.72 483.445 715.401 483.013L707.174 471.891C706.939 471.573 706.742 471.228 706.588 470.864L703.002 462.374C702.829 461.965 702.603 461.582 702.33 461.233L690.507 446.164L681.273 433.913C681.086 433.664 680.922 433.399 680.784 433.12L674.523 420.465C674.305 420.025 674.023 419.619 673.687 419.26L670.116 415.457C669.815 415.136 669.558 414.777 669.351 414.39L667.289 410.527C666.771 409.558 665.949 408.786 664.95 408.331L663.998 407.898C662.972 407.431 662.133 406.63 661.619 405.626L656.522 395.666L644.965 375.634C644.816 375.374 644.643 375.129 644.45 374.901L629.334 357.05L624.349 352.594L614.303 341.858C614.053 341.59 613.774 341.351 613.472 341.145L606.507 336.389C606.02 336.056 605.595 335.64 605.253 335.159L603.28 332.387C602.832 331.757 602.244 331.241 601.563 330.877L593.138 326.374Z" fill="url(#paint10_linear_31_17)" fill-opacity="0.7"/>
<path d="M499.536 438.873C499.97 439.03 500.379 439.245 500.754 439.513L514.69 449.505L521.593 453.182C522.922 453.89 523.753 455.273 523.753 456.779V456.779C523.753 457.127 523.708 457.473 523.62 457.81L523.013 460.13C522.622 461.626 521.561 462.856 520.139 463.463L517.896 464.421C517.275 464.685 516.608 464.822 515.933 464.822H509.13C508.034 464.822 506.967 464.461 506.096 463.796L502.853 461.32C502.588 461.118 502.304 460.943 502.005 460.797L498.279 458.985C497.195 458.458 496.407 457.468 496.138 456.293V456.293C495.855 455.06 495.003 454.035 493.843 453.53L489.535 451.655C489.126 451.477 488.861 451.073 488.861 450.627V450.627C488.861 450.007 489.363 449.505 489.982 449.505H492.483C492.786 449.505 493.088 449.543 493.381 449.619L499.215 451.112C499.858 451.277 500.462 451.568 500.991 451.968L505.488 455.369C505.88 455.667 506.315 455.904 506.778 456.074L512.033 458.007C512.292 458.102 512.565 458.151 512.841 458.151H513.025C514.76 458.151 515.835 456.263 514.95 454.771V454.771C514.779 454.482 514.545 454.236 514.265 454.05L508.218 450.024C507.703 449.681 507.13 449.437 506.527 449.303L495.688 446.906L490.212 445.841C487.852 445.382 485.499 446.668 484.611 448.903L480.604 458.989C480.09 460.281 480.138 461.729 480.736 462.985L481.421 464.423C481.547 464.688 481.65 464.964 481.728 465.247L482.957 469.717C483.259 470.814 483.926 471.776 484.848 472.443L491.127 476.982L499.06 482.833C499.799 483.377 500.673 483.708 501.587 483.789L514.631 484.945C516.104 485.075 517.444 485.852 518.291 487.065L520.901 490.808C521.836 492.149 523.367 492.948 525.002 492.948H531.527C531.781 492.948 532.035 492.929 532.286 492.89L536.861 492.187C538.318 491.963 539.602 491.108 540.37 489.85L540.689 489.328C540.877 489.019 541.098 488.732 541.348 488.472L544.565 485.116C545.458 484.185 545.956 482.945 545.956 481.656V479.741C545.956 478.024 546.838 476.427 548.29 475.511L550.988 473.811C551.549 473.457 552.199 473.269 552.863 473.269V473.269C554.804 473.269 556.379 474.843 556.379 476.785V477.731C556.379 478.219 556.299 478.703 556.142 479.164L554.33 484.51C554.186 484.935 553.985 485.339 553.733 485.711L549.581 491.834L547.198 494.764C546.4 495.745 545.26 496.387 544.007 496.561L520.739 499.792C519.75 499.93 518.742 499.767 517.846 499.327L516.246 498.54C515.238 498.045 514.093 497.903 512.994 498.138L505.942 499.645C504.857 499.877 503.725 499.742 502.726 499.26L496.564 496.29L488.173 493.599C486.876 493.183 485.804 492.256 485.207 491.032L480.041 480.45C479.88 480.119 479.682 479.808 479.453 479.52L473.22 471.725C471.985 470.18 471.776 468.053 472.688 466.298L472.892 465.905C473.261 465.193 473.454 464.403 473.454 463.601V445.749C473.454 444.727 472.267 444.166 471.478 444.813V444.813C471.289 444.967 471.152 445.175 471.084 445.408L468.671 453.644C468.538 454.101 468.47 454.574 468.47 455.05V460.755C468.47 461.884 468.081 462.979 467.368 463.856V463.856C465.898 465.662 465.898 468.252 467.368 470.058L467.676 470.437C468.197 471.077 468.552 471.837 468.708 472.647L469.46 476.553C469.697 477.782 470.396 478.874 471.413 479.603L471.886 479.942C472.87 480.648 473.454 481.785 473.454 482.996V482.996C473.454 484.331 474.162 485.565 475.314 486.239L478.112 487.877C479.196 488.511 480.002 489.531 480.368 490.733L480.853 492.321C481.328 493.878 482.531 495.106 484.078 495.613L485.367 496.036C485.88 496.204 486.363 496.455 486.796 496.777L489.797 499.013C490.66 499.656 491.708 500.003 492.784 500.003H494.458C495.805 500.003 497.095 500.546 498.036 501.51L498.179 501.657C499.424 502.932 501.252 503.448 502.979 503.013L503.791 502.808C505.24 502.443 506.777 502.745 507.981 503.632L509.17 504.51C510.102 505.197 511.244 505.539 512.4 505.479L544.028 503.817C545.269 503.752 546.441 503.227 547.316 502.345L556.288 493.296C557.217 492.36 557.738 491.094 557.738 489.776V486.829C557.738 486.454 557.78 486.08 557.864 485.714L560.045 476.181C560.311 475.02 560.154 473.803 559.602 472.748L558.565 470.766C558.03 469.743 557.865 468.567 558.099 467.437L562.427 446.479C562.62 445.546 562.542 444.577 562.202 443.686L561.003 440.541C560.647 439.608 560.579 438.589 560.807 437.617L562.352 431.035C562.593 430.008 562.503 428.931 562.095 427.958L557.907 417.975C557.794 417.708 557.706 417.431 557.641 417.148L554.464 403.153C554.235 402.147 553.702 401.236 552.935 400.546L550.755 398.581C549.991 397.892 549.458 396.985 549.229 395.982L548.865 394.393C548.489 392.748 547.025 391.582 545.338 391.582V391.582C543.807 391.582 542.442 390.618 541.928 389.176L540.511 385.196C539.95 383.618 538.636 382.427 537.011 382.021L530.5 380.398C529.642 380.184 528.856 379.746 528.223 379.13L522.52 373.58C522.136 373.207 521.694 372.897 521.212 372.664L513.003 368.689C512.324 368.36 511.579 368.189 510.824 368.189H501.603C500.679 368.189 499.773 367.933 498.985 367.449L495.572 365.351C495.03 365.019 494.43 364.792 493.804 364.684L489.533 363.947C487.906 363.667 487.075 361.834 487.934 360.425V360.425C488.482 359.528 489.561 359.106 490.572 359.394L509.705 364.848L537.259 372.732C537.915 372.919 538.525 373.239 539.053 373.671L555.351 387.026C556.001 387.559 556.379 388.356 556.379 389.197V389.197C556.379 390.005 556.726 390.773 557.333 391.306L561.579 395.033C562.324 395.688 562.858 396.549 563.113 397.508L567.087 412.487C567.198 412.906 567.254 413.337 567.254 413.769V426.952C567.254 427.624 567.389 428.288 567.651 428.906L570.385 435.347C570.709 436.11 570.838 436.942 570.761 437.768L569.066 455.818L567.283 480.659C567.264 480.93 567.222 481.199 567.159 481.464L563.128 498.31C562.865 499.406 562.24 500.382 561.353 501.078L553.207 507.476C552.326 508.167 551.238 508.543 550.119 508.543H540.322C539.557 508.543 538.802 508.719 538.116 509.056L535.671 510.258C534.985 510.595 534.23 510.771 533.465 510.771H531.399C530.271 510.771 529.185 511.2 528.362 511.971V511.971C527.193 513.065 525.527 513.447 523.999 512.97L517.363 510.898C517.092 510.813 516.814 510.752 516.532 510.715L500.684 508.609C500.355 508.565 500.031 508.489 499.718 508.381L487.154 504.064C486.487 503.835 485.876 503.467 485.361 502.985L480.967 498.869C480.216 498.166 479.226 497.775 478.198 497.775V497.775C476.677 497.775 475.284 496.923 474.591 495.57L470.755 488.074C470.162 486.914 469.138 486.031 467.903 485.615L464.682 484.528C463.087 483.99 461.869 482.685 461.443 481.055L460.926 479.077C460.82 478.672 460.664 478.282 460.461 477.916L459.128 475.514C458.717 474.772 458.501 473.938 458.501 473.089V470.031C458.501 469.471 458.406 468.914 458.222 468.385L457.156 465.328C456.85 464.451 456.795 463.506 456.996 462.599L458.501 455.818L460.622 447.473C460.718 447.096 460.857 446.732 461.038 446.388L464.372 440.013C464.684 439.416 465.113 438.889 465.634 438.462L467.881 436.621C469.106 435.617 470.735 435.253 472.272 435.64L474.874 436.296C475.403 436.43 475.832 436.816 476.02 437.329V437.329C476.473 438.566 478.122 438.799 478.9 437.736L479.31 437.176C479.623 436.749 480.091 436.462 480.614 436.376L487.579 435.235C488.42 435.097 489.282 435.176 490.083 435.465L499.536 438.873Z" fill="url(#paint11_linear_31_17)" fill-opacity="0.7"/>
<path d="M473.828 499.785C473.599 498.097 472.439 496.682 470.828 496.127L469.197 495.564C467.066 494.828 464.845 496.412 464.845 498.666V498.666C464.845 499.523 465.18 500.346 465.778 500.959L468.47 503.716L484.76 517.064C485.654 517.797 486.774 518.197 487.929 518.197H497.068C497.616 518.197 498.143 517.981 498.534 517.597V517.597C499.419 516.727 499.356 515.282 498.398 514.492L496.418 512.859C495.937 512.462 495.376 512.171 494.773 512.007L487.291 509.97C486.536 509.764 485.839 509.384 485.257 508.86L482.525 506.397C481.925 505.855 481.202 505.468 480.418 505.267L477.622 504.551C475.651 504.046 474.182 502.397 473.908 500.379L473.828 499.785Z" fill="url(#paint12_linear_31_17)" fill-opacity="0.7"/>
<path d="M497.601 522.106C496.933 521.98 496.241 522.099 495.654 522.443V522.443C493.552 523.673 493.895 526.809 496.212 527.557L505.174 530.45L522.684 536.399C523.387 536.638 524.136 536.717 524.874 536.631L533.268 535.648H543.129C543.502 535.648 543.874 535.69 544.238 535.773L550.233 537.138C551.281 537.376 552.378 537.271 553.361 536.837L557.156 535.163C557.542 534.992 557.949 534.871 558.366 534.803L568.226 533.187C568.782 533.096 569.319 532.911 569.814 532.641L577.234 528.587C578.113 528.108 578.827 527.375 579.284 526.485L585.832 513.741L593.305 501.495C593.459 501.243 593.59 500.979 593.696 500.705L599.508 485.783C600.032 484.438 599.949 482.931 599.279 481.652L598.826 480.785C598.067 479.333 598.067 477.602 598.826 476.15L600.543 472.867C601.267 471.483 601.302 469.839 600.639 468.425L599.9 466.852C599.588 466.187 599.427 465.462 599.427 464.728V452.496C599.427 452.235 599.406 451.975 599.366 451.718L597.614 440.594L592.176 422.4L587.547 409.295C587.313 408.633 586.942 408.027 586.459 407.518L581.878 402.692C581.206 401.984 580.756 401.095 580.583 400.134L580.31 398.612C580.074 397.3 579.324 396.136 578.227 395.379L576.171 393.963C575.668 393.616 575.233 393.18 574.887 392.676L567.511 381.932C567.34 381.682 567.146 381.448 566.933 381.234L554.278 368.523C553.58 367.821 552.688 367.343 551.717 367.148L536.418 364.084C534.905 363.781 533.68 365.31 534.306 366.72V366.72C534.512 367.185 534.896 367.548 535.371 367.728L539.833 369.415C540.288 369.587 540.715 369.825 541.101 370.12L547.316 374.873L554.956 380.507C555.876 381.186 556.536 382.16 556.826 383.266L557.294 385.058C557.581 386.156 558.234 387.124 559.145 387.802L561.604 389.634C562.335 390.179 562.904 390.915 563.248 391.76L564.58 395.033C564.849 395.695 565.257 396.291 565.776 396.782L568.941 399.774C570.152 400.92 570.713 402.593 570.436 404.237L569.221 411.459C569.119 412.064 569.129 412.683 569.252 413.285L570.879 421.286L573.145 432.054L575.41 440.594L578.11 456.082C578.404 457.767 577.816 459.486 576.551 460.638L576.349 460.821C575.187 461.879 574.59 463.421 574.737 464.986L575.355 471.564C575.392 471.957 575.382 472.352 575.326 472.742L574.504 478.467L573.221 488.277C573.17 488.667 573.074 489.049 572.933 489.417L566.202 506.996C565.999 507.528 565.705 508.022 565.335 508.456L563.96 510.065C563.163 510.998 562.051 511.605 560.835 511.771L538.253 514.855L526.218 517.576C525.49 517.74 524.734 517.74 524.006 517.574L518.338 516.284C517.434 516.078 516.491 516.128 515.613 516.427L513.427 517.174C512.202 517.592 510.863 517.519 509.691 516.97L505.854 515.174C505.42 514.971 504.922 514.958 504.479 515.14V515.14C503.45 515.561 503.091 516.837 503.747 517.734L504.59 518.885C504.968 519.401 505.51 519.774 506.127 519.942L509.551 520.878C510.216 521.059 510.929 520.908 511.462 520.47V520.47C512.057 519.983 512.867 519.854 513.583 520.132L520.378 522.77C520.813 522.938 521.269 523.045 521.734 523.088L532.512 524.069C533.014 524.115 533.519 524.084 534.011 523.979L554.113 519.682L563.935 518.135C565.159 517.942 566.204 517.148 566.72 516.022V516.022C567.066 515.266 567.656 514.649 568.396 514.27L569.288 513.813C570.317 513.287 571.131 512.42 571.593 511.361L572.663 508.906C572.979 508.179 573.464 507.538 574.077 507.036L577.46 504.265C578.47 503.437 579.116 502.247 579.26 500.949L580.336 491.246C580.375 490.897 580.451 490.552 580.562 490.218L585.423 475.612C585.692 474.806 585.75 473.945 585.593 473.11L583.385 461.347C583.208 460.404 583.306 459.429 583.668 458.54L585.337 454.436C585.662 453.638 585.775 452.769 585.665 451.915L584.02 439.109L583.203 432.079C583.144 431.57 583.007 431.074 582.797 430.606L580.249 424.94C580.053 424.505 580.052 424.008 580.245 423.572L580.429 423.158C580.944 421.999 582.586 421.989 583.114 423.143V423.143L585.425 428.508C585.694 429.133 585.832 429.806 585.832 430.486V432.212C585.832 433.287 586.314 434.306 587.146 434.987V434.987C588.27 435.908 588.727 437.417 588.303 438.808L587.83 440.359C587.423 441.693 587.591 443.135 588.294 444.339L591.115 449.172C591.794 450.335 591.975 451.723 591.617 453.021L589.383 461.127C589.136 462.025 589.144 462.975 589.407 463.868L591.825 472.077C592.056 472.86 592.091 473.687 591.929 474.487L589.004 488.864L582.161 509.543C581.894 510.348 581.427 511.073 580.803 511.648L568.943 522.581C567.871 523.569 566.421 524.04 564.972 523.871L558.953 523.166C558.155 523.073 557.346 523.173 556.594 523.459L545.909 527.524C545.341 527.74 544.739 527.851 544.131 527.851H530.55L522.431 528.801C521.517 528.908 520.592 528.761 519.756 528.376L514.78 526.082C514.123 525.78 513.409 525.623 512.687 525.623H508.665C507.86 525.623 507.067 525.429 506.353 525.057L503.111 523.366C502.676 523.139 502.21 522.978 501.728 522.887L497.601 522.106Z" fill="url(#paint13_linear_31_17)" fill-opacity="0.7"/>
<path d="M372.289 356.409C371.765 356.588 371.275 356.852 370.838 357.191L365.199 361.569C364.143 362.389 364.326 364.035 365.537 364.602V364.602C365.878 364.762 366.259 364.81 366.628 364.74L377.067 362.766C377.581 362.669 378.076 362.492 378.535 362.241L388.187 356.969C388.539 356.776 388.914 356.627 389.302 356.524L404.124 352.594L422.398 344.933C423.192 344.601 424.058 344.478 424.913 344.578L425.437 344.64C426.317 344.743 427.209 344.61 428.021 344.255L432.254 342.405C433.119 342.027 434.073 341.902 435.007 342.043L444.11 343.425C445.213 343.592 446.341 343.385 447.314 342.838L451.338 340.57C452.446 339.946 453.751 339.768 454.986 340.071L461.538 341.682C461.928 341.778 462.329 341.827 462.731 341.827H486.795C487.264 341.827 487.73 341.892 488.18 342.022L511.971 348.881L524.16 351.137C525.358 351.358 526.433 352.009 527.185 352.967L529.239 355.586C529.8 356.301 530.545 356.85 531.395 357.173L542.784 361.506L548.799 364.463C549.296 364.707 549.875 364.727 550.389 364.517V364.517C551.701 363.979 552.01 362.26 550.967 361.298L549.751 360.177C549.638 360.073 549.517 359.978 549.39 359.892L535.553 350.615C534.944 350.207 534.252 349.938 533.528 349.826L528.213 349.01C527.66 348.925 527.125 348.747 526.631 348.485L520.773 345.38C520.052 344.997 519.247 344.797 518.431 344.797H516.155C515.198 344.797 514.262 344.522 513.456 344.006L505.077 338.632C504.542 338.29 503.947 338.052 503.324 337.932L489.236 335.215C488.986 335.167 488.733 335.138 488.479 335.129L460.572 334.073C459.806 334.044 459.043 334.192 458.343 334.505L455.129 335.941C454.661 336.15 454.163 336.286 453.654 336.344L438.617 338.056C438.279 338.094 437.947 338.167 437.625 338.272L434.872 339.175C434.025 339.452 433.119 339.498 432.248 339.308L428.796 338.554C427.506 338.272 426.156 338.512 425.042 339.222L423.61 340.135C423.012 340.516 422.34 340.765 421.638 340.867L415.46 341.76C415.154 341.804 414.852 341.877 414.56 341.977L372.289 356.409Z" fill="url(#paint14_linear_31_17)" fill-opacity="0.7"/>
<path d="M548.204 597.657C547.915 597.657 547.625 597.631 547.34 597.581L522.305 593.185C520.145 592.806 518.674 595.313 520.058 597.014V597.014C520.396 597.43 520.866 597.719 521.39 597.833L547.241 603.482C547.592 603.559 547.95 603.597 548.309 603.597H567.237C567.55 603.597 567.861 603.568 568.169 603.51L596.994 598.044C599.084 597.648 599.971 595.147 598.599 593.522V593.522C597.974 592.782 597.009 592.421 596.052 592.569L563.556 597.598C563.303 597.637 563.047 597.657 562.791 597.657H548.204Z" fill="url(#paint15_linear_31_17)" fill-opacity="0.7"/>
<path d="M544.705 606.979C544.633 606.952 544.559 606.932 544.484 606.917L532.014 604.424C530.065 604.035 528.73 606.337 530.036 607.835V607.835C530.367 608.215 530.825 608.462 531.324 608.53L538.706 609.538H545.31C545.438 609.538 545.565 609.517 545.685 609.474V609.474C546.69 609.122 546.698 607.704 545.698 607.34L544.705 606.979Z" fill="url(#paint16_linear_31_17)" fill-opacity="0.7"/>
<path d="M554.119 607.008C553.819 606.963 553.513 607.008 553.239 607.136V607.136C552.097 607.671 552.047 609.277 553.154 609.881L553.977 610.33C554.359 610.539 554.799 610.619 555.231 610.556L561.454 609.656C561.994 609.578 562.543 609.589 563.079 609.688L575.585 612.002C576.07 612.092 576.566 612.109 577.056 612.054L588.725 610.735C589.211 610.68 589.702 610.697 590.183 610.784L596.497 611.934C597.232 612.068 597.988 612.035 598.71 611.838L609.872 608.789C612.33 608.118 612.72 604.795 610.483 603.573V603.573C610.067 603.345 609.6 603.226 609.126 603.226H594.088C593.721 603.226 593.355 603.267 592.997 603.347L575.263 607.31C574.183 607.551 573.054 607.427 572.052 606.958L571.761 606.822C570.89 606.414 569.918 606.266 568.965 606.396L564.988 606.939L559.305 607.605C558.866 607.656 558.423 607.649 557.986 607.584L554.119 607.008Z" fill="url(#paint17_linear_31_17)" fill-opacity="0.7"/>
<path d="M550.672 623.782C549.402 623.697 548.231 623.07 547.456 622.061V622.061C545.056 618.938 547.621 614.47 551.529 614.968L581.167 618.746C581.557 618.796 581.952 618.799 582.342 618.757L594.498 617.429C595.061 617.367 595.63 617.402 596.181 617.531L600.488 618.539C601.279 618.724 602.103 618.714 602.889 618.509L620.254 613.982C621.133 613.752 622.068 613.892 622.842 614.368L623.985 615.07C625.935 616.268 625.609 619.195 623.443 619.935V619.935L607.218 624.247C606.858 624.342 606.489 624.398 606.117 624.411L576.317 625.505L550.672 623.782Z" fill="url(#paint18_linear_31_17)" fill-opacity="0.7"/>
<path d="M572.066 636.644C571.294 636.644 570.541 636.403 569.912 635.955V635.955C566.968 633.857 568.452 629.218 572.066 629.218H575.288C575.966 629.218 576.636 629.363 577.253 629.644L579.079 630.475C579.939 630.866 580.891 631.006 581.827 630.879L588.551 629.96L600.832 629.266C601.401 629.234 601.972 629.299 602.519 629.46L606.71 630.686C607.578 630.94 608.498 630.954 609.373 630.726L635.368 623.964C636.151 623.761 636.982 623.852 637.702 624.221L639.261 625.019C641.706 626.271 641.035 629.935 638.305 630.24V630.24C637.773 630.3 637.27 630.512 636.856 630.851L629.362 636.992C628.197 637.946 626.665 638.325 625.19 638.023L619.245 636.805C618.724 636.698 618.189 636.675 617.661 636.737L608.942 637.758H598.599C597.948 637.758 597.305 637.631 596.703 637.384L593.831 636.208C592.761 635.769 591.572 635.715 590.467 636.055L589.269 636.423C588.793 636.569 588.298 636.644 587.8 636.644H572.066Z" fill="url(#paint19_linear_31_17)" fill-opacity="0.7"/>
<path d="M619.365 642.46L602.458 641.898C598.469 641.766 597.073 647.135 600.62 648.963V648.963C601.317 649.322 602.109 649.453 602.885 649.337L606.183 648.846C606.511 648.797 606.844 648.781 607.175 648.798L620.571 649.484C620.974 649.504 621.377 649.476 621.773 649.4L627.206 648.352C628.292 648.143 629.416 648.3 630.404 648.798L633.318 650.267C634.262 650.743 635.334 650.908 636.378 650.737L638.901 650.323C639.168 650.279 639.439 650.257 639.71 650.257H650.706C652.095 650.257 653.412 649.643 654.305 648.579V648.579C656.175 646.35 655.59 642.975 653.08 641.505L646.918 637.897C645.57 637.107 643.93 636.994 642.485 637.589L629.203 643.067C628.398 643.399 627.52 643.515 626.656 643.403L619.365 642.46Z" fill="url(#paint20_linear_31_17)" fill-opacity="0.7"/>
<path d="M497.196 585.992C496.496 585.852 495.87 585.465 495.432 584.901V584.901C493.662 582.621 495.855 579.41 498.623 580.231L510.674 583.802C510.934 583.879 511.2 583.935 511.469 583.969L539.964 587.561C540.333 587.608 540.705 587.613 541.075 587.577L578.121 583.963C578.428 583.933 578.731 583.875 579.027 583.789L614.328 573.559C615.25 573.292 616.075 572.766 616.705 572.042L635.516 550.463C635.922 549.997 636.239 549.46 636.449 548.878L639.516 540.396C639.675 539.956 639.772 539.496 639.803 539.029L641.511 513.487C641.549 512.918 641.489 512.347 641.335 511.798L636.239 493.705C636.167 493.448 636.115 493.186 636.085 492.922L633.928 474.191C633.886 473.825 633.804 473.465 633.683 473.117L628.564 458.437C628.474 458.178 628.427 457.905 628.427 457.631V457.631C628.427 455.354 631.261 454.308 632.74 456.039L637.045 461.078C637.632 461.766 638.018 462.603 638.158 463.496L639.685 473.191C639.732 473.49 639.806 473.784 639.907 474.069L649.108 500.28C649.217 500.59 649.295 500.909 649.341 501.234L651.419 515.874C651.497 516.429 651.482 516.992 651.374 517.542L647.235 538.571C647.084 539.335 647.114 540.123 647.322 540.873L648.685 545.786C649.059 547.134 648.851 548.577 648.111 549.765L638.455 565.273C638.118 565.815 637.666 566.276 637.131 566.624L630.505 570.929C628.823 572.023 629.597 574.636 631.604 574.636V574.636C631.899 574.636 632.191 574.571 632.459 574.445L640.659 570.606C641.259 570.325 641.796 569.925 642.237 569.431L645.981 565.238C648.391 562.54 652.807 564.847 651.969 568.365V568.365C651.7 569.499 650.881 570.423 649.788 570.826L629.266 578.41C628.711 578.615 628.125 578.72 627.533 578.72H618.08C617.729 578.72 617.379 578.757 617.035 578.83L607.678 580.831C607.314 580.909 606.959 581.027 606.622 581.183L597.295 585.503C596.905 585.683 596.494 585.813 596.071 585.888L575.863 589.488L548.255 592.407C547.932 592.441 547.606 592.444 547.282 592.415L514.69 589.488L497.196 585.992Z" fill="url(#paint21_linear_31_17)" fill-opacity="0.7"/>
<path d="M668.514 553.9C668.942 555.69 668.336 557.568 666.945 558.772V558.772C664.208 561.139 659.939 559.848 658.971 556.362L654.541 540.39C654.354 539.713 654.319 539.002 654.44 538.31V538.31C655.18 534.061 660.752 532.933 663.087 536.559L664.67 539.016C664.975 539.49 665.199 540.013 665.33 540.562L668.514 553.9Z" fill="url(#paint22_linear_31_17)" fill-opacity="0.7"/>
<path d="M678.807 541.788C679.84 543.664 679.553 545.991 678.095 547.559V547.559C675.755 550.075 671.628 549.508 670.053 546.454L659.694 526.366L654.471 513.169C654.328 512.809 654.228 512.434 654.172 512.051L649.552 480.385C649.372 479.151 648.737 478.029 647.773 477.239L645.212 475.141C644.053 474.191 643.381 472.772 643.381 471.273V465.921C643.381 465.377 643.292 464.835 643.116 464.321C639.667 454.288 636.424 448.77 628.034 441.748C626.865 440.769 626.162 439.334 626.162 437.809V436.336C626.162 435.476 625.94 434.631 625.518 433.882L621.368 426.513C620.946 425.764 620.724 424.919 620.724 424.059V421.259C620.724 419.857 620.135 418.519 619.101 417.572L614.265 413.143C613.62 412.553 612.597 412.698 612.142 413.444V413.444C611.851 413.921 611.874 414.526 612.201 414.979L616.608 421.09C617.222 421.942 617.552 422.965 617.552 424.015V430.078C617.552 431.122 617.878 432.139 618.486 432.987L624.087 440.818C624.837 441.866 625.153 443.162 624.97 444.438L623.698 453.295C623.533 454.446 623.774 455.618 624.38 456.61L625.711 458.792C626.006 459.275 626.162 459.83 626.162 460.396V460.396C626.162 462.615 623.884 464.105 621.851 463.216L621.151 462.91C620.037 462.424 619.247 461.405 619.052 460.206L617.552 450.991L614.063 434.553C613.973 434.127 613.827 433.714 613.629 433.325L603.078 412.574C602.763 411.955 602.599 411.27 602.599 410.575V406.844C602.599 405.88 603.503 405.171 604.439 405.401V405.401C606.017 405.789 606.983 403.726 605.676 402.762L603.056 400.83C602.756 400.609 602.519 400.314 602.369 399.973L591.388 375.054C591.015 374.207 590.414 373.481 589.652 372.955L582.207 367.818L575.58 363.293C574.623 362.639 574.051 361.555 574.051 360.397V360.397C574.051 358.851 573.038 357.487 571.558 357.04L567.003 355.665C565.988 355.359 565.097 354.738 564.458 353.892L560.152 348.193C559.755 347.667 559.258 347.225 558.689 346.892L531.899 331.212C531.313 330.869 530.836 330.368 530.521 329.767V329.767C529.972 328.716 528.941 328.001 527.763 327.855L515.128 326.286C514.836 326.25 514.549 326.188 514.268 326.101L487.77 317.914C487.291 317.767 486.794 317.692 486.294 317.692H465.897C465.219 317.692 464.565 317.443 464.057 316.993V316.993C462.264 315.4 463.202 312.436 465.586 312.166L472.047 311.436C472.38 311.398 472.716 311.394 473.051 311.424L508.831 314.603C509.701 314.681 510.535 314.984 511.251 315.484L521.702 322.779C522.16 323.098 522.667 323.339 523.204 323.49L547.745 330.425C548.359 330.598 548.935 330.888 549.44 331.278L586.66 360.003C587.307 360.502 587.821 361.152 588.159 361.897L593.173 372.959C593.413 373.488 593.743 373.972 594.149 374.387L604.411 384.898L622.083 407.176L631.146 422.4L646.1 448.763L653.819 464.224C654.108 464.803 654.282 465.432 654.331 466.077L655.163 476.982L658.266 498.413C658.311 498.73 658.388 499.041 658.493 499.343L663.634 514.087C663.726 514.351 663.84 514.607 663.975 514.852L678.807 541.788Z" fill="url(#paint23_linear_31_17)" fill-opacity="0.7"/>
<path d="M689.752 532.205C690.733 534.237 690.23 536.675 688.525 538.154L687.784 538.797C685.586 540.705 682.229 540.339 680.494 538.002L678.383 535.16C677.756 534.316 677.638 533.198 678.076 532.242V532.242C678.481 531.356 678.411 530.325 677.89 529.501L666.499 511.5C666.194 511.018 665.973 510.486 665.848 509.929L664.033 501.901C663.867 501.164 663.402 500.529 662.75 500.148V500.148C661.533 499.435 661.059 497.911 661.659 496.634L661.996 495.915C662.535 494.766 662.429 493.418 661.717 492.368L660.86 491.104C660.687 490.849 660.538 490.578 660.415 490.296L659.762 488.797C658.966 486.97 659.76 484.841 661.557 483.982L662.265 483.643C663.178 483.207 664.264 483.36 665.022 484.032L666.233 485.108C667.387 486.132 669.21 485.313 669.21 483.77V483.77C669.21 483.234 668.969 482.726 668.555 482.386L661.215 476.372C660.237 475.571 659.599 474.429 659.43 473.176L658.472 466.117C658.381 465.446 658.155 464.801 657.807 464.22L646.1 444.678L634.771 424.999L625.822 404.745C625.451 403.907 624.858 403.186 624.106 402.663L617.102 397.784C616.503 397.367 616.003 396.824 615.636 396.194L603.085 374.597C602.764 374.043 602.339 373.557 601.834 373.164L595.464 368.205C594.247 367.258 593.536 365.802 593.536 364.26V363.59C593.536 362.711 593.304 361.848 592.865 361.087L589.794 355.775C589.571 355.389 589.297 355.035 588.98 354.721L575.162 341.068C574.438 340.353 573.514 339.876 572.512 339.7L569.239 339.125C568.241 338.95 567.32 338.476 566.598 337.766L559.234 330.525C558.843 330.141 558.393 329.823 557.899 329.586L552.019 326.752C551.31 326.41 550.692 325.906 550.215 325.28L549.928 324.903C549.126 323.852 547.939 323.161 546.629 322.982L537.073 321.677C535.795 321.502 534.633 320.841 533.832 319.83L530.26 315.327C529.567 314.453 528.601 313.836 527.518 313.574L501.549 307.295L482.513 305.119C482.214 305.084 481.913 305.077 481.613 305.097L448.532 307.295L438.563 309.152L400.046 315.092L372.954 316.912C372.589 316.937 372.222 316.921 371.86 316.865L366.93 316.108C365.782 315.932 364.609 316.16 363.611 316.755L361.154 318.219C360.571 318.566 359.829 318.486 359.334 318.022V318.022C358.398 317.146 358.898 315.576 360.168 315.402L362.046 315.146C362.304 315.11 362.555 315.034 362.788 314.919L365.924 313.378C366.61 313.04 367.365 312.865 368.13 312.865H376.106C376.656 312.865 377.201 312.774 377.721 312.596L387.026 309.42C387.546 309.242 388.092 309.152 388.641 309.152H403.334C404.15 309.152 404.955 308.952 405.676 308.569L411.397 305.536C411.98 305.227 412.619 305.036 413.277 304.975L436.297 302.839H448.072C448.378 302.839 448.683 302.811 448.984 302.755L471.83 298.517C472.306 298.429 472.792 298.41 473.274 298.461L503.278 301.668C503.635 301.706 503.986 301.783 504.326 301.896L532.815 311.379L553.797 320.664C554.877 321.142 555.749 321.993 556.25 323.063V323.063C557.14 324.958 559.136 326.079 561.218 325.851L562.973 325.66C563.99 325.549 565.016 325.752 565.914 326.242L573.681 330.485C573.927 330.62 574.161 330.775 574.381 330.948L597.204 348.957C598.058 349.631 598.669 350.565 598.944 351.617L599.258 352.815C599.65 354.315 600.716 355.548 602.144 356.153L611.599 360.161C612.525 360.553 613.311 361.216 613.855 362.062L622.083 374.873L639.756 398.636L659.241 426.113L674.871 454.657C675.024 454.935 675.149 455.227 675.246 455.529L677.04 461.115C677.255 461.784 677.609 462.4 678.078 462.924L693.12 479.7C693.49 480.113 693.789 480.585 694.005 481.096L701.889 499.798C702.151 500.419 702.242 501.098 702.154 501.765V501.765C701.66 505.508 696.594 506.305 694.976 502.894L688.269 488.763C687.953 488.096 687.492 487.507 686.921 487.039L680.339 481.646C679.318 480.809 678.726 479.558 678.726 478.238V478.238C678.726 477.417 678.496 476.612 678.063 475.915L652.18 434.215C652.054 434.012 651.943 433.801 651.847 433.582L643.531 414.575C643.431 414.346 643.314 414.125 643.181 413.914L636.131 402.721L620.967 380.794C620.805 380.56 620.624 380.34 620.425 380.137L602.255 361.602C601.212 360.539 599.432 361.529 599.785 362.975V362.975C599.847 363.229 599.975 363.461 600.157 363.648L613.927 377.843L624.504 391.364C624.998 391.995 625.333 392.735 625.48 393.522L625.927 395.903C626.081 396.722 626.437 397.49 626.963 398.136L635.659 408.825C635.972 409.209 636.226 409.637 636.412 410.096L645.907 433.436C646.035 433.752 646.195 434.053 646.385 434.336L681.444 486.636L697.511 514.063C697.675 514.343 697.811 514.638 697.918 514.944L699.679 519.994C700.182 521.438 699.997 523.034 699.175 524.325L698.68 525.102C696.872 527.943 692.83 528.22 690.651 525.653L688.252 522.828C687.945 522.465 687.69 522.061 687.497 521.627L677.53 499.257C677.422 499.014 677.265 498.797 677.069 498.618V498.618C675.487 497.178 673.089 499.013 674.067 500.916L683.71 519.682L689.752 532.205Z" fill="url(#paint24_linear_31_17)" fill-opacity="0.7"/>
<path d="M713.913 492.163C715.665 494.419 714.46 497.73 711.668 498.332V498.332C710.11 498.668 708.505 498.017 707.622 496.69L703.648 490.72L700.741 486.976C700.565 486.75 700.37 486.539 700.158 486.346L697.476 483.904C696.772 483.263 696.266 482.435 696.016 481.516L694.863 477.263C694.68 476.588 694.357 475.959 693.916 475.417L689.148 469.556L679.632 454.704L675.37 447.719C675.191 447.425 674.982 447.151 674.747 446.901L671.405 443.341C670.856 442.756 670.456 442.047 670.238 441.275L669.396 438.286C669.273 437.846 669.089 437.426 668.852 437.037L657.428 418.316L636.131 384.898L626.772 367.818C626.372 367.087 625.795 366.468 625.094 366.017L620.317 362.941C619.985 362.728 619.68 362.476 619.408 362.19L612.161 354.603C611.83 354.256 611.45 353.958 611.033 353.719L603.011 349.118C602.737 348.961 602.478 348.777 602.238 348.571L593.536 341.084L576.21 326.523C575.98 326.329 575.732 326.157 575.47 326.007L565.441 320.291L546.863 309.152L535.013 303.757C534.757 303.641 534.491 303.546 534.219 303.474L520.581 299.869L506.986 296.898L481.364 292.917C480.926 292.849 480.481 292.839 480.041 292.888L471.32 293.863C470.932 293.906 470.54 293.904 470.152 293.856L437.656 289.844H416.251C415.722 289.844 415.197 289.928 414.694 290.092L410.001 291.631C409.141 291.912 408.204 291.833 407.403 291.412L405.971 290.657C404.34 289.798 404.245 287.498 405.799 286.507V286.507C406.185 286.261 406.633 286.131 407.09 286.131H415.453L424.969 285.017L436.364 284.016C437.211 283.942 438.064 284.085 438.841 284.432L441.285 285.524C442.17 285.92 443.151 286.05 444.108 285.898L455.951 284.02C456.44 283.942 456.937 283.938 457.428 284.006L490.761 288.678C491.004 288.713 491.245 288.765 491.481 288.834L501.922 291.914C502.276 292.019 502.641 292.084 503.01 292.108L512.715 292.744C513.419 292.79 514.106 292.985 514.73 293.316L520.852 296.562C521.273 296.785 521.724 296.947 522.191 297.043L531.433 298.936C532.019 299.056 532.516 299.441 532.778 299.978V299.978C533.081 300.6 533.693 301.011 534.383 301.056C538.387 301.316 544.844 301.725 545.503 301.725C545.958 301.725 546.793 303.186 547.538 304.733C548.295 306.302 549.723 307.467 551.442 307.748L554.753 308.291C555.23 308.369 555.693 308.516 556.128 308.727L579.222 319.941C579.699 320.173 580.136 320.479 580.516 320.847L594.165 334.064C594.647 334.531 595.218 334.896 595.844 335.138L601.327 337.252C602.16 337.573 602.891 338.111 603.445 338.81L608.076 344.647C608.35 344.993 608.67 345.301 609.025 345.563L621.324 354.633C621.826 355.004 622.254 355.465 622.587 355.992L628.775 365.816C629.143 366.402 629.629 366.904 630.202 367.292L637.792 372.43C639.02 373.261 639.756 374.647 639.756 376.13V376.13C639.756 377.233 640.164 378.297 640.902 379.117L644.819 383.474C645.644 384.391 646.1 385.58 646.1 386.813V386.813C646.1 388.409 646.863 389.91 648.153 390.85L652.728 394.182C653.713 394.899 654.402 395.951 654.666 397.14L655.694 401.775C655.937 402.869 656.54 403.849 657.406 404.559L662.178 408.47C662.923 409.08 663.476 409.892 663.77 410.808L665.35 415.727C665.505 416.212 665.735 416.671 666.029 417.087L678.726 435.024L696.398 462.13L707.06 478.146C707.202 478.36 707.36 478.562 707.534 478.752L710.04 481.49C710.884 482.412 711.352 483.616 711.352 484.866V487.15C711.352 488.261 711.721 489.34 712.403 490.217L713.913 492.163Z" fill="url(#paint25_linear_31_17)" fill-opacity="0.7"/>
<path d="M362.436 488.493C361.481 463.591 367.09 447.977 376.448 442.873C378.067 441.99 380.378 442.568 380.234 444.407C380.106 446.038 379.027 448.265 376.936 451.733C373.307 459.034 371.644 463.955 369.74 474.817C369.704 475.02 369.684 475.281 369.682 475.487V475.487C369.645 479.65 373.783 479.21 374.293 475.078C375.067 468.821 376.307 462.755 378.755 454.985C379.042 454.073 379.595 453.268 380.335 452.661L383.918 449.725C385.618 448.332 385.997 445.883 384.799 444.041V444.041C383.874 442.621 383.884 440.8 384.741 439.337C386.114 436.991 386.917 435.181 387.569 433.092C388.058 431.527 389.193 430.25 390.681 429.562C393.929 428.06 395.713 426.488 397.991 423.802C398.153 423.611 398.299 423.405 398.431 423.193C402.363 416.849 406.677 413.329 414.999 407.177C425.539 400.046 432.067 396.879 444.447 392.845C444.75 392.746 445.066 392.676 445.382 392.637L463.032 390.468C472.821 389.647 477.813 389.7 486.142 390.468C498.033 391.374 502.785 393.399 508.487 398.334C508.995 398.773 509.399 399.321 509.685 399.929L510.905 402.529C511.305 403.382 511.941 404.105 512.732 404.618C518.601 408.426 521.642 410.761 524.133 413.737C524.792 414.524 525.635 415.145 526.611 415.465L534.795 418.148C535.861 418.497 536.778 419.195 537.4 420.128L540.947 425.457C541.551 426.365 541.842 427.445 541.776 428.533L540.972 441.708L538.819 459.703C538.744 460.325 538.554 460.928 538.257 461.479L532.668 471.859C532.174 472.776 531.407 473.516 530.472 473.976L517.885 480.164C516.708 480.742 515.352 480.836 514.108 480.424L493.653 473.655C492.886 473.402 492.19 472.966 491.633 472.382C484.477 464.882 482.341 461.162 483.974 458.533C484.936 456.984 487.129 457.116 488.717 458.011L507.433 468.554C507.739 468.726 508.062 468.866 508.397 468.971L515.213 471.098C516.607 471.533 518.121 471.338 519.358 470.562L523.244 468.127C524.434 467.382 525.243 466.166 525.538 464.793C526.432 460.622 527.541 457.865 530.002 454.915C531.12 453.573 531.618 451.816 531.344 450.091C531.001 447.932 531.02 446.237 531.333 444.352C531.61 442.686 531.222 440.957 530.082 439.711L526.207 435.479C525.495 434.701 524.556 434.168 523.523 433.956L517.187 432.658C516.439 432.505 515.735 432.182 515.131 431.714L507.893 426.113C503.719 422.23 500.509 421.249 495.844 420.795C493.818 420.598 492.166 419.184 490.882 417.604C489.028 415.322 486.043 413.814 481.881 411.863C480.561 411.244 479.033 411.234 477.704 411.833L471.073 414.822C470.848 414.923 470.616 415.008 470.379 415.075L463.606 416.988C461.407 417.61 461.071 420.586 463.077 421.682V421.682C463.888 422.125 464.879 422.09 465.667 421.606C474.863 415.943 479.648 414.586 482.972 419.749C483.966 421.293 485.472 422.502 487.293 422.735C495.605 423.796 500.28 425.601 506.533 430.569C511.762 434.218 514.88 436.379 522.025 440.903C522.835 441.416 523.397 442.245 523.567 443.188V443.188C524.119 446.241 520.643 448.39 518.159 446.531L514.69 443.936C508.887 438.489 504.251 435.894 492.486 432.425C483.776 429.62 479.106 429.164 471.579 430.423C471.021 430.516 470.481 430.711 469.991 430.996C461.052 436.196 458.865 440.054 456.359 446.936C456.277 447.162 456.178 447.384 456.065 447.596L450.48 458.056C450.094 458.78 449.891 459.589 449.891 460.411V470.122C449.891 470.486 449.931 470.849 450.01 471.205L454.345 490.743C454.397 490.975 454.465 491.204 454.549 491.426L460.065 506.03C460.23 506.466 460.454 506.878 460.735 507.249C463.807 511.323 466.082 513.62 471.944 514.868C473.197 515.135 474.34 515.798 475.143 516.796C480.156 523.027 484.278 526.387 491.987 531.25C492.316 531.458 492.673 531.627 493.042 531.752L512.931 538.484C513.197 538.574 513.47 538.641 513.747 538.685L545.201 543.697C545.702 543.777 546.218 543.779 546.719 543.705C562.035 541.426 569.309 539.364 579.035 534.163C588.397 527.895 591.772 522.953 595.348 512.256L605.94 479.71C606.128 479.134 606.209 478.525 606.179 477.919C605.523 464.373 604.978 456.386 602.271 442.355C602.189 441.929 602.159 441.488 602.193 441.055C602.28 439.919 602.387 438.91 602.518 437.998C603.103 433.898 608.082 434.389 609.371 438.324L611.208 443.936C613.17 452.883 613.93 457.691 613.927 465.472C616.122 481.741 614.473 489.752 608.422 502.187C608.169 502.706 608.004 503.268 607.933 503.84C606.974 511.546 605.321 515.822 602.33 522.955C602.208 523.246 602.057 523.528 601.882 523.791L589.46 542.452C588.87 543.339 588.008 544.018 587.003 544.372C576.42 548.098 570.467 548.709 561.655 547.352C560.868 547.231 560.059 547.287 559.3 547.525C545.283 551.922 536.487 553.249 516.502 545.674L475.149 533.057C474.335 532.808 473.598 532.356 473.007 531.744L460.868 519.144C460.5 518.763 460.072 518.444 459.609 518.187C453.645 514.874 450.869 511.142 448.079 500.003C446.622 494.529 445.375 491.058 442.136 485.188C441.59 484.2 441.375 483.055 441.552 481.941C443.01 472.755 444.164 466.777 442.129 457.929C441.676 455.962 442.337 453.909 443.793 452.512C446.698 449.725 447.823 447.439 448.064 444.43C448.2 442.738 448.92 441.119 450.265 440.083C451.525 439.112 452.52 438.267 453.273 437.508C455.426 435.336 452.452 434.348 450.262 436.484L444.907 441.708C440.337 446.632 438.381 450.147 437.277 458.575C437.227 458.961 437.132 459.35 436.998 459.715C431.288 475.236 430.627 483.873 439.14 495.116C440.382 496.755 440.437 498.936 440.139 500.971C439.626 504.469 441.996 507.326 447.217 511.565C447.781 512.022 448.247 512.592 448.573 513.24L453.421 522.887C454.058 524.156 455.211 525.079 456.564 525.508C462.435 527.365 464.766 529.41 467.122 532.815C467.72 533.68 468.543 534.37 469.522 534.755L500.584 546.958C500.924 547.092 501.285 547.189 501.647 547.246C516.56 549.6 522.262 551.417 526.892 554.66C527.813 555.305 528.896 555.699 530.022 555.699H542.784L573.757 552.839C574.546 552.767 575.304 552.502 575.984 552.095C580.126 549.614 583.235 548.744 587.593 549.125C590.003 549.336 592.3 548.084 593.438 545.949C594.882 543.242 596.596 541.388 599.638 539.776C601.157 538.971 602.313 537.589 602.672 535.909C604.203 528.749 606.193 525.326 609.744 521.551C610.661 520.576 611.201 519.291 611.217 517.952C611.301 510.819 611.942 506.524 613.286 503.659C614.794 500.444 618.877 502.38 619.26 505.91L620.207 514.638C620.249 515.029 620.246 515.424 620.195 515.814L618.668 527.702C618.532 528.764 618.048 529.745 617.345 530.552C614.386 533.95 613.018 537.065 611.551 542.51C611.321 543.364 610.878 544.148 610.265 544.786C606.884 548.308 605.244 550.599 603.413 553.588C602.602 554.911 601.24 555.802 599.703 556.017C592.176 557.074 587.461 558.514 580.68 561.617C579.615 562.104 578.415 562.214 577.274 561.95C567.016 559.578 557.271 559.941 537.578 562.3C537.129 562.354 536.663 562.348 536.216 562.279C524.477 560.486 517.488 559.125 504.593 554.145C504.08 553.947 503.533 553.833 502.984 553.8C498.945 553.56 496.535 552.853 493.482 550.547C492.817 550.045 492.056 549.679 491.241 549.504C487.026 548.598 484.008 547.445 478.198 543.945C478.058 543.861 477.906 543.794 477.75 543.748V543.748C475.582 543.11 473.579 547.387 474.896 549.225V549.225C475.169 549.604 475.52 549.819 475.972 549.935C481.178 551.265 483.433 552.444 485.3 554.276C486.184 555.144 487.278 555.794 488.504 555.973C505.339 558.429 512.686 560.699 524.315 564.707C524.841 564.888 525.396 564.982 525.951 564.982H542.784C557.035 564.617 565.245 564.672 569.661 565.617C572.161 566.153 572.188 568.985 569.877 570.079C565.131 572.325 558.515 572.358 545.956 570.923H519.372C518.971 570.923 518.563 570.873 518.174 570.777C491.901 564.307 480.393 559.482 463.488 550.014C463.187 549.845 462.901 549.644 462.642 549.417L457.374 544.813C456.631 544.164 456.097 543.309 455.839 542.357L454.88 538.821C454.584 537.729 453.921 536.77 453.017 536.09C445.121 530.151 440.874 525.538 435.684 515.079C435.49 514.687 435.244 514.317 434.96 513.986C430.363 508.629 428.631 505.167 427.687 498.518C427.66 490.997 427.445 486.163 423.867 471.704C423.699 471.026 423.67 470.311 423.794 469.623C426.008 457.331 428.256 452.617 431.992 444.433C432.142 444.104 432.328 443.79 432.545 443.501L439.469 434.282L446.082 427.45C446.782 426.727 445.927 425.581 445.034 426.047V426.047C444.95 426.091 444.873 426.148 444.807 426.217L428.246 443.358C427.876 443.741 427.567 444.186 427.336 444.665C420.158 459.568 416.348 468.235 418.128 476.888C418.389 478.153 418.275 479.472 417.762 480.657C416.069 484.574 416.066 487.469 418.302 492.274C418.511 492.722 418.664 493.198 418.746 493.685C420.214 502.328 422.406 506.861 427.403 514.075C427.591 514.346 427.755 514.639 427.886 514.941C431.405 523.062 432.593 527.385 448.079 540.847C455.938 546.661 460.117 550.29 464.274 556.131C465.226 557.468 466.737 558.266 468.365 558.477C470.709 558.78 472.382 559.525 474.236 561.308C474.936 561.981 475.769 562.517 476.706 562.77C492.13 566.939 499.674 569.365 506.075 572.993C506.68 573.335 507.343 573.565 508.033 573.649L530.831 576.416C531.246 576.467 531.672 576.464 532.087 576.41C546.263 574.577 553.488 574.259 561.153 576.09C562.178 576.334 563.253 576.293 564.239 575.923L573.202 572.556C573.465 572.458 573.723 572.335 573.966 572.194C585.245 565.648 592.787 562.646 605.993 558.555C607.294 558.152 608.381 557.235 609.009 556.025C612.257 549.77 614.674 546.147 618.898 542.392C619.77 541.617 620.391 540.591 620.609 539.444L622.537 529.336C624.468 520.579 625.308 514.959 624.349 503.716C624.532 499.084 623.828 496.418 621.618 493.019C620.806 491.771 620.495 490.257 620.781 488.796C622.29 481.081 621.368 474.983 619.84 464.873V464.873C619.829 464.803 619.892 464.743 619.962 464.757C623.706 465.498 625.566 466.785 627.543 470.857C627.838 471.463 627.979 472.133 627.994 472.807C628.167 480.737 628.742 485.463 630.603 493.314C630.662 493.563 630.743 493.813 630.839 494.05C633.734 501.211 634.364 505.523 633.389 511.733C633.152 513.241 633.533 514.792 634.518 515.958L635.529 517.155C636.485 518.286 636.89 519.788 636.632 521.246C633.442 539.233 630.967 548.892 623.052 556.338C622.714 556.656 622.412 557.015 622.161 557.405C617.425 564.742 612.863 567.356 604.037 570.721C603.685 570.855 603.317 570.948 602.945 570.999L592.629 572.408C588.307 573.536 586.453 574.651 584.425 576.415C583.561 577.167 582.486 577.649 581.343 577.731C569.076 578.622 561.742 579.64 549.876 582.267C549.383 582.376 548.868 582.411 548.365 582.37C535.507 581.319 527.79 581.013 514.66 581.29C513.789 581.308 512.926 581.098 512.156 580.691C503.755 576.255 497.732 574.426 484.783 573.522C474.867 571.966 469.831 570.157 465.104 562.795C464.625 562.049 463.982 561.412 463.204 560.985C452.871 555.316 446.65 552.636 436.096 541.591C435.632 541.105 435.07 540.713 434.465 540.421C430.913 538.71 429.542 537.014 429.16 534.247C428.93 532.585 428.208 530.998 426.873 529.981C421.043 525.538 418.624 521.876 415.313 515.804C415.105 515.422 414.949 515.011 414.844 514.588C413.461 509.025 411.881 505.472 408.465 499.714C408 498.93 407.749 498.036 407.749 497.125V471.427C407.749 470.925 407.825 470.426 407.973 469.947L414.738 448.121C414.911 447.563 415.18 447.04 415.534 446.575L431.579 425.469C432.001 424.914 432.534 424.454 433.144 424.117L450.742 414.406C452.141 413.634 451.947 411.563 450.427 411.065V411.065C450.078 410.951 449.699 410.944 449.347 411.049C440.896 413.544 436.61 416.062 430.406 422.4C422.176 429.093 418.174 433.317 412.27 441.121C411.977 441.509 411.74 441.944 411.572 442.4C407.044 454.69 404.618 461.484 400.621 472.92C400.541 473.15 400.475 473.392 400.43 473.632C398.988 481.29 399.111 485.859 401.645 493.775C401.784 494.211 401.868 494.669 401.892 495.127C402.415 505.148 404.731 511.106 409.246 521.205C409.454 521.671 409.734 522.104 410.073 522.485L429.047 543.817L434.939 549.335C435.239 549.616 435.573 549.859 435.932 550.058L450.456 558.109C450.683 558.235 450.894 558.386 451.086 558.561V558.561C453.771 561.006 451.22 565.264 447.839 563.938C435.623 559.145 426.597 554.301 414.999 545.674C407.744 539.061 404.827 535.479 403.936 531.219C403.685 530.019 403.177 528.868 402.306 528.006C390.862 516.683 387.866 509.045 386.966 495.428C386.923 494.774 387.018 494.114 387.226 493.493C389.917 485.488 390.416 480.421 389.749 472.12C389.673 471.174 389.86 470.224 390.27 469.369C393.076 463.513 393.829 458.937 393.754 451.357C393.738 449.731 394.487 448.194 395.758 447.178C400.272 443.566 402.867 440.416 405.299 434.151C405.728 433.045 406.502 432.102 407.519 431.491C412.38 428.574 415.548 426.148 420.623 420.825C420.8 420.639 420.995 420.463 421.198 420.306C428.011 415.042 431.407 412.647 437.203 408.662C442.829 405.342 449.08 404.103 462.048 402.472C462.695 402.391 463.356 402.438 463.985 402.61L467.059 403.449C467.98 403.701 468.954 403.683 469.866 403.399L476.048 401.469C477.291 401.081 478.637 401.197 479.802 401.777C489.443 406.575 495.694 408.929 505.753 410.561C507.116 410.783 508.339 411.535 509.143 412.658C514.193 419.703 517.741 423.455 522.961 428.502C524.163 429.665 526.067 429.674 527.287 428.532V428.532C527.923 427.936 528.284 427.104 528.284 426.233V425.637C528.284 424.292 527.686 423.016 526.65 422.159C518.656 415.544 513.369 411.373 504.828 404.634L504.662 404.504C504.104 404.063 503.457 403.746 502.766 403.575L481.035 398.2C480.223 397.999 479.375 398.005 478.566 398.217L470.391 400.36C469.157 400.684 467.846 400.524 466.726 399.912L465.366 399.169C463.907 398.372 462.147 398.352 460.671 399.116L455.875 401.598C454.931 402.086 453.856 402.261 452.806 402.097L446.228 401.071C445.362 400.935 444.476 401.03 443.658 401.346L437.203 403.835C426.988 409.049 422.354 412.57 417.678 419.269C417.103 420.092 416.316 420.747 415.387 421.127L410.459 423.147C409.866 423.389 409.323 423.745 408.867 424.194C400.219 432.695 396.267 438.272 390.255 447.763C389.84 448.42 389.585 449.17 389.503 449.942C387.82 465.914 384.629 475.469 379.673 491.427C379.366 492.416 379.378 493.477 379.69 494.465C381.298 499.554 381.973 502.981 381.18 508.582C381.08 509.291 381.109 510.017 381.302 510.706C384.083 520.639 386.695 524.229 391.172 526.428C392.704 527.18 393.9 528.498 394.413 530.126C395.839 534.652 398.018 537.757 401.213 540.71C404.154 543.427 403.143 548.474 399.22 549.277V549.277C397.751 549.579 396.222 549.138 395.144 548.095C374.721 528.329 366.378 515.336 362.436 488.493Z" fill="url(#paint26_linear_31_17)" fill-opacity="0.7"/>
<path d="M200.953 449.705C198.579 451.253 195.386 450.026 194.659 447.286V447.286C194.189 445.516 194.932 443.648 196.488 442.683L210.634 433.911L262.292 403.092L293.559 381.556L352.141 351.647C352.358 351.536 352.582 351.441 352.813 351.363L411.177 331.632C413.627 330.804 415.945 333.18 415.056 335.608V335.608C414.734 336.488 414.029 337.173 413.141 337.47L382.374 347.767L339.445 361.325C339.065 361.445 338.7 361.61 338.359 361.817L308.141 380.134C307.081 380.776 307.093 382.317 308.162 382.943V382.943C308.66 383.234 309.275 383.242 309.78 382.962L343.071 364.54C343.591 364.252 344.158 364.06 344.745 363.971L353.865 362.594C356.186 362.244 357.621 365.045 355.982 366.724V366.724C355.755 366.956 355.485 367.141 355.186 367.267L318.24 382.939C317.562 383.226 317.122 383.891 317.122 384.627V384.627C317.122 385.967 318.511 386.854 319.726 386.292L349.652 372.445C351.678 371.507 353.768 373.617 352.81 375.634V375.634C352.587 376.104 352.217 376.488 351.755 376.728L293.838 406.832C292.663 407.443 292.165 408.863 292.703 410.074V410.074C293.197 411.189 292.818 412.499 291.805 413.177L249.151 441.708L229.086 455.592C228.869 455.742 228.64 455.875 228.402 455.989L207.731 465.896C206.025 466.714 203.976 466.133 202.953 464.541V464.541C201.59 462.419 202.667 459.584 205.095 458.901L215.401 456.006C215.846 455.881 216.272 455.695 216.666 455.452L255.948 431.311V431.311C258.16 429.566 255.848 426.151 253.406 427.557L246.885 431.311L218.622 450.852C218.142 451.184 217.572 451.362 216.988 451.362V451.362C214.227 451.362 213.055 447.847 215.264 446.19L235.104 431.311L280.418 405.32L301.557 394.322C304.284 392.903 303.928 388.895 300.994 387.979V387.979C300.016 387.674 298.952 387.82 298.092 388.378L275.433 403.092L238.276 425.37L200.953 449.705Z" fill="url(#paint27_linear_31_17)" fill-opacity="0.7"/>
<path d="M218.55 476.91C217.049 477.838 215.133 477.788 213.703 476.754V476.754C211.187 474.935 211.366 471.128 214.04 469.55C227.182 461.793 235.99 456.693 245.94 453.175C246.563 452.955 247.146 452.617 247.641 452.18C264.134 437.646 273.89 430.261 291.253 419.728C291.578 419.531 291.887 419.292 292.16 419.028C303.756 407.796 311.17 402.857 325.125 397.895C325.82 397.648 326.471 397.239 327.003 396.729C341.953 382.377 343.157 389.595 357.573 374.789C358.647 373.686 360.164 373.152 361.701 373.056C365.926 372.791 369.885 370.71 376.652 366.095C377.14 365.762 377.689 365.514 378.261 365.368C398.928 360.087 410.114 356.748 427.416 350.267C427.893 350.088 428.403 349.981 428.911 349.952C440.287 349.306 446.787 348.367 457.013 345.465C457.695 345.271 458.412 345.221 459.114 345.32C470.387 346.912 477.239 347.482 489.813 347.75C490.38 347.762 490.946 347.87 491.477 348.067C500.265 351.313 505.81 352.464 514.935 353.53C515.953 353.649 516.912 354.077 517.696 354.738C520.84 357.388 523.384 358.965 528.377 360.835C528.892 361.028 529.309 361.425 529.516 361.935V361.935C530.123 363.428 528.751 364.966 527.202 364.521C516.932 361.572 512.309 359.677 508.366 356.967C507.749 356.543 507.053 356.233 506.317 356.096C489.266 352.905 479.401 352.26 462.126 352.223C434.312 355.038 424.589 358.488 410.249 365.265C409.796 365.479 409.302 365.627 408.806 365.7C384.043 369.339 370.424 374.793 350.746 390.044C350.387 390.322 349.984 390.557 349.565 390.731C336.575 396.126 329.438 400.559 317.968 409.832C317.411 410.282 316.762 410.61 316.072 410.799C307.064 413.266 301.909 416.297 294.109 426.154C293.745 426.614 293.297 427.019 292.8 427.33C269.66 441.823 257.268 451.549 235.848 468.593C235.36 468.981 234.796 469.278 234.203 469.468C228.333 471.346 224.403 473.288 218.55 476.91Z" fill="url(#paint28_linear_31_17)" fill-opacity="0.7"/>
<path d="M233.066 487.563C231.326 488.989 228.846 489.077 227.009 487.777L226.371 487.325C223.433 485.246 223.652 480.807 227.181 480.102C227.518 480.035 227.865 479.972 228.224 479.913C229.705 479.668 231.007 478.822 231.908 477.622C233.833 475.061 235.93 473.495 240.052 471.791C240.671 471.535 241.25 471.162 241.732 470.697C260.819 452.281 270.649 450.375 294.949 429.813C295.225 429.58 295.532 429.369 295.851 429.2L302.275 425.794C302.804 425.514 303.279 425.138 303.68 424.693C311.799 415.667 317.476 412.191 328.137 409.35C328.935 409.137 329.677 408.739 330.288 408.184C341.591 397.939 349.483 392.666 363.205 383.794C363.593 383.543 364.025 383.343 364.467 383.206C377.639 379.143 383.163 376.305 390.942 371.119C391.269 370.901 391.626 370.717 391.996 370.584C396.092 369.104 398.48 368.696 399.83 369.403C401.951 370.514 399.687 373.351 397.489 374.302C395.478 375.173 393.88 376.32 392.072 378.164C391.347 378.904 390.438 379.446 389.432 379.697C383.002 381.297 378.674 383.352 371.39 387.31C371.162 387.433 370.941 387.577 370.735 387.735C366.898 390.658 364.241 392.292 359.05 393.676C357.746 394.024 356.601 394.831 355.898 395.983L353.256 400.312C352.741 401.156 351.983 401.825 351.095 402.26C342.366 406.535 337.099 411.417 328.818 418.97C327.724 419.968 327.189 421.404 327.063 422.879C326.816 425.774 325.592 427.482 321.971 428.796C320.637 429.281 319.495 430.191 318.78 431.417C317.209 434.109 315.571 435.837 312.384 437.559C311.363 438.111 310.512 438.945 309.993 439.983C307.056 445.854 304.303 449.248 298.09 454.332C291.838 458.631 289.146 461.814 286.226 467.522C285.682 468.587 284.783 469.417 283.73 469.984C281.698 471.078 280.373 472.402 278.876 475.326C278.693 475.683 278.475 476.024 278.218 476.333L272.829 482.81C272.165 483.608 271.766 484.593 271.687 485.628L271.49 488.21C271.402 489.354 270.915 490.426 270.159 491.288C267.238 494.62 265.818 497.348 264.903 501.038C264.375 503.166 262.181 504.501 260.121 503.751V503.751C258.001 502.978 257.284 500.438 257.931 498.276C258.374 496.797 258.482 495.266 258.372 493.336C258.302 492.127 258.598 490.917 259.295 489.927L284.906 453.552C285.234 453.086 285.64 452.679 286.106 452.349L294.581 446.352C295.103 445.982 295.549 445.513 295.9 444.978C302.307 435.206 307.309 430.79 316.671 424.202C316.966 423.994 317.219 423.726 317.407 423.418L318.64 421.397C319.166 420.535 318.546 419.43 317.536 419.43V419.43C317.267 419.43 317.004 419.514 316.785 419.67L303.386 429.232C303.179 429.381 302.983 429.544 302.8 429.722L277.225 454.653C276.938 454.933 276.618 455.178 276.272 455.381L262.625 463.419C262.403 463.549 262.192 463.697 261.993 463.86L233.066 487.563Z" fill="url(#paint29_linear_31_17)" fill-opacity="0.7"/>
<path d="M250.502 480.517C250.208 480.879 249.864 481.202 249.482 481.471L239.713 488.332C237.202 490.095 237.459 493.893 240.184 495.303V495.303C241.749 496.114 243.658 495.825 244.923 494.597C250.647 489.037 254.544 485.536 260.575 481.828C261.395 481.324 262.065 480.605 262.511 479.752C265.968 473.15 269.435 468.9 274.525 463.116C276.294 461.107 275.739 457.115 273.483 458.556C273.103 458.798 272.702 459.124 272.261 459.531C262.951 466.627 258.034 471.239 250.502 480.517Z" fill="url(#paint30_linear_31_17)" fill-opacity="0.7"/>
<path d="M280.772 502.828C280.561 505.756 278.113 508.15 275.207 507.736V507.736C272.616 507.367 270.844 504.903 271.433 502.353C273.29 494.312 275.636 488.679 280.233 479.932C280.355 479.701 280.496 479.476 280.653 479.266L289.027 468.071C289.879 467.076 290.601 466.369 291.38 465.977C293.523 464.898 296.302 464.748 297.695 462.794C301.512 457.439 304.694 454.412 309.751 450.636C310.421 450.135 310.963 449.479 311.326 448.725C316.887 437.191 321.652 431.771 331.215 425.212C331.78 424.825 332.265 424.328 332.639 423.754C338.788 414.317 344.009 409.427 354.846 401.844C355.069 401.688 355.313 401.546 355.559 401.428C365.738 396.544 370.163 393.479 375.742 388.204C376.232 387.741 376.813 387.372 377.443 387.132C392.476 381.39 400.754 377.29 413.678 368.764C414.249 368.387 414.901 368.129 415.572 367.995C428.828 365.353 429.487 359.859 447.144 360.36C447.753 360.378 448.385 360.287 448.964 360.099C462.717 355.655 464.537 359.821 478.169 358.151C479.499 357.988 480.704 359.006 480.704 360.345V360.345C480.704 361.435 479.898 362.361 478.816 362.491C473.034 363.187 469.146 363.187 463.692 362.468C462.673 362.333 461.635 362.505 460.701 362.937C455.466 365.36 451.55 365.91 445.051 365.659C444.07 365.622 443.1 365.864 442.237 366.331C438.146 368.543 434.577 369.493 428.141 370.788C421.977 372.567 418.567 374.278 413.401 378.417C412.665 379.006 411.78 379.373 410.861 379.584C403.941 381.173 398.162 387.448 392.264 389.739C390.678 390.355 388.881 392.127 388.595 393.805V393.805C388.089 396.781 391.765 396.84 394.143 394.98C399.848 390.517 404.48 387.585 411.741 383.701C412.098 383.51 412.48 383.364 412.871 383.26C417.385 382.057 419.543 380.67 422.134 378.134C422.811 377.47 423.646 376.982 424.568 376.757C438.656 373.321 444.655 371.505 454.908 368.45C455.485 368.278 456.093 368.211 456.693 368.253C469.821 369.158 477.354 369.204 489.426 368.286C490.245 368.224 491.069 368.363 491.823 368.687C501.269 372.75 507.256 374.627 517.505 376.502C518.332 376.653 519.113 377.008 519.771 377.532C525.783 382.319 529.923 385.132 537.542 388.47C538.852 389.043 539.863 390.135 540.399 391.46C544.559 401.739 551.028 405.736 552.753 414.603C555.29 427.672 556.113 435.947 556.795 451.278C556.819 451.822 556.753 452.376 556.6 452.899C553.219 464.433 550.794 470.126 545.984 472.802C544.85 473.433 543.835 474.301 543.238 475.453C539.55 482.559 536.238 485.578 530.572 489.128C529.711 489.668 528.637 489.734 527.708 489.324V489.324C525.64 488.411 525.206 485.67 526.87 484.14C533.536 478.006 538.171 473.068 544.685 463.316C545.497 462.099 545.685 460.587 545.355 459.162C544.7 456.332 544.774 454.091 546.634 450.679C547.059 449.9 547.327 449.035 547.344 448.148C547.5 440.063 547.388 435.349 546.075 429.253C545.998 428.894 545.956 428.527 545.956 428.159V416.082C545.956 415.117 545.679 414.168 545.147 413.363C543.289 410.551 541.726 408.559 538.094 406.284C536.409 405.228 533.99 405.883 533.328 407.758V407.758C532.288 410.703 529.518 413.209 526.763 411.739C524.531 410.548 522.578 409.179 520.398 407.221C519.34 406.272 518.943 404.846 518.565 403.476C518.283 402.449 517.705 401.559 516.752 400.416C516.587 400.219 516.403 400.036 516.208 399.87C509.994 394.588 505.249 392.066 495.633 388.403C495.351 388.295 495.052 388.212 494.754 388.158C481.654 385.781 473.34 385.208 458.457 385.263C457.596 385.266 456.751 385.501 455.99 385.905C451.863 388.093 448.55 388.832 442.777 389.278C442.091 389.331 441.42 389.517 440.81 389.835L418.171 401.607L396.874 416.83C388.965 424.239 384.759 428.69 379.352 437.053C378.953 437.671 378.424 438.198 377.808 438.6C367.521 445.307 363.524 451.128 360.1 463.329C359.844 464.241 359.337 465.063 358.675 465.74C352.922 471.622 352.518 477.564 353.317 488.489C353.353 488.981 353.466 489.468 353.637 489.931C354.602 492.541 354.963 494.389 355.103 496.611C355.206 498.266 356.073 499.746 357.28 500.883C359.114 502.612 359.58 504.28 359.687 506.599C359.735 507.621 360.044 508.615 360.588 509.482C362.599 512.686 363.044 514.922 362.695 517.959C362.567 519.08 362.724 520.225 363.266 521.215C367.135 528.275 370.122 532.49 377.114 538.745C377.295 538.907 377.468 539.087 377.622 539.275C378.092 539.848 378.546 540.39 378.988 540.904C381.707 544.067 379.155 549.875 375.028 549.268V549.268C373.933 549.107 372.951 548.495 372.319 547.586C365.944 538.417 361.8 532.886 354.915 525.121C353.941 524.023 353.547 522.557 353.549 521.089C353.552 518.766 352.884 517.164 351.223 515.819C348.997 514.016 348.328 510.967 347.322 508.284C347.14 507.796 346.855 507.356 346.476 506.943C344.532 504.824 343.777 501.946 343.508 499.083C343.44 498.361 343.233 497.644 342.901 496.872C342.418 495.747 342.191 494.516 342.436 493.316C344.155 484.918 344.539 479.481 344.357 471.039C344.332 469.843 344.733 468.676 345.465 467.729C349.238 462.847 350.763 459.433 350.538 454.715C350.45 452.87 351.129 451.041 352.55 449.86C356.67 446.437 358.897 443.692 361.284 439.313C361.749 438.459 362.437 437.743 363.276 437.25C370.006 433.295 373.162 430.111 376.782 424.159C377.186 423.495 377.731 422.923 378.379 422.495C386.829 416.92 390.873 412.972 396.147 405.928C396.627 405.288 397.25 404.764 397.965 404.407C407.599 399.613 413.072 396.357 419.345 389.467C420.062 388.679 421 388.116 422.038 387.876C428.63 386.346 432.686 385.007 438.152 381.941C439.015 381.457 439.998 381.219 440.987 381.268C449.405 381.685 454.216 381.183 461.678 379.434C461.974 379.365 462.285 379.32 462.589 379.305C485.366 378.17 496.755 379.021 510.612 386.755C517.018 390.434 520.741 392.698 525.916 398.888C526.507 399.595 527.514 399.8 528.322 399.358V399.358C529.557 398.684 529.651 396.945 528.503 396.132C519.972 390.095 514.72 386.056 508.827 379.732C507.929 378.769 506.7 378.174 505.386 378.082C498.137 377.574 493.397 376.757 486.013 374.51C485.207 374.265 484.349 374.222 483.52 374.376C478.788 375.258 475.677 375.331 470.899 374.359C470.193 374.215 469.463 374.21 468.757 374.356C461.968 375.752 457.337 376.091 448.725 375.65C448.298 375.628 447.864 375.659 447.444 375.746C437.974 377.696 432.39 379.08 422.826 383.166C422.445 383.328 422.081 383.543 421.752 383.795C411.423 391.725 405.07 396.333 392.796 404.577C387.571 407.773 385.037 410.108 381.894 415.038C381.609 415.485 381.261 415.89 380.855 416.231L364.108 430.306C363.9 430.481 363.705 430.674 363.528 430.881C358.182 437.123 354.78 441.331 348.757 449.384C348.513 449.709 348.307 450.071 348.149 450.445C342.454 463.985 339.095 471.691 332.799 484.101C332.33 485.025 332.155 486.076 332.307 487.101C333.718 496.644 334.86 502.499 338.769 509.722C339.395 510.88 339.548 512.222 339.354 513.524C339.14 514.955 339.21 516.164 339.7 517.554C340.194 518.957 341.53 519.842 342.992 520.118L343.701 520.253C345.477 520.588 346.912 521.865 347.587 523.542C349.803 529.051 352.869 533.639 358.682 541.418C358.766 541.53 358.867 541.632 358.978 541.717V541.717C360.297 542.721 359.267 544.808 357.668 544.372L349.027 542.011C348.053 541.745 347.29 541.022 346.785 540.148C345.807 538.456 344.469 537.34 342.138 536.045C341.205 535.528 340.435 534.758 339.927 533.819C338.297 530.807 336.675 528.681 333.404 525.692C332.555 524.917 331.985 523.886 331.729 522.765C331.089 519.959 330.162 517.924 328.477 515.367C327.632 514.086 327.338 512.509 327.762 511.034L328.313 509.115C328.69 507.801 328.562 506.348 327.675 505.308C327.075 504.607 326.387 503.986 325.509 503.313C324.256 502.354 323.419 500.928 323.37 499.351C323.079 490.031 323.69 484.044 325.604 474.287C325.688 473.86 325.828 473.442 326.022 473.052C328.507 468.054 330.415 464.979 334.139 461.606C335.593 460.288 336.053 458.284 336.318 456.338C336.447 455.391 336.807 454.601 337.296 453.64C337.439 453.359 337.611 453.094 337.805 452.845C340.345 449.589 341.747 447.543 343.37 444.809C343.794 444.093 343.273 443.193 342.441 443.193V443.193C342.185 443.193 341.936 443.284 341.743 443.451C339.321 445.544 337.947 447.299 336.781 450.131C336.024 451.968 334.215 453.045 332.646 454.263C331.746 454.963 331.032 456.111 330.263 458.045C326.918 465.953 324.021 469.97 317.737 476.022C317.331 476.413 316.987 476.867 316.74 477.374C315.83 479.245 315.329 480.695 315.19 482.331C315.025 484.274 314.091 486.062 312.907 487.612C310.81 490.36 311.711 493.883 313.784 499.55C313.893 499.85 314.035 500.143 314.199 500.416C317.009 505.091 318.733 508.586 319.984 512.302C321.22 515.971 317.505 519.137 313.863 517.824L313.425 517.666C311.781 517.074 310.574 515.662 310.198 513.956C309.032 508.677 307.855 505.096 305.591 501.556C304.273 499.495 304.399 496.851 305.448 494.641C308.502 488.206 302.849 484.292 310.778 470.299C322.17 450.193 328.901 451.611 339.575 434.944C340.297 433.817 341.419 432.997 342.721 432.689C348.283 431.372 351.889 430.39 354.704 428.074C355.344 427.548 356.054 427.103 356.847 426.867L357.869 426.562C359.574 426.054 360.89 424.598 361.346 422.879V422.879C361.746 421.373 362.839 420.217 364.257 419.574C368.4 417.693 370.013 416.2 372.052 413.891C372.287 413.625 372.549 413.382 372.832 413.168C375.63 411.059 377.395 409.501 378.73 407.358C379.479 406.157 378.425 404.75 377.017 404.894V404.894C376.668 404.93 376.334 405.062 376.059 405.281C373.581 407.252 372.413 408.772 371.388 410.916C370.835 412.072 369.937 413.036 368.782 413.59C362.849 416.436 359.325 418.984 354.336 423.707C353.703 424.307 352.931 424.76 352.074 424.916C350.815 425.145 349.721 425.163 348.56 424.831C345.932 424.082 342.929 424.11 341.206 426.23C330.535 439.36 323.361 447.634 309.759 458.538C308.952 459.185 308.342 460.061 308.094 461.066C307.468 463.598 307.367 465.517 307.874 467.924C308.194 469.441 307.991 471.043 307.107 472.316C301.026 481.067 297.335 487.078 299.123 501.905C299.463 504.727 297.557 507.378 294.741 507.763L291.845 508.158C290.098 508.397 288.301 507.73 287.369 506.233C286.279 504.483 285.853 503.081 285.58 501.337C285.444 500.466 285.588 499.576 285.935 498.766C288.171 493.532 289.822 489.175 291.498 483.571C292.747 479.392 288.764 476.951 287.363 481.082C286.66 483.157 286.079 485.737 285.55 489.032C285.45 489.655 285.236 490.258 284.925 490.808C282.157 495.7 281.041 499.089 280.772 502.828Z" fill="url(#paint31_linear_31_17)" fill-opacity="0.7"/>
<path d="M210.874 344.92C208.541 345.694 206.508 342.847 208.124 340.994V340.994C208.286 340.808 208.475 340.65 208.689 340.528C210.693 339.389 221.789 333.333 233.472 331.95C234.437 331.836 235.355 331.476 236.149 330.917C244.482 325.052 256.527 322.402 263.221 321.32C265.399 320.968 266.951 323.186 265.983 325.168V325.168C265.651 325.849 265.061 326.368 264.343 326.611L244.62 333.287L223.882 342.491C223.215 342.787 222.49 342.925 221.76 342.929C218.235 342.951 215.029 343.544 210.874 344.92Z" fill="url(#paint32_linear_31_17)" fill-opacity="0.7"/>
<path d="M260.791 332.08C260.298 331.9 259.755 331.905 259.259 332.078C250.601 335.087 246.712 332.697 225.135 346.163C204.322 359.153 195.721 359.895 194.101 360.921C193.923 361.034 193.828 361.233 193.749 361.429V361.429C192.885 363.552 194.231 365.924 196.496 366.272L198.71 366.613C199.106 366.673 199.506 366.687 199.902 366.628C202.618 366.223 214.402 363.871 231.026 351.998C242.465 343.829 253.577 339.256 260.623 336.908C262.739 336.203 262.887 332.843 260.791 332.08V332.08Z" fill="url(#paint33_linear_31_17)" fill-opacity="0.7"/>
<path d="M349.184 318.242C350.181 315.205 347.326 312.312 344.274 313.264C283.683 332.169 248.442 346.897 190.358 378.887C189.458 379.383 188.884 380.338 188.884 381.366V381.366C188.884 383.483 191.134 384.857 193.051 383.958C205.565 378.088 218.809 374.338 229.213 369.303C268.361 343.712 317.33 324.769 345.863 320.965C347.4 320.76 348.7 319.715 349.184 318.242V318.242Z" fill="url(#paint34_linear_31_17)" fill-opacity="0.7"/>
<path d="M260.868 361.922C260.351 361.439 259.608 361.285 258.942 361.525L241.907 367.653C241.602 367.763 241.307 367.902 241.029 368.069L223.215 378.75C222.985 378.888 222.742 379.008 222.493 379.107C212.656 383.041 205.524 386.422 191.983 393.637C190.221 394.576 189.455 396.698 190.207 398.547V398.547C191.153 400.873 194.016 401.715 196.071 400.272L201.001 396.809C201.38 396.543 201.803 396.328 202.239 396.175C229.92 386.424 238.399 376.505 251.283 369.303C253.984 367.794 256.879 366.403 260.184 365.159C261.527 364.654 261.915 362.903 260.868 361.922V361.922Z" fill="url(#paint35_linear_31_17)" fill-opacity="0.7"/>
<path d="M202.104 414.326C199.622 415.874 196.347 414.97 195.01 412.369L194.867 412.091C194.23 410.852 194.153 409.37 195.202 408.453C200.473 403.85 219.206 397.282 234.806 386.224C235.005 386.083 235.2 385.919 235.376 385.751C245.49 376.122 243.647 383.575 287.215 360.021C302.181 350.672 311.401 346.209 328.505 339.911C329.064 339.705 329.665 339.598 330.26 339.611C333.65 339.682 335.539 340.059 336.948 340.775C338.59 341.609 340.424 342.211 342.178 341.65C363.675 334.772 376.367 331.867 397.429 329.3C397.957 329.235 398.504 329.243 399.017 329.388C399.651 329.567 400.108 329.784 400.408 330.071C401.748 331.352 399.347 333.091 397.516 333.384C378.715 336.391 367.27 339.287 347.947 346.48C347.641 346.594 347.338 346.742 347.06 346.914C335.437 354.076 328.704 357.516 316.669 362.62C305.766 367.645 299.276 372.217 287.73 381.513C287.39 381.786 287.009 382.019 286.611 382.196C270 389.606 260.327 395.358 243.26 405.32C227.084 416.96 216.408 423.335 198.746 432.797C196.539 433.979 193.868 432.379 193.868 429.876V429.876C193.868 428.902 194.295 427.976 195.041 427.35C206.969 417.349 216.7 411.55 237.37 401.607L278.166 379.933C278.458 379.778 278.734 379.594 278.989 379.385L302.24 360.333C302.493 360.126 302.771 359.95 303.067 359.81V359.81C307.272 357.825 306.324 355.127 302.353 357.548C300.6 358.616 298.738 359.806 296.731 361.134L237.37 392.324L202.104 414.326Z" fill="url(#paint36_linear_31_17)" fill-opacity="0.7"/>
<path d="M507.44 281.675C421.302 263.81 365.943 270.944 259.211 313.438C257.026 314.308 257.269 316.763 259.692 316.893C263.32 317.087 267.514 316.711 273.701 315.885C273.946 315.852 274.192 315.79 274.417 315.704C353.959 285.344 400.197 270.186 505.174 285.388C516.502 287.028 509.252 282.051 507.44 281.675Z" fill="url(#paint37_linear_31_17)" fill-opacity="0.7"/>
<path d="M279.504 299.069C276.739 299.923 274.475 296.77 276.168 294.423V294.423C276.572 293.863 277.156 293.458 277.823 293.277L359.999 270.941C361.721 270.473 362.755 272.791 361.257 273.76V273.76C361.137 273.838 361.007 273.899 360.87 273.941L279.504 299.069Z" fill="url(#paint38_linear_31_17)" fill-opacity="0.7"/>
<path d="M439.934 249.082C439.628 249.028 439.314 249.044 439.015 249.129L433.258 250.758C431.39 251.287 431.939 254.066 433.867 253.846V253.846C433.976 253.833 434.086 253.832 434.195 253.843L445.039 254.868C445.542 254.915 446.048 254.803 446.484 254.548V254.548C448.422 253.414 447.894 250.479 445.683 250.091L439.934 249.082Z" fill="url(#paint39_linear_31_17)" fill-opacity="0.7"/>
<path d="M464.52 250.108C464.436 250.112 464.351 250.125 464.27 250.147V250.147C463.16 250.45 463.159 252.011 464.271 252.304C475.443 255.246 486.389 257.303 508.066 260.765C508.542 260.841 509.038 260.803 509.496 260.653V260.653C512.235 259.755 512.277 255.94 509.528 255.072C495.44 250.626 484.23 249.233 464.52 250.108Z" fill="url(#paint40_linear_31_17)" fill-opacity="0.7"/>
<path d="M675.075 352.594C678.822 352.594 680.707 348.093 678.064 345.436C634.765 301.921 601.262 282.339 537.426 264.051C535.884 263.61 535.026 265.695 536.44 266.451V266.451C602.673 293.402 633.222 311.917 672.027 351.309C672.829 352.124 673.932 352.594 675.075 352.594V352.594Z" fill="url(#paint41_linear_31_17)" fill-opacity="0.7"/>
<path d="M570.466 261.249C570.146 261.011 569.757 260.882 569.357 260.882H566.575C564.383 260.882 564.001 264.012 566.127 264.54V264.54C566.274 264.576 566.424 264.595 566.575 264.595H569.357C571.144 264.595 571.899 262.317 570.466 261.249V261.249Z" fill="url(#paint42_linear_31_17)" fill-opacity="0.7"/>
<path d="M587.797 266.845C587.402 266.588 586.941 266.451 586.47 266.451V266.451C584.073 266.451 583.117 269.548 585.096 270.899L663.27 324.28C665.952 326.111 669.469 323.633 668.647 320.492V320.492C668.426 319.646 667.897 318.913 667.164 318.436L587.797 266.845Z" fill="url(#paint43_linear_31_17)" fill-opacity="0.7"/>
<path d="M691.682 338.876C690.929 338.149 689.922 337.742 688.874 337.742V337.742C685.219 337.742 683.44 342.207 686.094 344.721L717.566 374.532C720.427 377.243 725.027 374.395 723.876 370.625V370.625C723.686 370.002 723.34 369.437 722.871 368.984L691.682 338.876Z" fill="url(#paint44_linear_31_17)" fill-opacity="0.7"/>
<path d="M529.182 290.593C531.003 289.101 530.533 286.198 528.334 285.358L519.197 281.864C516.699 280.908 514.224 283.31 515.105 285.836V285.836C515.416 286.727 516.111 287.432 516.998 287.755L526.189 291.102C527.207 291.473 528.344 291.279 529.182 290.593V290.593Z" fill="url(#paint45_linear_31_17)" fill-opacity="0.7"/>
<path d="M582.367 310.921C583.034 309.938 582.789 308.599 581.812 307.922C569.254 299.223 560.503 295.419 544.685 292.44C542.816 292.088 541.284 293.895 541.91 295.69V295.69C542.174 296.449 542.79 297.034 543.559 297.266C557.412 301.443 565.779 304.895 579.593 311.654C580.571 312.133 581.756 311.822 582.367 310.921V310.921Z" fill="url(#paint46_linear_31_17)" fill-opacity="0.7"/>
<path d="M589.292 316.627C587.83 315.955 587.068 314.317 587.512 312.77V312.77C588.059 310.865 590.181 309.896 591.977 310.735C614.921 321.457 627.205 329.776 643.089 347.401C644.011 348.425 643.93 350 642.917 350.934V350.934C641.912 351.86 640.354 351.821 639.387 350.855C623.321 334.817 611.613 326.89 589.292 316.627Z" fill="url(#paint47_linear_31_17)" fill-opacity="0.7"/>
<path d="M645.19 360.155C643.812 358.572 644.188 356.078 646.014 355.042V355.042C647.382 354.266 649.153 354.61 650.183 355.799C699.555 412.756 680.95 404.74 740.09 466.022C741.048 467.014 741.376 468.524 740.857 469.802V469.802C739.949 472.033 737.086 472.674 735.309 471.047C691.588 431.009 695.714 418.243 645.19 360.155Z" fill="url(#paint48_linear_31_17)" fill-opacity="0.7"/>
<path d="M709.267 413.366C707.696 411.51 704.731 411.896 703.688 414.094V414.094C703.114 415.303 703.316 416.739 704.202 417.743L739.279 457.515C740.504 458.904 742.714 458.748 743.731 457.2V457.2C744.415 456.16 744.332 454.794 743.528 453.844L709.267 413.366Z" fill="url(#paint49_linear_31_17)" fill-opacity="0.7"/>
<path d="M643.157 337.18C643.915 335.314 646.323 334.809 647.767 336.213C671.171 358.972 683.421 374.045 696.594 397.95C698.273 400.996 695.429 404.495 692.084 403.541V403.541C691.074 403.254 690.217 402.57 689.702 401.655C676.426 378.062 665.726 364.124 643.709 340.195C642.961 339.383 642.74 338.203 643.157 337.18V337.18Z" fill="url(#paint50_linear_31_17)" fill-opacity="0.7"/>
<path d="M694.673 358.39C693.752 357.534 692.528 357.05 691.271 357.05H683.94C680.052 357.05 677.654 361.295 679.723 364.587C688.498 378.547 696.948 389.71 715.43 410.518L739.304 439.11C741.195 441.375 744.884 440.037 744.884 437.086V437.086C744.884 436.468 744.686 435.838 744.344 435.322C733.159 418.463 727.859 413.22 721.416 406.459C717.631 402.489 721.772 399.073 725.504 403.092V403.092C728.857 406.702 733.763 403.412 731.151 399.235C723.547 387.079 712.94 375.353 694.673 358.39Z" fill="url(#paint51_linear_31_17)" fill-opacity="0.7"/>
<defs>
<linearGradient id="paint0_linear_31_17" x1="644.384" y1="737" x2="297.884" y2="164.5" gradientUnits="userSpaceOnUse">
<stop stop-color="#FF0000"/>
<stop offset="1" stop-color="#00B9FF"/>
</linearGradient>
<linearGradient id="paint1_linear_31_17" x1="402.097" y1="271.117" x2="626.371" y2="650.431" gradientUnits="userSpaceOnUse">
<stop stop-color="#00CBFF"/>
<stop offset="1" stop-color="#B90C0C"/>
</linearGradient>
<linearGradient id="paint2_linear_31_17" x1="402.097" y1="271.117" x2="626.371" y2="650.431" gradientUnits="userSpaceOnUse">
<stop stop-color="#00CBFF"/>
<stop offset="1" stop-color="#B90C0C"/>
</linearGradient>
<linearGradient id="paint3_linear_31_17" x1="402.097" y1="271.117" x2="626.371" y2="650.431" gradientUnits="userSpaceOnUse">
<stop stop-color="#00CBFF"/>
<stop offset="1" stop-color="#B90C0C"/>
</linearGradient>
<linearGradient id="paint4_linear_31_17" x1="402.097" y1="271.117" x2="626.371" y2="650.431" gradientUnits="userSpaceOnUse">
<stop stop-color="#00CBFF"/>
<stop offset="1" stop-color="#B90C0C"/>
</linearGradient>
<linearGradient id="paint5_linear_31_17" x1="402.097" y1="271.117" x2="626.371" y2="650.431" gradientUnits="userSpaceOnUse">
<stop stop-color="#00CBFF"/>
<stop offset="1" stop-color="#B90C0C"/>
</linearGradient>
<linearGradient id="paint6_linear_31_17" x1="402.097" y1="271.117" x2="626.371" y2="650.431" gradientUnits="userSpaceOnUse">
<stop stop-color="#00CBFF"/>
<stop offset="1" stop-color="#B90C0C"/>
</linearGradient>
<linearGradient id="paint7_linear_31_17" x1="402.097" y1="271.117" x2="626.371" y2="650.431" gradientUnits="userSpaceOnUse">
<stop stop-color="#00CBFF"/>
<stop offset="1" stop-color="#B90C0C"/>
</linearGradient>
<linearGradient id="paint8_linear_31_17" x1="402.097" y1="271.117" x2="626.371" y2="650.431" gradientUnits="userSpaceOnUse">
<stop stop-color="#00CBFF"/>
<stop offset="1" stop-color="#B90C0C"/>
</linearGradient>
<linearGradient id="paint9_linear_31_17" x1="402.097" y1="271.117" x2="626.371" y2="650.431" gradientUnits="userSpaceOnUse">
<stop stop-color="#00CBFF"/>
<stop offset="1" stop-color="#B90C0C"/>
</linearGradient>
<linearGradient id="paint10_linear_31_17" x1="402.097" y1="271.117" x2="626.371" y2="650.431" gradientUnits="userSpaceOnUse">
<stop stop-color="#00CBFF"/>
<stop offset="1" stop-color="#B90C0C"/>
</linearGradient>
<linearGradient id="paint11_linear_31_17" x1="402.097" y1="271.117" x2="626.371" y2="650.431" gradientUnits="userSpaceOnUse">
<stop stop-color="#00CBFF"/>
<stop offset="1" stop-color="#B90C0C"/>
</linearGradient>
<linearGradient id="paint12_linear_31_17" x1="402.097" y1="271.117" x2="626.371" y2="650.431" gradientUnits="userSpaceOnUse">
<stop stop-color="#00CBFF"/>
<stop offset="1" stop-color="#B90C0C"/>
</linearGradient>
<linearGradient id="paint13_linear_31_17" x1="402.097" y1="271.117" x2="626.371" y2="650.431" gradientUnits="userSpaceOnUse">
<stop stop-color="#00CBFF"/>
<stop offset="1" stop-color="#B90C0C"/>
</linearGradient>
<linearGradient id="paint14_linear_31_17" x1="402.097" y1="271.117" x2="626.371" y2="650.431" gradientUnits="userSpaceOnUse">
<stop stop-color="#00CBFF"/>
<stop offset="1" stop-color="#B90C0C"/>
</linearGradient>
<linearGradient id="paint15_linear_31_17" x1="402.097" y1="271.117" x2="626.371" y2="650.431" gradientUnits="userSpaceOnUse">
<stop stop-color="#00CBFF"/>
<stop offset="1" stop-color="#B90C0C"/>
</linearGradient>
<linearGradient id="paint16_linear_31_17" x1="402.097" y1="271.117" x2="626.371" y2="650.431" gradientUnits="userSpaceOnUse">
<stop stop-color="#00CBFF"/>
<stop offset="1" stop-color="#B90C0C"/>
</linearGradient>
<linearGradient id="paint17_linear_31_17" x1="402.097" y1="271.117" x2="626.371" y2="650.431" gradientUnits="userSpaceOnUse">
<stop stop-color="#00CBFF"/>
<stop offset="1" stop-color="#B90C0C"/>
</linearGradient>
<linearGradient id="paint18_linear_31_17" x1="402.097" y1="271.117" x2="626.371" y2="650.431" gradientUnits="userSpaceOnUse">
<stop stop-color="#00CBFF"/>
<stop offset="1" stop-color="#B90C0C"/>
</linearGradient>
<linearGradient id="paint19_linear_31_17" x1="402.097" y1="271.117" x2="626.371" y2="650.431" gradientUnits="userSpaceOnUse">
<stop stop-color="#00CBFF"/>
<stop offset="1" stop-color="#B90C0C"/>
</linearGradient>
<linearGradient id="paint20_linear_31_17" x1="402.097" y1="271.117" x2="626.371" y2="650.431" gradientUnits="userSpaceOnUse">
<stop stop-color="#00CBFF"/>
<stop offset="1" stop-color="#B90C0C"/>
</linearGradient>
<linearGradient id="paint21_linear_31_17" x1="402.097" y1="271.117" x2="626.371" y2="650.431" gradientUnits="userSpaceOnUse">
<stop stop-color="#00CBFF"/>
<stop offset="1" stop-color="#B90C0C"/>
</linearGradient>
<linearGradient id="paint22_linear_31_17" x1="402.097" y1="271.117" x2="626.371" y2="650.431" gradientUnits="userSpaceOnUse">
<stop stop-color="#00CBFF"/>
<stop offset="1" stop-color="#B90C0C"/>
</linearGradient>
<linearGradient id="paint23_linear_31_17" x1="402.097" y1="271.117" x2="626.371" y2="650.431" gradientUnits="userSpaceOnUse">
<stop stop-color="#00CBFF"/>
<stop offset="1" stop-color="#B90C0C"/>
</linearGradient>
<linearGradient id="paint24_linear_31_17" x1="402.097" y1="271.117" x2="626.371" y2="650.431" gradientUnits="userSpaceOnUse">
<stop stop-color="#00CBFF"/>
<stop offset="1" stop-color="#B90C0C"/>
</linearGradient>
<linearGradient id="paint25_linear_31_17" x1="402.097" y1="271.117" x2="626.371" y2="650.431" gradientUnits="userSpaceOnUse">
<stop stop-color="#00CBFF"/>
<stop offset="1" stop-color="#B90C0C"/>
</linearGradient>
<linearGradient id="paint26_linear_31_17" x1="402.097" y1="271.117" x2="626.371" y2="650.431" gradientUnits="userSpaceOnUse">
<stop stop-color="#00CBFF"/>
<stop offset="1" stop-color="#B90C0C"/>
</linearGradient>
<linearGradient id="paint27_linear_31_17" x1="402.097" y1="271.117" x2="626.371" y2="650.431" gradientUnits="userSpaceOnUse">
<stop stop-color="#00CBFF"/>
<stop offset="1" stop-color="#B90C0C"/>
</linearGradient>
<linearGradient id="paint28_linear_31_17" x1="402.097" y1="271.117" x2="626.371" y2="650.431" gradientUnits="userSpaceOnUse">
<stop stop-color="#00CBFF"/>
<stop offset="1" stop-color="#B90C0C"/>
</linearGradient>
<linearGradient id="paint29_linear_31_17" x1="402.097" y1="271.117" x2="626.371" y2="650.431" gradientUnits="userSpaceOnUse">
<stop stop-color="#00CBFF"/>
<stop offset="1" stop-color="#B90C0C"/>
</linearGradient>
<linearGradient id="paint30_linear_31_17" x1="402.097" y1="271.117" x2="626.371" y2="650.431" gradientUnits="userSpaceOnUse">
<stop stop-color="#00CBFF"/>
<stop offset="1" stop-color="#B90C0C"/>
</linearGradient>
<linearGradient id="paint31_linear_31_17" x1="402.097" y1="271.117" x2="626.371" y2="650.431" gradientUnits="userSpaceOnUse">
<stop stop-color="#00CBFF"/>
<stop offset="1" stop-color="#B90C0C"/>
</linearGradient>
<linearGradient id="paint32_linear_31_17" x1="402.097" y1="271.117" x2="626.371" y2="650.431" gradientUnits="userSpaceOnUse">
<stop stop-color="#00CBFF"/>
<stop offset="1" stop-color="#B90C0C"/>
</linearGradient>
<linearGradient id="paint33_linear_31_17" x1="402.097" y1="271.117" x2="626.371" y2="650.431" gradientUnits="userSpaceOnUse">
<stop stop-color="#00CBFF"/>
<stop offset="1" stop-color="#B90C0C"/>
</linearGradient>
<linearGradient id="paint34_linear_31_17" x1="402.097" y1="271.117" x2="626.371" y2="650.431" gradientUnits="userSpaceOnUse">
<stop stop-color="#00CBFF"/>
<stop offset="1" stop-color="#B90C0C"/>
</linearGradient>
<linearGradient id="paint35_linear_31_17" x1="402.097" y1="271.117" x2="626.371" y2="650.431" gradientUnits="userSpaceOnUse">
<stop stop-color="#00CBFF"/>
<stop offset="1" stop-color="#B90C0C"/>
</linearGradient>
<linearGradient id="paint36_linear_31_17" x1="402.097" y1="271.117" x2="626.371" y2="650.431" gradientUnits="userSpaceOnUse">
<stop stop-color="#00CBFF"/>
<stop offset="1" stop-color="#B90C0C"/>
</linearGradient>
<linearGradient id="paint37_linear_31_17" x1="402.097" y1="271.117" x2="626.371" y2="650.431" gradientUnits="userSpaceOnUse">
<stop stop-color="#00CBFF"/>
<stop offset="1" stop-color="#B90C0C"/>
</linearGradient>
<linearGradient id="paint38_linear_31_17" x1="402.097" y1="271.117" x2="626.371" y2="650.431" gradientUnits="userSpaceOnUse">
<stop stop-color="#00CBFF"/>
<stop offset="1" stop-color="#B90C0C"/>
</linearGradient>
<linearGradient id="paint39_linear_31_17" x1="402.097" y1="271.117" x2="626.371" y2="650.431" gradientUnits="userSpaceOnUse">
<stop stop-color="#00CBFF"/>
<stop offset="1" stop-color="#B90C0C"/>
</linearGradient>
<linearGradient id="paint40_linear_31_17" x1="402.097" y1="271.117" x2="626.371" y2="650.431" gradientUnits="userSpaceOnUse">
<stop stop-color="#00CBFF"/>
<stop offset="1" stop-color="#B90C0C"/>
</linearGradient>
<linearGradient id="paint41_linear_31_17" x1="402.097" y1="271.117" x2="626.371" y2="650.431" gradientUnits="userSpaceOnUse">
<stop stop-color="#00CBFF"/>
<stop offset="1" stop-color="#B90C0C"/>
</linearGradient>
<linearGradient id="paint42_linear_31_17" x1="402.097" y1="271.117" x2="626.371" y2="650.431" gradientUnits="userSpaceOnUse">
<stop stop-color="#00CBFF"/>
<stop offset="1" stop-color="#B90C0C"/>
</linearGradient>
<linearGradient id="paint43_linear_31_17" x1="402.097" y1="271.117" x2="626.371" y2="650.431" gradientUnits="userSpaceOnUse">
<stop stop-color="#00CBFF"/>
<stop offset="1" stop-color="#B90C0C"/>
</linearGradient>
<linearGradient id="paint44_linear_31_17" x1="402.097" y1="271.117" x2="626.371" y2="650.431" gradientUnits="userSpaceOnUse">
<stop stop-color="#00CBFF"/>
<stop offset="1" stop-color="#B90C0C"/>
</linearGradient>
<linearGradient id="paint45_linear_31_17" x1="402.097" y1="271.117" x2="626.371" y2="650.431" gradientUnits="userSpaceOnUse">
<stop stop-color="#00CBFF"/>
<stop offset="1" stop-color="#B90C0C"/>
</linearGradient>
<linearGradient id="paint46_linear_31_17" x1="402.097" y1="271.117" x2="626.371" y2="650.431" gradientUnits="userSpaceOnUse">
<stop stop-color="#00CBFF"/>
<stop offset="1" stop-color="#B90C0C"/>
</linearGradient>
<linearGradient id="paint47_linear_31_17" x1="402.097" y1="271.117" x2="626.371" y2="650.431" gradientUnits="userSpaceOnUse">
<stop stop-color="#00CBFF"/>
<stop offset="1" stop-color="#B90C0C"/>
</linearGradient>
<linearGradient id="paint48_linear_31_17" x1="402.097" y1="271.117" x2="626.371" y2="650.431" gradientUnits="userSpaceOnUse">
<stop stop-color="#00CBFF"/>
<stop offset="1" stop-color="#B90C0C"/>
</linearGradient>
<linearGradient id="paint49_linear_31_17" x1="402.097" y1="271.117" x2="626.371" y2="650.431" gradientUnits="userSpaceOnUse">
<stop stop-color="#00CBFF"/>
<stop offset="1" stop-color="#B90C0C"/>
</linearGradient>
<linearGradient id="paint50_linear_31_17" x1="402.097" y1="271.117" x2="626.371" y2="650.431" gradientUnits="userSpaceOnUse">
<stop stop-color="#00CBFF"/>
<stop offset="1" stop-color="#B90C0C"/>
</linearGradient>
<linearGradient id="paint51_linear_31_17" x1="402.097" y1="271.117" x2="626.371" y2="650.431" gradientUnits="userSpaceOnUse">
<stop stop-color="#00CBFF"/>
<stop offset="1" stop-color="#B90C0C"/>
</linearGradient>
</defs>
</svg>
