<svg width="98" height="533" viewBox="0 0 98 533" fill="none" xmlns="http://www.w3.org/2000/svg">
<path d="M98 528C98 530.761 95.7511 533.036 93.0118 532.687C67.8751 529.486 48.8945 501.868 30.5369 454.944C10.9845 404.966 3.2963e-06 337.18 0 266.5C-3.2963e-06 195.82 10.9844 128.035 30.5369 78.0561C48.8944 31.1319 67.8751 3.51358 93.0118 0.313178C95.7511 -0.0355915 98 2.23858 98 5V8.39313C98 11.1546 95.7501 13.3552 93.0133 13.7237C69.3009 16.9158 51.6152 43.118 34.2419 87.5264C15.672 134.993 5.23963 199.372 5.23963 266.5C5.23963 333.628 15.6721 398.007 34.2419 445.474C51.6152 489.882 69.3009 516.084 93.0133 519.276C95.7501 519.645 98 521.845 98 524.607V528Z" fill="url(#paint0_linear_239_4)"/>
<defs>
<linearGradient id="paint0_linear_239_4" x1="98" y1="0" x2="98" y2="533" gradientUnits="userSpaceOnUse">
<stop stop-color="#00B8FF" stop-opacity="0"/>
<stop offset="0.5625" stop-color="#FE0000"/>
<stop offset="1" stop-color="#00B8FF" stop-opacity="0"/>
</linearGradient>
</defs>
</svg>
