<svg width="1730" height="19" viewBox="0 0 1730 19" fill="none" xmlns="http://www.w3.org/2000/svg">
<path d="M514 0V19M163 0V19M865 0V19M397 0V19M46 0V19M748 0V19M631 0V19M280 0V19M982 0V19M559 0V19M208 0V19M910 0V19M442 0V19M91 0V19M793 0V19M676 0V19M325 0V19M1027 0V19M469 0V19M118 0V19M820 0V19M352 0V19M1 0L1 19M703 0V19M586 0V19M235 0V19M937 0V19M523 3.93103V19M172 3.93103V19M874 3.93103V19M406 3.93103V19M55 3.93103V19M757 3.93103V19M640 3.93103V19M289 3.93103V19M991 3.93103V19M568 3.93103V19M217 3.93103V19M919 3.93103V19M451 3.93103V19M100 3.93103V19M802 3.93103V19M685 3.93103V19M334 3.93103V19M1036 3.93103V19M478 3.93103V19M127 3.93103V19M829 3.93103V19M361 3.93103V19M10 3.93103L10 19M712 3.93103V19M595 3.93103V19M244 3.93103V19M946 3.93103V19M532 3.93103V19M181 3.93103V19M883 3.93103V19M415 3.93103V19M64 3.93103V19M766 3.93103V19M649 3.93103V19M298 3.93103V19M1000 3.93103V19M577 3.93103V19M226 3.93103V19M928 3.93103V19M460 3.93103V19M109 3.93103V19M811 3.93103V19M694 3.93103V19M343 3.93103V19M1045 3.93103V19M487 3.93103V19M136 3.93103V19M838 3.93103V19M370 3.93103V19M19 3.93103L19 19M721 3.93103V19M604 3.93103V19M253 3.93103V19M955 3.93103V19M505 3.93103V19M154 3.93103V19M856 3.93103V19M388 3.93103V19M37 3.93103V19M739 3.93103V19M622 3.93103V19M271 3.93103V19M973 3.93103V19M550 3.93103V19M199 3.93103V19M901 3.93103V19M433 3.93103V19M82 3.93103V19M784 3.93103V19M667 3.93103V19M316 3.93103V19M1018 3.93103V19M496 3.93103V19M145 3.93103V19M847 3.93103V19M379 3.93103V19M28 3.93103L28 19M730 3.93103V19M613 3.93103V19M262 3.93103V19M964 3.93103V19M541 3.93103V19M190 3.93103V19M892 3.93103V19M424 3.93103V19M73 3.93103V19M775 3.93103V19M658 3.93103V19M307 3.93103V19M1009 3.93103V19M1540 0V19M1189 0V19M1423 0V19M1072 0V19M1657 0V19M1306 0V19M1585 0V19M1234 0V19M1468 0V19M1117 0V19M1702 0V19M1351 0V19M1495 0V19M1144 0V19M1378 0V19M1729 0V19M1612 0V19M1261 0V19M1549 3.93103V19M1198 3.93103V19M1432 3.93103V19M1081 3.93103V19M1666 3.93103V19M1315 3.93103V19M1594 3.93103V19M1243 3.93103V19M1477 3.93103V19M1126 3.93103V19M1711 3.93103V19M1360 3.93103V19M1504 3.93103V19M1153 3.93103V19M1387 3.93103V19M1621 3.93103V19M1270 3.93103V19M1558 3.93103V19M1207 3.93103V19M1441 3.93103V19M1090 3.93103V19M1675 3.93103V19M1324 3.93103V19M1603 3.93103V19M1252 3.93103V19M1486 3.93103V19M1135 3.93103V19M1720 3.93103V19M1369 3.93103V19M1513 3.93103V19M1162 3.93103V19M1396 3.93103V19M1630 3.93103V19M1279 3.93103V19M1531 3.93103V19M1180 3.93103V19M1414 3.93103V19M1063 3.93103V19M1648 3.93103V19M1297 3.93103V19M1576 3.93103V19M1225 3.93103V19M1459 3.93103V19M1108 3.93103V19M1693 3.93103V19M1342 3.93103V19M1522 3.93103V19M1171 3.93103V19M1405 3.93103V19M1054 3.93103V19M1639 3.93103V19M1288 3.93103V19M1567 3.93103V19M1216 3.93103V19M1450 3.93103V19M1099 3.93103V19M1684 3.93103V19M1333 3.93103V19" stroke="url(#paint0_linear_242_272)" stroke-width="2"/>
<defs>
<linearGradient id="paint0_linear_242_272" x1="865" y1="0" x2="865" y2="19" gradientUnits="userSpaceOnUse">
<stop stop-color="#F80405"/>
<stop offset="1" stop-color="#00B8FF"/>
</linearGradient>
</defs>
</svg>
